{"glyphs":{"0":{"ha":865,"x_min":63,"x_max":801,"o":"m 432 -22 q 258 15 329 -22 q 144 117 186 51 q 82 271 101 183 q 63 460 63 358 q 82 647 63 560 q 144 801 101 735 q 258 904 186 867 q 432 942 329 942 q 607 904 536 942 q 721 801 678 867 q 783 647 764 735 q 801 460 801 560 q 783 271 801 358 q 721 117 764 183 q 607 15 678 51 q 432 -22 536 -22 m 432 76 q 592 128 535 76 q 672 268 649 181 q 694 460 694 356 q 672 651 694 564 q 592 790 649 738 q 432 842 535 842 q 274 790 331 842 q 193 651 217 738 q 169 460 169 564 q 193 268 169 356 q 274 128 217 181 q 432 76 331 76 z "},"1":{"ha":444,"x_min":31,"x_max":342,"o":"m 342 0 l 236 0 l 236 794 l 96 664 l 31 736 l 231 917 l 342 917 l 342 0 z "},"2":{"ha":765,"x_min":33,"x_max":718,"o":"m 33 0 q 47 92 33 47 q 94 180 61 136 q 182 270 126 224 q 319 367 238 317 l 461 456 q 547 518 514 488 q 594 584 579 549 q 610 669 610 619 q 585 747 610 707 q 513 815 561 788 q 392 843 464 843 q 274 826 318 843 q 206 782 229 808 q 175 728 183 756 l 72 757 q 106 824 83 792 q 167 883 129 857 q 261 926 206 910 q 392 942 317 942 q 535 917 474 942 q 637 852 596 892 q 698 765 678 813 q 718 671 718 717 q 698 555 718 604 q 630 462 678 506 q 500 367 582 418 l 357 276 q 276 221 314 250 q 212 161 239 192 q 172 99 185 131 l 704 99 l 704 0 l 33 0 z "},"3":{"ha":793,"x_min":50,"x_max":732,"o":"m 360 531 l 379 531 q 543 572 488 531 q 599 675 599 613 q 542 785 599 738 q 379 833 486 833 q 243 799 296 833 q 172 718 190 765 l 68 749 q 125 842 85 800 q 230 908 165 883 q 379 933 294 933 q 558 899 485 933 q 668 809 631 865 q 706 686 706 753 q 674 572 706 622 q 581 493 642 522 q 694 406 656 461 q 732 274 732 351 q 693 129 732 194 q 576 25 654 64 q 379 -14 497 -14 q 222 11 289 -14 q 113 79 156 36 q 50 174 69 122 l 153 203 q 234 124 176 158 q 379 89 292 89 q 515 115 460 89 q 598 184 569 142 q 626 275 626 226 q 564 397 626 353 q 379 442 501 442 l 360 442 l 360 531 z "},"4":{"ha":715,"x_min":11,"x_max":676,"o":"m 585 0 l 479 0 l 479 246 l 11 246 l 11 321 l 450 917 l 585 917 l 585 339 l 676 339 l 676 246 l 585 246 l 585 0 m 139 339 l 479 339 l 481 801 l 139 339 z "},"5":{"ha":733,"x_min":22,"x_max":700,"o":"m 347 -22 q 194 2 260 -22 q 86 69 129 26 q 22 165 43 111 l 125 196 q 207 115 151 149 q 347 81 263 81 q 481 108 426 81 q 565 184 536 136 q 593 292 593 232 q 531 435 594 382 q 347 489 467 489 q 253 478 296 489 q 181 447 211 468 l 90 514 l 211 917 l 657 917 l 657 818 l 278 818 l 206 571 q 272 585 236 581 q 347 590 307 590 q 542 553 464 590 q 660 449 621 517 q 700 292 700 382 q 660 131 700 201 q 542 19 621 60 q 347 -22 464 -22 z "},"6":{"ha":850,"x_min":89,"x_max":794,"o":"m 442 -14 q 253 27 332 -14 q 131 140 174 68 q 89 306 89 213 q 153 598 89 474 q 336 806 218 722 q 614 940 454 890 l 643 836 q 385 707 485 788 q 249 528 285 626 q 326 573 272 556 q 446 590 381 590 q 641 553 564 590 q 756 449 718 517 q 794 292 794 382 q 756 136 794 206 q 638 26 717 67 q 442 -14 560 -14 m 442 89 q 576 116 521 89 q 659 190 631 143 q 688 292 688 236 q 625 435 689 382 q 442 489 561 489 q 310 468 365 489 q 224 406 254 447 q 196 303 194 365 q 224 199 196 247 q 308 119 253 150 q 442 89 363 89 z "},"7":{"ha":647,"x_min":22,"x_max":625,"o":"m 22 917 l 625 917 l 621 844 l 235 1 l 128 1 l 503 818 l 22 818 l 22 917 z "},"8":{"ha":828,"x_min":61,"x_max":767,"o":"m 414 -14 q 217 25 296 -14 q 100 127 139 64 q 61 265 61 190 q 100 402 61 343 q 214 493 139 461 q 119 572 151 522 q 88 686 88 622 q 126 809 88 753 q 237 899 164 865 q 414 933 310 933 q 591 899 518 933 q 702 809 664 865 q 740 686 740 753 q 708 572 740 622 q 614 493 676 522 q 728 402 689 461 q 767 265 767 343 q 728 127 767 190 q 610 25 689 64 q 414 -14 532 -14 m 414 89 q 549 113 493 89 q 632 177 604 138 q 660 261 660 217 q 597 390 660 338 q 414 442 535 442 q 231 390 293 442 q 168 261 168 338 q 196 177 168 217 q 278 113 224 138 q 414 89 333 89 m 414 531 q 577 574 522 531 q 632 681 632 618 q 576 789 632 744 q 414 833 519 833 q 251 788 308 833 q 194 681 194 743 q 250 574 194 618 q 414 531 306 531 z "},"9":{"ha":850,"x_min":56,"x_max":761,"o":"m 408 936 q 597 895 518 936 q 719 782 676 854 q 761 617 761 710 q 697 324 761 449 q 514 116 632 200 q 236 -18 396 32 l 207 86 q 465 215 365 135 q 601 394 565 296 q 524 349 578 367 q 404 332 469 332 q 209 369 286 332 q 94 473 132 406 q 56 631 56 540 q 94 786 56 717 q 212 896 133 856 q 408 936 290 936 m 408 833 q 274 806 329 833 q 191 733 219 779 q 163 631 163 686 q 225 487 161 540 q 408 433 289 433 q 540 454 483 433 q 626 516 596 475 q 654 619 656 557 q 626 724 654 675 q 542 803 597 772 q 408 833 488 833 z "},"A":{"ha":1021,"x_min":36,"x_max":985,"o":"m 985 0 l 872 0 l 744 283 l 276 283 l 149 0 l 36 0 l 453 917 l 568 917 l 985 0 m 317 375 l 704 375 l 510 804 l 317 375 z "},"Á":{"ha":1021,"x_min":36,"x_max":985,"o":"m 985 0 l 872 0 l 744 283 l 276 283 l 149 0 l 36 0 l 453 917 l 568 917 l 985 0 m 317 375 l 704 375 l 510 804 l 317 375 m 607 1211 l 704 1211 l 561 1004 l 465 1004 l 607 1211 z "},"Ă":{"ha":1021,"x_min":36,"x_max":985,"o":"m 985 0 l 872 0 l 744 283 l 276 283 l 149 0 l 36 0 l 453 917 l 568 917 l 985 0 m 317 375 l 704 375 l 510 804 l 317 375 m 510 1000 q 422 1016 460 1000 q 360 1063 385 1032 q 322 1142 335 1094 l 413 1142 q 442 1092 421 1113 q 510 1071 464 1071 q 576 1092 554 1071 q 607 1142 599 1113 l 696 1142 q 658 1063 683 1094 q 596 1016 633 1032 q 510 1000 558 1000 z "},"Ắ":{"ha":1021,"x_min":36,"x_max":985,"o":"m 985 0 l 872 0 l 744 283 l 276 283 l 149 0 l 36 0 l 453 917 l 568 917 l 985 0 m 317 375 l 704 375 l 510 804 l 317 375 m 510 1000 q 422 1016 460 1000 q 360 1063 385 1032 q 322 1142 335 1094 l 413 1142 q 442 1092 421 1113 q 510 1071 464 1071 q 576 1092 554 1071 q 607 1142 599 1113 l 696 1142 q 658 1063 683 1094 q 596 1016 633 1032 q 510 1000 558 1000 m 617 1364 l 713 1364 l 571 1158 l 474 1158 l 617 1364 z "},"Ặ":{"ha":1021,"x_min":36,"x_max":985,"o":"m 985 0 l 872 0 l 744 283 l 276 283 l 149 0 l 36 0 l 453 917 l 568 917 l 985 0 m 317 375 l 704 375 l 510 804 l 317 375 m 532 -226 q 487 -208 506 -226 q 468 -162 468 -189 q 487 -117 468 -136 q 532 -97 506 -97 q 578 -117 560 -97 q 597 -162 597 -136 q 578 -208 597 -189 q 532 -226 560 -226 m 510 1000 q 422 1016 460 1000 q 360 1063 385 1032 q 322 1142 335 1094 l 413 1142 q 442 1092 421 1113 q 510 1071 464 1071 q 576 1092 554 1071 q 607 1142 599 1113 l 696 1142 q 658 1063 683 1094 q 596 1016 633 1032 q 510 1000 558 1000 z "},"Ằ":{"ha":1021,"x_min":36,"x_max":985,"o":"m 985 0 l 872 0 l 744 283 l 276 283 l 149 0 l 36 0 l 453 917 l 568 917 l 985 0 m 317 375 l 704 375 l 510 804 l 317 375 m 510 1000 q 422 1016 460 1000 q 360 1063 385 1032 q 322 1142 335 1094 l 413 1142 q 442 1092 421 1113 q 510 1071 464 1071 q 576 1092 554 1071 q 607 1142 599 1113 l 696 1142 q 658 1063 683 1094 q 596 1016 633 1032 q 510 1000 558 1000 m 425 1364 l 567 1157 l 471 1157 l 329 1364 l 425 1364 z "},"Ẳ":{"ha":1021,"x_min":36,"x_max":985,"o":"m 985 0 l 872 0 l 744 283 l 276 283 l 149 0 l 36 0 l 453 917 l 568 917 l 985 0 m 317 375 l 704 375 l 510 804 l 317 375 m 510 1000 q 422 1016 460 1000 q 360 1063 385 1032 q 322 1142 335 1094 l 413 1142 q 442 1092 421 1113 q 510 1071 464 1071 q 576 1092 554 1071 q 607 1142 599 1113 l 696 1142 q 658 1063 683 1094 q 596 1016 633 1032 q 510 1000 558 1000 m 547 1394 q 603 1381 579 1394 q 640 1347 626 1367 q 653 1306 653 1326 q 639 1253 653 1278 q 579 1213 625 1229 q 559 1199 563 1207 q 556 1179 556 1190 l 556 1165 l 481 1165 l 481 1189 q 490 1225 481 1208 q 528 1254 500 1242 q 551 1265 538 1258 q 574 1279 564 1271 q 583 1301 583 1288 q 575 1322 583 1313 q 547 1332 567 1332 q 513 1322 524 1332 q 503 1289 503 1313 l 435 1289 q 450 1352 435 1329 q 491 1385 465 1375 q 547 1394 517 1394 z "},"Ẵ":{"ha":1021,"x_min":36,"x_max":985,"o":"m 985 0 l 872 0 l 744 283 l 276 283 l 149 0 l 36 0 l 453 917 l 568 917 l 985 0 m 317 375 l 704 375 l 510 804 l 317 375 m 510 1000 q 422 1016 460 1000 q 360 1063 385 1032 q 322 1142 335 1094 l 413 1142 q 442 1092 421 1113 q 510 1071 464 1071 q 576 1092 554 1071 q 607 1142 599 1113 l 696 1142 q 658 1063 683 1094 q 596 1016 633 1032 q 510 1000 558 1000 m 538 1317 q 570 1289 557 1300 q 604 1278 583 1278 q 653 1305 642 1279 q 665 1358 664 1331 l 740 1358 q 726 1285 739 1322 q 683 1223 713 1249 q 608 1197 654 1197 q 543 1211 567 1197 q 497 1247 519 1225 q 466 1274 479 1265 q 431 1282 453 1283 q 393 1269 406 1282 q 376 1239 381 1257 q 371 1203 371 1221 l 296 1203 q 310 1280 296 1243 q 354 1340 325 1317 q 429 1364 383 1364 q 495 1349 471 1364 q 538 1317 519 1333 z "},"Ǎ":{"ha":1021,"x_min":36,"x_max":985,"o":"m 985 0 l 872 0 l 744 283 l 276 283 l 149 0 l 36 0 l 453 917 l 568 917 l 985 0 m 317 375 l 704 375 l 510 804 l 317 375 m 574 999 l 451 999 l 310 1206 l 414 1206 l 513 1060 l 613 1206 l 717 1206 l 574 999 z "},"Â":{"ha":1021,"x_min":36,"x_max":985,"o":"m 985 0 l 872 0 l 744 283 l 276 283 l 149 0 l 36 0 l 453 917 l 568 917 l 985 0 m 317 375 l 704 375 l 510 804 l 317 375 m 575 1201 l 717 994 l 614 994 l 514 1139 l 414 994 l 311 994 l 453 1201 l 575 1201 z "},"Ấ":{"ha":1021,"x_min":36,"x_max":985,"o":"m 985 0 l 872 0 l 744 283 l 276 283 l 149 0 l 36 0 l 453 917 l 568 917 l 985 0 m 317 375 l 704 375 l 510 804 l 317 375 m 575 1201 l 717 994 l 614 994 l 514 1139 l 414 994 l 311 994 l 453 1201 l 575 1201 m 821 1321 l 917 1321 l 775 1115 l 679 1115 l 821 1321 z "},"Ậ":{"ha":1021,"x_min":36,"x_max":985,"o":"m 985 0 l 872 0 l 744 283 l 276 283 l 149 0 l 36 0 l 453 917 l 568 917 l 985 0 m 317 375 l 704 375 l 510 804 l 317 375 m 532 -226 q 487 -208 506 -226 q 468 -162 468 -189 q 487 -117 468 -136 q 532 -97 506 -97 q 578 -117 560 -97 q 597 -162 597 -136 q 578 -208 597 -189 q 532 -226 560 -226 m 575 1201 l 717 994 l 614 994 l 514 1139 l 414 994 l 311 994 l 453 1201 l 575 1201 z "},"Ầ":{"ha":1021,"x_min":36,"x_max":985,"o":"m 985 0 l 872 0 l 744 283 l 276 283 l 149 0 l 36 0 l 453 917 l 568 917 l 985 0 m 317 375 l 704 375 l 510 804 l 317 375 m 575 1201 l 717 994 l 614 994 l 514 1139 l 414 994 l 311 994 l 453 1201 l 575 1201 m 668 1321 l 810 1114 l 714 1114 l 571 1321 l 668 1321 z "},"Ẩ":{"ha":1021,"x_min":36,"x_max":985,"o":"m 985 0 l 872 0 l 744 283 l 276 283 l 149 0 l 36 0 l 453 917 l 568 917 l 985 0 m 317 375 l 704 375 l 510 804 l 317 375 m 575 1201 l 717 994 l 614 994 l 514 1139 l 414 994 l 311 994 l 453 1201 l 575 1201 m 751 1351 q 808 1338 785 1351 q 844 1303 832 1324 q 857 1263 857 1283 q 844 1210 857 1235 q 785 1169 831 1186 q 763 1156 767 1164 q 760 1136 760 1147 l 760 1122 l 685 1122 l 685 1146 q 694 1182 685 1165 q 732 1211 704 1199 q 755 1222 742 1215 q 778 1236 768 1228 q 789 1258 789 1244 q 781 1279 789 1269 q 751 1289 772 1289 q 717 1279 728 1289 q 707 1246 707 1269 l 639 1246 q 654 1309 639 1286 q 695 1342 669 1332 q 751 1351 721 1351 z "},"Ẫ":{"ha":1021,"x_min":36,"x_max":985,"o":"m 985 0 l 872 0 l 744 283 l 276 283 l 149 0 l 36 0 l 453 917 l 568 917 l 985 0 m 317 375 l 704 375 l 510 804 l 317 375 m 575 1201 l 717 994 l 614 994 l 514 1139 l 414 994 l 311 994 l 453 1201 l 575 1201 m 554 1361 q 587 1333 574 1344 q 621 1322 600 1322 q 670 1349 660 1324 q 682 1401 681 1375 l 757 1401 q 742 1329 756 1367 q 700 1266 729 1292 q 625 1240 671 1240 q 560 1255 583 1240 q 515 1292 536 1269 q 483 1319 496 1310 q 449 1326 469 1328 q 410 1313 422 1325 q 393 1283 397 1301 q 388 1247 389 1265 l 313 1247 q 327 1324 313 1286 q 371 1385 342 1361 q 446 1408 400 1408 q 512 1393 488 1408 q 554 1361 536 1378 z "},"Ȁ":{"ha":1021,"x_min":36,"x_max":985,"o":"m 985 0 l 872 0 l 744 283 l 276 283 l 149 0 l 36 0 l 453 917 l 568 917 l 985 0 m 317 375 l 704 375 l 510 804 l 317 375 m 283 1210 l 426 1003 l 329 1003 l 188 1210 l 283 1210 m 529 1210 l 672 1003 l 575 1003 l 433 1210 l 529 1210 z "},"Ä":{"ha":1021,"x_min":36,"x_max":985,"o":"m 985 0 l 872 0 l 744 283 l 276 283 l 149 0 l 36 0 l 453 917 l 568 917 l 985 0 m 317 375 l 704 375 l 510 804 l 317 375 m 404 1049 q 358 1067 378 1049 q 339 1113 339 1086 q 358 1158 339 1139 q 404 1178 378 1178 q 449 1158 431 1178 q 468 1113 468 1139 q 449 1067 468 1086 q 404 1049 431 1049 m 613 1049 q 567 1067 586 1049 q 549 1113 549 1086 q 567 1158 549 1139 q 613 1178 586 1178 q 658 1158 639 1178 q 676 1113 676 1139 q 658 1067 676 1086 q 613 1049 639 1049 z "},"Ạ":{"ha":1021,"x_min":36,"x_max":985,"o":"m 985 0 l 872 0 l 744 283 l 276 283 l 149 0 l 36 0 l 453 917 l 568 917 l 985 0 m 317 375 l 704 375 l 510 804 l 317 375 m 532 -226 q 487 -208 506 -226 q 468 -162 468 -189 q 487 -117 468 -136 q 532 -97 506 -97 q 578 -117 560 -97 q 597 -162 597 -136 q 578 -208 597 -189 q 532 -226 560 -226 z "},"À":{"ha":1021,"x_min":36,"x_max":985,"o":"m 985 0 l 872 0 l 744 283 l 276 283 l 149 0 l 36 0 l 453 917 l 568 917 l 985 0 m 317 375 l 704 375 l 510 804 l 317 375 m 428 1210 l 571 1003 l 474 1003 l 332 1210 l 428 1210 z "},"Ả":{"ha":1021,"x_min":36,"x_max":985,"o":"m 985 0 l 872 0 l 744 283 l 276 283 l 149 0 l 36 0 l 453 917 l 568 917 l 985 0 m 317 375 l 704 375 l 510 804 l 317 375 m 539 1240 q 594 1227 571 1240 q 631 1194 618 1214 q 643 1153 643 1174 q 630 1101 643 1125 q 571 1060 617 1076 q 549 1046 553 1054 q 546 1025 546 1038 l 546 1013 l 471 1013 l 471 1036 q 482 1072 472 1056 q 518 1101 492 1089 q 541 1111 528 1106 q 565 1126 554 1117 q 575 1149 575 1135 q 567 1169 575 1160 q 538 1178 558 1178 q 505 1169 515 1178 q 494 1136 494 1160 l 425 1136 q 440 1199 425 1176 q 481 1231 456 1222 q 539 1240 507 1240 z "},"Ȃ":{"ha":1021,"x_min":36,"x_max":985,"o":"m 985 0 l 872 0 l 744 283 l 276 283 l 149 0 l 36 0 l 453 917 l 568 917 l 985 0 m 317 375 l 704 375 l 510 804 l 317 375 m 510 1157 q 596 1141 558 1157 q 658 1094 633 1125 q 696 1015 683 1063 l 607 1015 q 576 1066 599 1046 q 510 1086 554 1086 q 442 1066 464 1086 q 413 1015 421 1046 l 322 1015 q 360 1094 335 1063 q 422 1141 385 1125 q 510 1157 460 1157 z "},"Ā":{"ha":1021,"x_min":36,"x_max":985,"o":"m 985 0 l 872 0 l 744 283 l 276 283 l 149 0 l 36 0 l 453 917 l 568 917 l 985 0 m 317 375 l 704 375 l 510 804 l 317 375 m 356 1119 l 674 1119 l 675 1036 l 356 1036 l 356 1119 z "},"Ą":{"ha":1025,"x_min":36,"x_max":989,"o":"m 985 0 q 895 -81 926 -46 q 852 -139 864 -115 q 840 -175 840 -162 q 858 -210 840 -197 q 899 -224 875 -224 q 919 -222 908 -224 q 939 -214 929 -219 l 953 -208 l 989 -294 l 947 -307 q 889 -317 918 -317 q 811 -299 846 -317 q 756 -251 776 -281 q 735 -185 735 -221 q 755 -111 735 -147 q 806 -43 775 -75 q 865 15 836 -11 l 744 283 l 276 283 l 149 0 l 36 0 l 453 917 l 568 917 l 985 0 m 317 375 l 704 375 l 510 804 l 317 375 z "},"Å":{"ha":1021,"x_min":36,"x_max":985,"o":"m 985 0 l 872 0 l 744 283 l 276 283 l 149 0 l 36 0 l 438 882 q 391 931 408 900 q 374 997 374 961 q 392 1066 374 1035 q 442 1116 411 1097 q 511 1135 474 1135 q 581 1116 550 1135 q 631 1066 613 1097 q 649 997 649 1035 q 631 930 649 961 q 585 881 614 899 l 985 0 m 317 375 l 704 375 l 510 804 l 317 375 m 565 997 q 549 1044 565 1028 q 511 1061 533 1061 q 474 1044 489 1061 q 458 997 458 1028 q 474 951 458 968 q 511 933 489 933 q 549 951 533 933 q 565 997 565 968 z "},"Ǻ":{"ha":1021,"x_min":36,"x_max":985,"o":"m 985 0 l 872 0 l 744 283 l 276 283 l 149 0 l 36 0 l 438 882 q 391 931 408 900 q 374 997 374 961 q 392 1066 374 1035 q 442 1116 411 1097 q 511 1135 474 1135 q 581 1116 550 1135 q 631 1066 613 1097 q 649 997 649 1035 q 631 930 649 961 q 585 881 614 899 l 985 0 m 317 375 l 704 375 l 510 804 l 317 375 m 565 997 q 549 1044 565 1028 q 511 1061 533 1061 q 474 1044 489 1061 q 458 997 458 1028 q 474 951 458 968 q 511 933 489 933 q 549 951 533 933 q 565 997 565 968 m 600 1368 l 696 1368 l 554 1161 l 457 1161 l 600 1368 z "},"Ã":{"ha":1021,"x_min":36,"x_max":985,"o":"m 985 0 l 872 0 l 744 283 l 276 283 l 149 0 l 36 0 l 453 917 l 568 917 l 985 0 m 317 375 l 704 375 l 510 804 l 317 375 m 546 1115 q 577 1088 564 1099 q 611 1076 590 1076 q 661 1103 650 1078 q 674 1156 672 1129 l 749 1156 q 733 1083 747 1121 q 691 1020 719 1046 q 617 994 663 994 q 551 1009 575 994 q 506 1046 528 1024 q 473 1073 486 1064 q 439 1081 460 1082 q 401 1067 414 1079 q 383 1038 388 1056 q 378 1001 379 1019 l 303 1001 q 318 1078 304 1040 q 361 1139 332 1115 q 438 1163 390 1163 q 503 1147 479 1163 q 546 1115 526 1132 z "},"Æ":{"ha":1454,"x_min":36,"x_max":1418,"o":"m 869 0 l 797 256 l 307 256 l 154 0 l 36 0 l 597 917 l 1390 917 l 1390 818 l 743 818 l 831 524 l 1363 524 l 1363 432 l 858 432 l 957 99 l 1418 99 l 1418 0 l 869 0 m 361 346 l 771 346 l 639 804 l 361 346 z "},"Ǽ":{"ha":1454,"x_min":36,"x_max":1418,"o":"m 869 0 l 797 256 l 307 256 l 154 0 l 36 0 l 597 917 l 1390 917 l 1390 818 l 743 818 l 831 524 l 1363 524 l 1363 432 l 858 432 l 957 99 l 1418 99 l 1418 0 l 869 0 m 361 346 l 771 346 l 639 804 l 361 346 m 843 1211 l 940 1211 l 797 1004 l 701 1004 l 843 1211 z "},"B":{"ha":918,"x_min":119,"x_max":835,"o":"m 488 917 q 700 888 626 917 q 801 802 774 858 q 829 664 829 746 q 815 578 829 618 q 769 507 801 538 q 678 463 736 476 q 801 384 767 440 q 835 256 835 328 q 806 117 835 174 q 701 30 776 60 q 488 0 626 0 l 119 0 l 119 917 l 488 917 m 225 93 l 475 93 q 633 111 579 93 q 707 165 688 129 q 726 256 726 201 q 707 340 726 303 q 634 399 688 378 q 475 421 581 421 l 225 421 l 225 93 m 225 513 l 475 513 q 633 532 579 513 q 704 585 686 551 q 722 664 722 619 q 704 753 722 717 q 633 806 686 789 q 475 824 579 824 l 225 824 l 225 513 z "},"Ḅ":{"ha":918,"x_min":119,"x_max":835,"o":"m 488 917 q 700 888 626 917 q 801 802 774 858 q 829 664 829 746 q 815 578 829 618 q 769 507 801 538 q 678 463 736 476 q 801 384 767 440 q 835 256 835 328 q 806 117 835 174 q 701 30 776 60 q 488 0 626 0 l 119 0 l 119 917 l 488 917 m 225 93 l 475 93 q 633 111 579 93 q 707 165 688 129 q 726 256 726 201 q 707 340 726 303 q 634 399 688 378 q 475 421 581 421 l 225 421 l 225 93 m 225 513 l 475 513 q 633 532 579 513 q 704 585 686 551 q 722 664 722 619 q 704 753 722 717 q 633 806 686 789 q 475 824 579 824 l 225 824 l 225 513 m 453 -226 q 408 -208 426 -226 q 389 -162 389 -189 q 408 -117 389 -136 q 453 -97 426 -97 q 499 -117 479 -97 q 518 -162 518 -136 q 499 -208 518 -189 q 453 -226 479 -226 z "},"Ɓ":{"ha":1107,"x_min":29,"x_max":1024,"o":"m 33 683 q 54 810 29 757 q 134 890 79 863 q 274 917 189 917 l 678 917 q 890 888 815 917 q 991 802 964 858 q 1018 664 1018 746 q 1005 578 1018 618 q 958 507 992 538 q 868 463 925 476 q 990 384 957 440 q 1024 256 1024 328 q 994 117 1024 174 q 890 30 965 60 q 678 0 815 0 l 308 0 l 310 817 l 279 817 q 156 776 186 817 q 133 663 125 735 q 136 641 135 653 q 138 625 138 629 l 43 610 q 39 633 40 621 q 36 659 38 646 q 33 683 35 672 m 414 93 l 664 93 q 824 111 769 93 q 897 165 878 129 q 917 256 917 201 q 897 340 917 303 q 824 399 878 378 q 664 421 769 421 l 414 421 l 414 93 m 414 513 l 664 513 q 822 532 769 513 q 893 585 875 551 q 911 664 911 619 q 893 753 911 717 q 822 806 875 789 q 664 824 769 824 l 414 824 l 414 513 z "},"C":{"ha":919,"x_min":63,"x_max":853,"o":"m 853 194 q 767 83 819 131 q 645 10 715 36 q 486 -17 575 -17 q 253 44 347 -17 q 110 211 158 104 q 63 460 63 318 q 110 708 63 600 q 253 876 158 815 q 486 936 347 936 q 644 910 574 936 q 766 837 714 883 q 851 726 818 790 l 744 697 q 683 770 719 739 q 597 819 646 801 q 486 836 547 836 q 310 789 379 836 q 206 656 240 742 q 171 460 171 571 q 206 263 171 347 q 310 130 240 178 q 486 82 379 82 q 597 99 547 82 q 683 149 646 117 q 746 222 719 181 l 853 194 z "},"Ć":{"ha":919,"x_min":63,"x_max":853,"o":"m 853 194 q 767 83 819 131 q 645 10 715 36 q 486 -17 575 -17 q 253 44 347 -17 q 110 211 158 104 q 63 460 63 318 q 110 708 63 600 q 253 876 158 815 q 486 936 347 936 q 644 910 574 936 q 766 837 714 883 q 851 726 818 790 l 744 697 q 683 770 719 739 q 597 819 646 801 q 486 836 547 836 q 310 789 379 836 q 206 656 240 742 q 171 460 171 571 q 206 263 171 347 q 310 130 240 178 q 486 82 379 82 q 597 99 547 82 q 683 149 646 117 q 746 222 719 181 l 853 194 m 569 1211 l 667 1211 l 524 1004 l 428 1004 l 569 1211 z "},"Č":{"ha":919,"x_min":63,"x_max":853,"o":"m 853 194 q 767 83 819 131 q 645 10 715 36 q 486 -17 575 -17 q 253 44 347 -17 q 110 211 158 104 q 63 460 63 318 q 110 708 63 600 q 253 876 158 815 q 486 936 347 936 q 644 910 574 936 q 766 837 714 883 q 851 726 818 790 l 744 697 q 683 770 719 739 q 597 819 646 801 q 486 836 547 836 q 310 789 379 836 q 206 656 240 742 q 171 460 171 571 q 206 263 171 347 q 310 130 240 178 q 486 82 379 82 q 597 99 547 82 q 683 149 646 117 q 746 222 719 181 l 853 194 m 536 999 l 414 999 l 272 1206 l 376 1206 l 475 1060 l 575 1206 l 679 1206 l 536 999 z "},"Ç":{"ha":919,"x_min":63,"x_max":853,"o":"m 853 194 q 772 87 821 133 q 656 13 722 40 q 506 -17 589 -14 l 496 -46 q 566 -82 539 -54 q 593 -151 593 -110 l 593 -160 q 551 -244 593 -211 q 458 -289 510 -278 l 403 -301 l 374 -222 l 449 -207 q 489 -189 469 -201 q 508 -150 508 -176 q 495 -122 508 -131 q 464 -112 482 -112 l 386 -112 l 421 -12 q 224 65 303 1 q 103 228 144 128 q 63 460 63 329 q 110 708 63 600 q 253 876 158 815 q 486 936 347 936 q 644 910 574 936 q 766 837 714 883 q 851 726 818 790 l 744 697 q 683 770 719 739 q 597 819 646 801 q 486 836 547 836 q 310 789 379 836 q 206 656 240 742 q 171 460 171 571 q 206 263 171 347 q 310 130 240 178 q 486 82 379 82 q 597 99 547 82 q 683 149 646 117 q 746 222 719 181 l 853 194 z "},"Ĉ":{"ha":919,"x_min":63,"x_max":853,"o":"m 853 194 q 767 83 819 131 q 645 10 715 36 q 486 -17 575 -17 q 253 44 347 -17 q 110 211 158 104 q 63 460 63 318 q 110 708 63 600 q 253 876 158 815 q 486 936 347 936 q 644 910 574 936 q 766 837 714 883 q 851 726 818 790 l 744 697 q 683 770 719 739 q 597 819 646 801 q 486 836 547 836 q 310 789 379 836 q 206 656 240 742 q 171 460 171 571 q 206 263 171 347 q 310 130 240 178 q 486 82 379 82 q 597 99 547 82 q 683 149 646 117 q 746 222 719 181 l 853 194 m 538 1201 l 681 994 l 576 994 l 476 1139 l 378 994 l 274 994 l 415 1201 l 538 1201 z "},"Ċ":{"ha":919,"x_min":63,"x_max":853,"o":"m 853 194 q 767 83 819 131 q 645 10 715 36 q 486 -17 575 -17 q 253 44 347 -17 q 110 211 158 104 q 63 460 63 318 q 110 708 63 600 q 253 876 158 815 q 486 936 347 936 q 644 910 574 936 q 766 837 714 883 q 851 726 818 790 l 744 697 q 683 770 719 739 q 597 819 646 801 q 486 836 547 836 q 310 789 379 836 q 206 656 240 742 q 171 460 171 571 q 206 263 171 347 q 310 130 240 178 q 486 82 379 82 q 597 99 547 82 q 683 149 646 117 q 746 222 719 181 l 853 194 m 475 1047 q 430 1066 449 1047 q 411 1111 411 1085 q 430 1158 411 1139 q 475 1176 449 1176 q 520 1158 501 1176 q 539 1111 539 1139 q 520 1066 539 1085 q 475 1047 501 1047 z "},"D":{"ha":968,"x_min":119,"x_max":906,"o":"m 483 917 q 715 860 621 917 q 858 700 810 803 q 906 460 906 597 q 858 217 906 321 q 715 57 810 114 q 483 0 621 0 l 119 0 l 119 917 l 483 917 m 225 99 l 483 99 q 659 143 589 99 q 764 269 729 188 q 799 460 799 350 q 764 649 799 568 q 659 774 729 729 q 483 818 589 818 l 225 818 l 225 99 z "},"Ǳ":{"ha":1744,"x_min":119,"x_max":1699,"o":"m 483 917 q 715 860 621 917 q 858 700 810 803 q 906 460 906 597 q 858 217 906 321 q 715 57 810 114 q 483 0 621 0 l 119 0 l 119 917 l 483 917 m 225 99 l 483 99 q 659 143 589 99 q 764 269 729 188 q 799 460 799 350 q 764 649 799 568 q 659 774 729 729 q 483 818 589 818 l 225 818 l 225 99 m 1008 43 l 1547 818 l 1035 818 l 1035 917 l 1699 917 l 1699 871 l 1164 99 l 1672 99 l 1672 0 l 1008 0 l 1008 43 z "},"Ǆ":{"ha":1744,"x_min":119,"x_max":1699,"o":"m 483 917 q 715 860 621 917 q 858 700 810 803 q 906 460 906 597 q 858 217 906 321 q 715 57 810 114 q 483 0 621 0 l 119 0 l 119 917 l 483 917 m 225 99 l 483 99 q 659 143 589 99 q 764 269 729 188 q 799 460 799 350 q 764 649 799 568 q 659 774 729 729 q 483 818 589 818 l 225 818 l 225 99 m 1008 43 l 1547 818 l 1035 818 l 1035 917 l 1699 917 l 1699 871 l 1164 99 l 1672 99 l 1672 0 l 1008 0 l 1008 43 m 1442 999 l 1319 999 l 1176 1206 l 1281 1206 l 1381 1060 l 1479 1206 l 1583 1206 l 1442 999 z "},"Ď":{"ha":968,"x_min":119,"x_max":906,"o":"m 483 917 q 715 860 621 917 q 858 700 810 803 q 906 460 906 597 q 858 217 906 321 q 715 57 810 114 q 483 0 621 0 l 119 0 l 119 917 l 483 917 m 225 99 l 483 99 q 659 143 589 99 q 764 269 729 188 q 799 460 799 350 q 764 649 799 568 q 659 774 729 729 q 483 818 589 818 l 225 818 l 225 99 m 518 968 l 394 968 l 253 1175 l 357 1175 l 457 1029 l 556 1175 l 660 1175 l 518 968 z "},"Đ":{"ha":968,"x_min":119,"x_max":906,"o":"m 483 917 q 715 860 621 917 q 858 700 810 803 q 906 460 906 597 q 858 217 906 321 q 715 57 810 114 q 483 0 621 0 l 119 0 l 119 917 l 483 917 m 225 99 l 483 99 q 659 143 589 99 q 764 269 729 188 q 799 460 799 350 q 764 649 799 568 q 659 774 729 729 q 483 818 589 818 l 225 818 l 225 99 m 299 1089 l 618 1089 l 618 1006 l 299 1006 l 299 1089 z "},"Ḍ":{"ha":968,"x_min":119,"x_max":906,"o":"m 483 917 q 715 860 621 917 q 858 700 810 803 q 906 460 906 597 q 858 217 906 321 q 715 57 810 114 q 483 0 621 0 l 119 0 l 119 917 l 483 917 m 225 99 l 483 99 q 659 143 589 99 q 764 269 729 188 q 799 460 799 350 q 764 649 799 568 q 659 774 729 729 q 483 818 589 818 l 225 818 l 225 99 m 464 -226 q 419 -208 438 -226 q 400 -162 400 -189 q 419 -117 400 -136 q 464 -97 438 -97 q 510 -117 492 -97 q 529 -162 529 -136 q 510 -208 529 -189 q 464 -226 492 -226 z "},"Ɗ":{"ha":1168,"x_min":29,"x_max":1106,"o":"m 683 917 q 915 860 821 917 q 1058 700 1010 803 q 1106 460 1106 597 q 1058 217 1106 321 q 915 57 1010 114 q 683 0 821 0 l 319 0 l 319 817 l 279 817 q 156 776 186 817 q 133 663 125 735 q 136 641 135 653 q 138 625 138 629 l 43 610 q 39 633 40 621 q 36 659 38 646 q 33 683 35 672 q 54 810 29 757 q 134 890 79 863 q 274 917 189 917 l 683 917 m 425 99 l 683 99 q 859 143 789 99 q 964 269 929 188 q 999 460 999 350 q 964 649 999 568 q 859 774 929 729 q 683 818 789 818 l 425 818 l 425 99 z "},"ǲ":{"ha":1540,"x_min":119,"x_max":1518,"o":"m 483 917 q 715 860 621 917 q 858 700 810 803 q 906 460 906 597 q 858 217 906 321 q 715 57 810 114 q 483 0 621 0 l 119 0 l 119 917 l 483 917 m 225 99 l 483 99 q 659 143 589 99 q 764 269 729 188 q 799 460 799 350 q 764 649 799 568 q 659 774 729 729 q 483 818 589 818 l 225 818 l 225 99 m 1001 694 l 1518 694 l 1518 613 l 1124 99 l 1506 99 l 1507 0 l 992 0 l 992 81 l 1388 596 l 1001 596 l 1001 694 z "},"ǅ":{"ha":1540,"x_min":119,"x_max":1518,"o":"m 483 917 q 715 860 621 917 q 858 700 810 803 q 906 460 906 597 q 858 217 906 321 q 715 57 810 114 q 483 0 621 0 l 119 0 l 119 917 l 483 917 m 225 99 l 483 99 q 659 143 589 99 q 764 269 729 188 q 799 460 799 350 q 764 649 799 568 q 659 774 729 729 q 483 818 589 818 l 225 818 l 225 99 m 1001 694 l 1518 694 l 1518 613 l 1124 99 l 1506 99 l 1507 0 l 992 0 l 992 81 l 1388 596 l 1001 596 l 1001 694 m 1315 768 l 1193 768 l 1051 974 l 1156 974 l 1254 829 l 1354 974 l 1458 974 l 1315 768 z "},"Ð":{"ha":1061,"x_min":119,"x_max":999,"o":"m 575 917 q 808 860 714 917 q 950 700 901 803 q 999 460 999 597 q 950 217 999 321 q 808 57 901 114 q 575 0 714 0 l 211 0 l 213 428 l 119 428 l 119 518 l 213 518 l 213 917 l 575 917 m 317 99 l 575 99 q 751 143 682 99 q 856 269 821 188 q 890 460 890 350 q 856 649 890 568 q 751 774 821 729 q 575 818 682 818 l 318 818 l 317 518 l 518 518 l 518 428 l 317 428 l 317 99 z "},"E":{"ha":778,"x_min":119,"x_max":744,"o":"m 717 818 l 225 818 l 225 524 l 689 524 l 689 432 l 225 432 l 225 99 l 744 99 l 744 0 l 119 0 l 119 917 l 717 917 l 717 818 z "},"É":{"ha":778,"x_min":119,"x_max":744,"o":"m 717 818 l 225 818 l 225 524 l 689 524 l 689 432 l 225 432 l 225 99 l 744 99 l 744 0 l 119 0 l 119 917 l 717 917 l 717 818 m 518 1211 l 615 1211 l 472 1004 l 376 1004 l 518 1211 z "},"Ĕ":{"ha":778,"x_min":119,"x_max":744,"o":"m 717 818 l 225 818 l 225 524 l 689 524 l 689 432 l 225 432 l 225 99 l 744 99 l 744 0 l 119 0 l 119 917 l 717 917 l 717 818 m 421 1000 q 333 1016 371 1000 q 271 1063 296 1032 q 233 1142 246 1094 l 324 1142 q 353 1092 332 1113 q 421 1071 375 1071 q 488 1092 465 1071 q 517 1142 510 1113 l 607 1142 q 569 1063 594 1094 q 507 1016 544 1032 q 421 1000 469 1000 z "},"Ě":{"ha":778,"x_min":119,"x_max":744,"o":"m 717 818 l 225 818 l 225 524 l 689 524 l 689 432 l 225 432 l 225 99 l 744 99 l 744 0 l 119 0 l 119 917 l 717 917 l 717 818 m 485 999 l 363 999 l 221 1206 l 325 1206 l 424 1060 l 524 1206 l 628 1206 l 485 999 z "},"Ê":{"ha":778,"x_min":119,"x_max":744,"o":"m 717 818 l 225 818 l 225 524 l 689 524 l 689 432 l 225 432 l 225 99 l 744 99 l 744 0 l 119 0 l 119 917 l 717 917 l 717 818 m 486 1201 l 628 994 l 525 994 l 425 1139 l 325 994 l 221 994 l 364 1201 l 486 1201 z "},"Ế":{"ha":861,"x_min":119,"x_max":828,"o":"m 717 818 l 225 818 l 225 524 l 689 524 l 689 432 l 225 432 l 225 99 l 744 99 l 744 0 l 119 0 l 119 917 l 717 917 l 717 818 m 486 1201 l 628 994 l 525 994 l 425 1139 l 325 994 l 221 994 l 364 1201 l 486 1201 m 732 1321 l 828 1321 l 686 1115 l 590 1115 l 732 1321 z "},"Ệ":{"ha":778,"x_min":119,"x_max":744,"o":"m 717 818 l 225 818 l 225 524 l 689 524 l 689 432 l 225 432 l 225 99 l 744 99 l 744 0 l 119 0 l 119 917 l 717 917 l 717 818 m 446 -226 q 401 -208 419 -226 q 382 -162 382 -189 q 401 -117 382 -136 q 446 -97 419 -97 q 491 -117 472 -97 q 510 -162 510 -136 q 491 -208 510 -189 q 446 -226 472 -226 m 486 1201 l 628 994 l 525 994 l 425 1139 l 325 994 l 221 994 l 364 1201 l 486 1201 z "},"Ề":{"ha":778,"x_min":119,"x_max":744,"o":"m 717 818 l 225 818 l 225 524 l 689 524 l 689 432 l 225 432 l 225 99 l 744 99 l 744 0 l 119 0 l 119 917 l 717 917 l 717 818 m 486 1201 l 628 994 l 525 994 l 425 1139 l 325 994 l 221 994 l 364 1201 l 486 1201 m 572 1321 l 715 1114 l 618 1114 l 476 1321 l 572 1321 z "},"Ể":{"ha":801,"x_min":119,"x_max":768,"o":"m 717 818 l 225 818 l 225 524 l 689 524 l 689 432 l 225 432 l 225 99 l 744 99 l 744 0 l 119 0 l 119 917 l 717 917 l 717 818 m 486 1201 l 628 994 l 525 994 l 425 1139 l 325 994 l 221 994 l 364 1201 l 486 1201 m 663 1351 q 719 1338 696 1351 q 756 1303 743 1324 q 768 1263 768 1283 q 755 1210 768 1235 q 696 1169 742 1186 q 674 1156 678 1164 q 671 1136 671 1147 l 671 1122 l 596 1122 l 596 1146 q 606 1182 596 1165 q 643 1211 615 1199 q 666 1222 653 1215 q 690 1236 679 1228 q 700 1258 700 1244 q 692 1279 700 1269 q 663 1289 683 1289 q 628 1279 639 1289 q 618 1246 618 1269 l 550 1246 q 565 1309 550 1286 q 606 1342 581 1332 q 663 1351 632 1351 z "},"Ễ":{"ha":778,"x_min":119,"x_max":744,"o":"m 717 818 l 225 818 l 225 524 l 689 524 l 689 432 l 225 432 l 225 99 l 744 99 l 744 0 l 119 0 l 119 917 l 717 917 l 717 818 m 486 1201 l 628 994 l 525 994 l 425 1139 l 325 994 l 221 994 l 364 1201 l 486 1201 m 465 1361 q 498 1333 485 1344 q 532 1322 511 1322 q 581 1349 571 1324 q 593 1401 592 1375 l 668 1401 q 653 1329 667 1367 q 611 1266 640 1292 q 536 1240 582 1240 q 471 1255 494 1240 q 426 1292 447 1269 q 394 1319 407 1310 q 360 1326 381 1328 q 321 1313 333 1325 q 303 1283 308 1301 q 299 1247 299 1265 l 224 1247 q 238 1324 224 1286 q 282 1385 253 1361 q 357 1408 311 1408 q 423 1393 399 1408 q 465 1361 447 1378 z "},"Ȅ":{"ha":778,"x_min":99,"x_max":744,"o":"m 717 818 l 225 818 l 225 524 l 689 524 l 689 432 l 225 432 l 225 99 l 744 99 l 744 0 l 119 0 l 119 917 l 717 917 l 717 818 m 194 1210 l 338 1003 l 240 1003 l 99 1210 l 194 1210 m 440 1210 l 583 1003 l 486 1003 l 344 1210 l 440 1210 z "},"Ë":{"ha":778,"x_min":119,"x_max":744,"o":"m 717 818 l 225 818 l 225 524 l 689 524 l 689 432 l 225 432 l 225 99 l 744 99 l 744 0 l 119 0 l 119 917 l 717 917 l 717 818 m 315 1049 q 269 1067 289 1049 q 250 1113 250 1086 q 269 1158 250 1139 q 315 1178 289 1178 q 360 1158 342 1178 q 379 1113 379 1139 q 360 1067 379 1086 q 315 1049 342 1049 m 524 1049 q 478 1067 497 1049 q 460 1113 460 1086 q 478 1158 460 1139 q 524 1178 497 1178 q 569 1158 550 1178 q 588 1113 588 1139 q 569 1067 588 1086 q 524 1049 550 1049 z "},"Ė":{"ha":778,"x_min":119,"x_max":744,"o":"m 717 818 l 225 818 l 225 524 l 689 524 l 689 432 l 225 432 l 225 99 l 744 99 l 744 0 l 119 0 l 119 917 l 717 917 l 717 818 m 424 1047 q 378 1066 397 1047 q 358 1111 358 1085 q 378 1158 358 1139 q 424 1176 397 1176 q 469 1158 450 1176 q 488 1111 488 1139 q 469 1066 488 1085 q 424 1047 450 1047 z "},"Ẹ":{"ha":778,"x_min":119,"x_max":744,"o":"m 717 818 l 225 818 l 225 524 l 689 524 l 689 432 l 225 432 l 225 99 l 744 99 l 744 0 l 119 0 l 119 917 l 717 917 l 717 818 m 446 -226 q 401 -208 419 -226 q 382 -162 382 -189 q 401 -117 382 -136 q 446 -97 419 -97 q 491 -117 472 -97 q 510 -162 510 -136 q 491 -208 510 -189 q 446 -226 472 -226 z "},"È":{"ha":778,"x_min":119,"x_max":744,"o":"m 717 818 l 225 818 l 225 524 l 689 524 l 689 432 l 225 432 l 225 99 l 744 99 l 744 0 l 119 0 l 119 917 l 717 917 l 717 818 m 339 1210 l 482 1003 l 385 1003 l 243 1210 l 339 1210 z "},"Ẻ":{"ha":778,"x_min":119,"x_max":744,"o":"m 717 818 l 225 818 l 225 524 l 689 524 l 689 432 l 225 432 l 225 99 l 744 99 l 744 0 l 119 0 l 119 917 l 717 917 l 717 818 m 450 1240 q 506 1227 482 1240 q 542 1194 529 1214 q 554 1153 554 1174 q 541 1101 554 1125 q 482 1060 528 1076 q 460 1046 464 1054 q 457 1025 457 1038 l 457 1013 l 382 1013 l 382 1036 q 393 1072 383 1056 q 429 1101 403 1089 q 452 1111 439 1106 q 476 1126 465 1117 q 486 1149 486 1135 q 478 1169 486 1160 q 449 1178 469 1178 q 416 1169 426 1178 q 406 1136 406 1160 l 336 1136 q 351 1199 336 1176 q 392 1231 367 1222 q 450 1240 418 1240 z "},"Ȇ":{"ha":778,"x_min":119,"x_max":744,"o":"m 717 818 l 225 818 l 225 524 l 689 524 l 689 432 l 225 432 l 225 99 l 744 99 l 744 0 l 119 0 l 119 917 l 717 917 l 717 818 m 421 1157 q 507 1141 469 1157 q 569 1094 544 1125 q 607 1015 594 1063 l 517 1015 q 488 1066 510 1046 q 421 1086 465 1086 q 353 1066 375 1086 q 324 1015 332 1046 l 233 1015 q 271 1094 246 1063 q 333 1141 296 1125 q 421 1157 371 1157 z "},"Ē":{"ha":778,"x_min":119,"x_max":744,"o":"m 717 818 l 225 818 l 225 524 l 689 524 l 689 432 l 225 432 l 225 99 l 744 99 l 744 0 l 119 0 l 119 917 l 717 917 l 717 818 m 267 1119 l 585 1119 l 586 1036 l 267 1036 l 267 1119 z "},"Ę":{"ha":778,"x_min":119,"x_max":749,"o":"m 717 818 l 225 818 l 225 524 l 689 524 l 689 432 l 225 432 l 225 99 l 744 99 l 744 0 q 655 -81 686 -46 q 612 -139 624 -115 q 600 -175 600 -162 q 617 -210 600 -197 q 658 -224 635 -224 q 678 -222 668 -224 q 699 -214 689 -219 l 713 -208 l 749 -294 l 707 -307 q 649 -317 678 -317 q 571 -299 606 -317 q 515 -251 536 -281 q 494 -185 494 -221 q 511 -117 494 -150 q 554 -56 528 -85 q 608 0 581 -26 l 119 0 l 119 917 l 717 917 l 717 818 z "},"Ɛ":{"ha":793,"x_min":61,"x_max":743,"o":"m 433 531 l 433 442 l 414 442 q 231 397 293 442 q 168 275 168 353 q 196 184 168 226 q 278 115 224 142 q 414 89 333 89 q 560 124 503 89 q 640 203 617 158 l 743 174 q 681 79 724 122 q 571 11 638 36 q 414 -14 504 -14 q 217 25 296 -14 q 100 129 139 64 q 61 274 61 194 q 100 406 61 351 q 214 493 139 461 q 119 572 151 522 q 88 686 88 622 q 126 809 88 753 q 237 899 164 865 q 414 933 310 933 q 564 908 500 933 q 669 842 628 883 q 725 749 710 800 l 621 718 q 551 799 604 765 q 414 833 499 833 q 252 785 308 833 q 196 675 196 738 q 251 572 196 613 q 414 531 306 531 l 433 531 z "},"Ẽ":{"ha":778,"x_min":119,"x_max":744,"o":"m 717 818 l 225 818 l 225 524 l 689 524 l 689 432 l 225 432 l 225 99 l 744 99 l 744 0 l 119 0 l 119 917 l 717 917 l 717 818 m 457 1115 q 488 1088 475 1099 q 522 1076 501 1076 q 572 1103 561 1078 q 585 1156 583 1129 l 660 1156 q 644 1083 658 1121 q 602 1020 631 1046 q 526 994 574 994 q 463 1009 486 994 q 417 1046 439 1024 q 384 1073 397 1064 q 350 1081 371 1082 q 312 1067 325 1079 q 294 1038 299 1056 q 289 1001 290 1019 l 214 1001 q 229 1078 215 1040 q 272 1139 243 1115 q 349 1163 301 1163 q 414 1147 390 1163 q 457 1115 438 1132 z "},"Ǝ":{"ha":778,"x_min":33,"x_max":658,"o":"m 61 818 l 61 917 l 658 917 l 658 0 l 33 0 l 33 99 l 553 99 l 553 432 l 89 432 l 89 524 l 553 524 l 553 818 l 61 818 z "},"Ə":{"ha":972,"x_min":63,"x_max":910,"o":"m 63 475 l 800 475 q 800 497 800 486 q 714 738 792 649 q 486 828 636 828 q 376 813 425 828 q 289 768 326 797 q 226 697 251 739 l 121 726 q 206 835 154 790 q 328 903 257 879 q 486 928 399 928 q 719 869 625 928 q 861 706 813 811 q 910 460 910 600 q 863 215 910 321 q 722 51 815 110 q 486 -8 628 -8 q 254 49 346 -8 q 116 208 163 106 q 64 447 69 311 q 63 461 63 454 q 63 475 63 468 m 176 383 q 223 227 185 293 q 327 126 261 161 q 486 90 393 90 q 647 127 582 90 q 749 230 713 164 q 797 383 786 296 l 176 383 z "},"Ʒ":{"ha":793,"x_min":50,"x_max":732,"o":"m 732 297 q 696 133 732 206 q 582 19 660 61 q 379 -22 504 -22 q 222 3 289 -22 q 113 71 156 28 q 50 165 69 114 l 153 194 q 234 115 176 150 q 379 81 292 81 q 521 109 467 81 q 601 187 575 138 q 626 299 626 236 q 600 400 626 354 q 519 474 574 446 q 379 501 465 501 l 351 501 l 351 578 l 572 818 l 89 818 l 89 917 l 731 917 l 731 871 l 471 585 q 592 551 542 578 q 672 485 642 525 q 717 398 703 446 q 732 297 732 350 z "},"Ǯ":{"ha":793,"x_min":50,"x_max":732,"o":"m 732 297 q 696 133 732 206 q 582 19 660 61 q 379 -22 504 -22 q 222 3 289 -22 q 113 71 156 28 q 50 165 69 114 l 153 194 q 234 115 176 150 q 379 81 292 81 q 521 109 467 81 q 601 187 575 138 q 626 299 626 236 q 600 400 626 354 q 519 474 574 446 q 379 501 465 501 l 351 501 l 351 578 l 572 818 l 89 818 l 89 917 l 731 917 l 731 871 l 471 585 q 592 551 542 578 q 672 485 642 525 q 717 398 703 446 q 732 297 732 350 m 485 999 l 363 999 l 221 1206 l 325 1206 l 424 1060 l 524 1206 l 628 1206 l 485 999 z "},"F":{"ha":761,"x_min":119,"x_max":717,"o":"m 717 818 l 225 818 l 225 524 l 683 524 l 683 432 l 225 432 l 225 0 l 119 0 l 119 917 l 717 917 l 717 818 z "},"G":{"ha":972,"x_min":63,"x_max":910,"o":"m 910 475 q 908 447 910 461 q 856 205 903 311 q 718 38 810 99 q 486 -22 626 -22 q 251 40 344 -22 q 110 212 157 103 q 63 460 63 321 q 114 709 63 600 q 263 880 165 818 q 500 942 361 942 q 664 915 590 942 q 792 838 738 888 q 879 721 846 789 l 774 692 q 665 802 735 763 q 500 842 596 842 q 320 793 393 842 q 209 658 247 744 q 171 460 171 571 q 204 264 171 350 q 307 127 238 178 q 486 76 376 76 q 644 115 579 76 q 748 224 710 154 q 796 383 786 293 l 415 383 l 415 475 l 910 475 z "},"Ǵ":{"ha":972,"x_min":63,"x_max":910,"o":"m 910 475 q 908 447 910 461 q 856 205 903 311 q 718 38 810 99 q 486 -22 626 -22 q 251 40 344 -22 q 110 212 157 103 q 63 460 63 321 q 114 709 63 600 q 263 880 165 818 q 500 942 361 942 q 664 915 590 942 q 792 838 738 888 q 879 721 846 789 l 774 692 q 665 802 735 763 q 500 842 596 842 q 320 793 393 842 q 209 658 247 744 q 171 460 171 571 q 204 264 171 350 q 307 127 238 178 q 486 76 376 76 q 644 115 579 76 q 748 224 710 154 q 796 383 786 293 l 415 383 l 415 475 l 910 475 m 581 1211 l 676 1211 l 535 1004 l 438 1004 l 581 1211 z "},"Ğ":{"ha":972,"x_min":63,"x_max":910,"o":"m 910 475 q 908 447 910 461 q 856 205 903 311 q 718 38 810 99 q 486 -22 626 -22 q 251 40 344 -22 q 110 212 157 103 q 63 460 63 321 q 114 709 63 600 q 263 880 165 818 q 500 942 361 942 q 664 915 590 942 q 792 838 738 888 q 879 721 846 789 l 774 692 q 665 802 735 763 q 500 842 596 842 q 320 793 393 842 q 209 658 247 744 q 171 460 171 571 q 204 264 171 350 q 307 127 238 178 q 486 76 376 76 q 644 115 579 76 q 748 224 710 154 q 796 383 786 293 l 415 383 l 415 475 l 910 475 m 482 1000 q 395 1016 432 1000 q 333 1063 358 1032 q 296 1142 308 1094 l 385 1142 q 415 1092 393 1113 q 482 1071 436 1071 q 549 1092 528 1071 q 579 1142 571 1113 l 668 1142 q 631 1063 656 1094 q 569 1016 606 1032 q 482 1000 532 1000 z "},"Ǧ":{"ha":972,"x_min":63,"x_max":910,"o":"m 910 475 q 908 447 910 461 q 856 205 903 311 q 718 38 810 99 q 486 -22 626 -22 q 251 40 344 -22 q 110 212 157 103 q 63 460 63 321 q 114 709 63 600 q 263 880 165 818 q 500 942 361 942 q 664 915 590 942 q 792 838 738 888 q 879 721 846 789 l 774 692 q 665 802 735 763 q 500 842 596 842 q 320 793 393 842 q 209 658 247 744 q 171 460 171 571 q 204 264 171 350 q 307 127 238 178 q 486 76 376 76 q 644 115 579 76 q 748 224 710 154 q 796 383 786 293 l 415 383 l 415 475 l 910 475 m 547 999 l 425 999 l 282 1206 l 386 1206 l 486 1060 l 585 1206 l 689 1206 l 547 999 z "},"Ĝ":{"ha":972,"x_min":63,"x_max":910,"o":"m 910 475 q 908 447 910 461 q 856 205 903 311 q 718 38 810 99 q 486 -22 626 -22 q 251 40 344 -22 q 110 212 157 103 q 63 460 63 321 q 114 709 63 600 q 263 880 165 818 q 500 942 361 942 q 664 915 590 942 q 792 838 738 888 q 879 721 846 789 l 774 692 q 665 802 735 763 q 500 842 596 842 q 320 793 393 842 q 209 658 247 744 q 171 460 171 571 q 204 264 171 350 q 307 127 238 178 q 486 76 376 76 q 644 115 579 76 q 748 224 710 154 q 796 383 786 293 l 415 383 l 415 475 l 910 475 m 547 1201 l 690 994 l 586 994 l 486 1139 l 388 994 l 283 994 l 425 1201 l 547 1201 z "},"Ģ":{"ha":972,"x_min":63,"x_max":910,"o":"m 910 475 q 908 447 910 461 q 856 205 903 311 q 718 38 810 99 q 486 -22 626 -22 q 251 40 344 -22 q 110 212 157 103 q 63 460 63 321 q 114 709 63 600 q 263 880 165 818 q 500 942 361 942 q 664 915 590 942 q 792 838 738 888 q 879 721 846 789 l 774 692 q 665 802 735 763 q 500 842 596 842 q 320 793 393 842 q 209 658 247 744 q 171 460 171 571 q 204 264 171 350 q 307 127 238 178 q 486 76 376 76 q 644 115 579 76 q 748 224 710 154 q 796 383 786 293 l 415 383 l 415 475 l 910 475 m 493 -235 q 441 -213 463 -235 q 419 -160 419 -192 q 441 -108 419 -129 q 493 -86 463 -86 q 550 -109 524 -86 q 579 -175 576 -132 q 563 -285 582 -240 q 503 -358 543 -331 q 410 -400 464 -386 l 393 -340 q 477 -302 443 -326 q 508 -231 511 -278 q 501 -234 506 -233 q 493 -235 496 -235 z "},"Ġ":{"ha":972,"x_min":63,"x_max":910,"o":"m 910 475 q 908 447 910 461 q 856 205 903 311 q 718 38 810 99 q 486 -22 626 -22 q 251 40 344 -22 q 110 212 157 103 q 63 460 63 321 q 114 709 63 600 q 263 880 165 818 q 500 942 361 942 q 664 915 590 942 q 792 838 738 888 q 879 721 846 789 l 774 692 q 665 802 735 763 q 500 842 596 842 q 320 793 393 842 q 209 658 247 744 q 171 460 171 571 q 204 264 171 350 q 307 127 238 178 q 486 76 376 76 q 644 115 579 76 q 748 224 710 154 q 796 383 786 293 l 415 383 l 415 475 l 910 475 m 485 1047 q 440 1066 458 1047 q 421 1111 421 1085 q 440 1158 421 1139 q 485 1176 458 1176 q 531 1158 511 1176 q 550 1111 550 1139 q 531 1066 550 1085 q 485 1047 511 1047 z "},"Ḡ":{"ha":972,"x_min":63,"x_max":910,"o":"m 910 475 q 908 447 910 461 q 856 205 903 311 q 718 38 810 99 q 486 -22 626 -22 q 251 40 344 -22 q 110 212 157 103 q 63 460 63 321 q 114 709 63 600 q 263 880 165 818 q 500 942 361 942 q 664 915 590 942 q 792 838 738 888 q 879 721 846 789 l 774 692 q 665 802 735 763 q 500 842 596 842 q 320 793 393 842 q 209 658 247 744 q 171 460 171 571 q 204 264 171 350 q 307 127 238 178 q 486 76 376 76 q 644 115 579 76 q 748 224 710 154 q 796 383 786 293 l 415 383 l 415 475 l 910 475 m 328 1119 l 647 1119 l 647 1036 l 328 1036 l 328 1119 z "},"Ǥ":{"ha":972,"x_min":63,"x_max":986,"o":"m 910 475 q 908 447 910 461 q 856 205 903 311 q 718 38 810 99 q 486 -22 626 -22 q 251 40 344 -22 q 110 212 157 103 q 63 460 63 321 q 114 709 63 600 q 263 880 165 818 q 500 942 361 942 q 664 915 590 942 q 792 838 738 888 q 879 721 846 789 l 774 692 q 665 802 735 763 q 500 842 596 842 q 320 793 393 842 q 209 658 247 744 q 171 460 171 571 q 204 264 171 350 q 307 127 238 178 q 486 76 376 76 q 644 115 579 76 q 748 224 710 154 q 796 383 786 293 l 415 383 l 415 475 l 910 475 m 986 317 l 986 238 l 415 238 l 415 317 l 986 317 z "},"H":{"ha":988,"x_min":119,"x_max":868,"o":"m 225 524 l 763 524 l 761 917 l 867 917 l 868 0 l 763 0 l 763 424 l 225 424 l 225 0 l 119 0 l 119 917 l 225 917 l 225 524 z "},"Ħ":{"ha":1108,"x_min":119,"x_max":989,"o":"m 989 813 l 989 726 l 928 726 l 929 0 l 824 0 l 822 424 l 286 424 l 286 0 l 181 0 l 181 726 l 119 726 l 119 813 l 181 813 l 181 917 l 286 917 l 286 813 l 822 813 l 822 917 l 928 917 l 928 813 l 989 813 m 286 524 l 822 524 l 822 726 l 286 726 l 286 524 z "},"Ĥ":{"ha":988,"x_min":119,"x_max":868,"o":"m 225 524 l 763 524 l 761 917 l 867 917 l 868 0 l 763 0 l 763 424 l 225 424 l 225 0 l 119 0 l 119 917 l 225 917 l 225 524 m 550 1201 l 692 994 l 589 994 l 489 1139 l 389 994 l 285 994 l 428 1201 l 550 1201 z "},"Ḧ":{"ha":988,"x_min":119,"x_max":868,"o":"m 225 524 l 763 524 l 761 917 l 867 917 l 868 0 l 763 0 l 763 424 l 225 424 l 225 0 l 119 0 l 119 917 l 225 917 l 225 524 m 379 1049 q 333 1067 353 1049 q 314 1113 314 1086 q 333 1158 314 1139 q 379 1178 353 1178 q 424 1158 406 1178 q 443 1113 443 1139 q 424 1067 443 1086 q 379 1049 406 1049 m 588 1049 q 542 1067 561 1049 q 524 1113 524 1086 q 542 1158 524 1139 q 588 1178 561 1178 q 633 1158 614 1178 q 651 1113 651 1139 q 633 1067 651 1086 q 588 1049 614 1049 z "},"Ḥ":{"ha":988,"x_min":119,"x_max":868,"o":"m 225 524 l 763 524 l 761 917 l 867 917 l 868 0 l 763 0 l 763 424 l 225 424 l 225 0 l 119 0 l 119 917 l 225 917 l 225 524 m 481 -226 q 435 -208 454 -226 q 417 -162 417 -189 q 435 -117 417 -136 q 481 -97 454 -97 q 526 -117 507 -97 q 546 -162 546 -136 q 526 -208 546 -189 q 481 -226 507 -226 z "},"I":{"ha":344,"x_min":119,"x_max":225,"o":"m 225 0 l 119 0 l 119 917 l 225 917 l 225 0 z "},"Ĳ":{"ha":801,"x_min":119,"x_max":682,"o":"m 225 0 l 119 0 l 119 917 l 225 917 l 225 0 m 682 917 l 682 286 q 621 56 682 135 q 433 -22 560 -22 q 404 -21 421 -22 q 370 -17 388 -19 q 340 -11 353 -15 l 358 82 q 403 76 390 78 q 426 74 417 74 q 540 128 504 74 q 576 290 576 182 l 576 917 l 682 917 z "},"Í":{"ha":483,"x_min":119,"x_max":364,"o":"m 225 0 l 119 0 l 119 917 l 225 917 l 225 0 m 268 1211 l 364 1211 l 222 1004 l 125 1004 l 268 1211 z "},"Ĭ":{"ha":344,"x_min":-17,"x_max":357,"o":"m 225 0 l 119 0 l 119 917 l 225 917 l 225 0 m 169 1000 q 83 1016 121 1000 q 21 1063 46 1032 q -17 1142 -4 1094 l 72 1142 q 103 1092 81 1113 q 169 1071 125 1071 q 237 1092 215 1071 q 267 1142 258 1113 l 357 1142 q 319 1063 344 1094 q 257 1016 294 1032 q 169 1000 219 1000 z "},"Ǐ":{"ha":344,"x_min":-31,"x_max":376,"o":"m 225 0 l 119 0 l 119 917 l 225 917 l 225 0 m 235 999 l 113 999 l -31 1206 l 74 1206 l 174 1060 l 274 1206 l 376 1206 l 235 999 z "},"Î":{"ha":646,"x_min":119,"x_max":526,"o":"m 374 0 l 268 0 l 268 917 l 374 917 l 374 0 m 385 1201 l 526 994 l 422 994 l 322 1139 l 224 994 l 119 994 l 261 1201 l 385 1201 z "},"Ȉ":{"ha":344,"x_min":-153,"x_max":332,"o":"m 225 0 l 119 0 l 119 917 l 225 917 l 225 0 m -56 1210 l 86 1003 l -10 1003 l -153 1210 l -56 1210 m 190 1210 l 332 1003 l 236 1003 l 93 1210 l 190 1210 z "},"Ï":{"ha":576,"x_min":119,"x_max":457,"o":"m 344 0 l 239 0 l 239 917 l 344 917 l 344 0 m 183 1049 q 138 1067 157 1049 q 119 1113 119 1086 q 138 1158 119 1139 q 183 1178 157 1178 q 230 1158 211 1178 q 249 1113 249 1139 q 230 1067 249 1086 q 183 1049 211 1049 m 393 1049 q 347 1067 365 1049 q 328 1113 328 1086 q 347 1158 328 1139 q 393 1178 365 1178 q 438 1158 419 1178 q 457 1113 457 1139 q 438 1067 457 1086 q 393 1049 419 1049 z "},"Ḯ":{"ha":344,"x_min":0,"x_max":338,"o":"m 225 0 l 119 0 l 119 917 l 225 917 l 225 0 m 64 1021 q 19 1040 38 1021 q 0 1086 0 1058 q 19 1131 0 1113 q 64 1150 38 1150 q 110 1131 92 1150 q 129 1086 129 1113 q 110 1040 129 1058 q 64 1021 92 1021 m 274 1021 q 227 1040 246 1021 q 208 1086 208 1058 q 227 1131 208 1113 q 274 1150 246 1150 q 319 1131 300 1150 q 338 1086 338 1113 q 319 1040 338 1058 q 274 1021 300 1021 m 228 1354 l 325 1354 l 208 1185 l 111 1185 l 228 1354 z "},"İ":{"ha":368,"x_min":119,"x_max":249,"o":"m 236 0 l 131 0 l 131 917 l 236 917 l 236 0 m 183 1047 q 138 1066 157 1047 q 119 1111 119 1085 q 138 1158 119 1139 q 183 1176 157 1176 q 230 1158 211 1176 q 249 1111 249 1139 q 230 1066 249 1085 q 183 1047 211 1047 z "},"Ị":{"ha":368,"x_min":119,"x_max":249,"o":"m 236 0 l 131 0 l 132 917 l 238 917 l 236 0 m 183 -226 q 138 -208 157 -226 q 119 -162 119 -189 q 138 -117 119 -136 q 183 -97 157 -97 q 230 -117 211 -97 q 249 -162 249 -136 q 230 -208 249 -189 q 183 -226 211 -226 z "},"Ì":{"ha":478,"x_min":119,"x_max":358,"o":"m 353 0 l 247 0 l 247 917 l 353 917 l 353 0 m 215 1210 l 358 1003 l 261 1003 l 119 1210 l 215 1210 z "},"Ỉ":{"ha":457,"x_min":119,"x_max":338,"o":"m 258 0 l 153 0 l 153 917 l 258 917 l 258 0 m 232 1240 q 288 1227 265 1240 q 324 1194 311 1214 q 338 1153 338 1174 q 324 1101 338 1125 q 264 1060 311 1076 q 244 1046 247 1054 q 240 1025 240 1038 l 240 1013 l 165 1013 l 165 1036 q 175 1072 165 1056 q 213 1101 185 1089 q 235 1111 222 1106 q 258 1126 249 1117 q 268 1149 268 1135 q 260 1169 268 1160 q 232 1178 253 1178 q 198 1169 208 1178 q 188 1136 188 1160 l 119 1136 q 135 1199 119 1176 q 176 1231 150 1222 q 232 1240 201 1240 z "},"Ȋ":{"ha":344,"x_min":-17,"x_max":357,"o":"m 225 0 l 119 0 l 119 917 l 225 917 l 225 0 m 169 1157 q 257 1141 219 1157 q 319 1094 294 1125 q 357 1015 344 1063 l 267 1015 q 237 1066 258 1046 q 169 1086 215 1086 q 103 1066 125 1086 q 72 1015 81 1046 l -17 1015 q 21 1094 -4 1063 q 83 1141 46 1125 q 169 1157 121 1157 z "},"Ī":{"ha":558,"x_min":119,"x_max":439,"o":"m 328 0 l 222 0 l 222 917 l 328 917 l 328 0 m 119 1119 l 438 1119 l 439 1036 l 119 1036 l 119 1119 z "},"Į":{"ha":493,"x_min":119,"x_max":374,"o":"m 369 0 q 281 -81 313 -46 q 238 -139 250 -115 q 226 -175 226 -162 q 243 -210 226 -197 q 283 -224 260 -224 q 303 -222 293 -224 q 324 -214 314 -219 l 339 -208 l 374 -294 l 332 -307 q 274 -317 303 -317 q 196 -299 231 -317 q 140 -251 161 -281 q 119 -185 119 -221 q 143 -106 119 -144 q 200 -33 167 -67 q 264 28 233 0 l 265 917 l 371 917 l 369 0 z "},"Ɨ":{"ha":507,"x_min":36,"x_max":471,"o":"m 36 524 l 201 524 l 201 917 l 307 917 l 307 524 l 471 524 l 471 424 l 307 424 l 307 0 l 201 0 l 201 424 l 36 424 l 36 524 z "},"Ĩ":{"ha":683,"x_min":119,"x_max":564,"o":"m 381 0 l 275 0 l 275 917 l 381 917 l 381 0 m 361 1115 q 394 1088 381 1099 q 428 1076 407 1076 q 477 1103 467 1078 q 489 1156 488 1129 l 564 1156 q 550 1083 564 1121 q 508 1020 536 1046 q 432 994 479 994 q 367 1009 390 994 q 322 1046 344 1024 q 290 1073 303 1064 q 256 1081 276 1082 q 217 1067 229 1079 q 200 1038 204 1056 q 194 1001 196 1019 l 119 1001 q 135 1078 121 1040 q 178 1139 149 1115 q 253 1163 207 1163 q 319 1147 294 1163 q 361 1115 343 1132 z "},"Ḭ":{"ha":344,"x_min":-39,"x_max":407,"o":"m 225 0 l 119 0 l 119 917 l 225 917 l 225 0 m 203 -122 q 235 -150 222 -139 q 269 -161 249 -161 q 319 -133 308 -158 q 332 -81 331 -108 l 407 -81 q 392 -153 406 -115 q 349 -216 378 -190 q 274 -242 321 -242 q 210 -227 233 -242 q 164 -192 186 -212 q 131 -165 144 -174 q 97 -156 118 -156 q 58 -169 71 -157 q 42 -200 46 -182 q 36 -236 38 -218 l -39 -236 q -24 -159 -37 -196 q 19 -99 -10 -122 q 96 -75 49 -75 q 161 -90 138 -75 q 203 -122 185 -106 z "},"J":{"ha":457,"x_min":-4,"x_max":338,"o":"m 338 917 l 338 286 q 276 56 338 135 q 89 -22 215 -22 q 60 -21 76 -22 q 26 -17 43 -19 q -4 -11 8 -15 l 14 82 q 59 76 46 78 q 82 74 72 74 q 196 128 160 74 q 232 290 232 182 l 232 917 l 338 917 z "},"Ĵ":{"ha":457,"x_min":-4,"x_max":499,"o":"m 338 917 l 338 286 q 276 56 338 135 q 89 -22 215 -22 q 60 -21 76 -22 q 26 -17 43 -19 q -4 -11 8 -15 l 14 82 q 59 76 46 78 q 82 74 72 74 q 196 128 160 74 q 232 290 232 182 l 232 917 l 338 917 m 357 1201 l 499 994 l 394 994 l 296 1139 l 196 994 l 92 994 l 235 1201 l 357 1201 z "},"K":{"ha":882,"x_min":119,"x_max":846,"o":"m 786 917 l 431 529 l 846 0 l 722 0 l 364 457 l 225 306 l 225 0 l 119 0 l 119 917 l 225 917 l 225 442 l 660 917 l 786 917 z "},"Ķ":{"ha":882,"x_min":119,"x_max":846,"o":"m 786 917 l 431 529 l 846 0 l 722 0 l 364 457 l 225 306 l 225 0 l 119 0 l 119 917 l 225 917 l 225 442 l 660 917 l 786 917 m 426 -235 q 374 -213 396 -235 q 353 -160 353 -192 q 374 -108 353 -129 q 426 -86 396 -86 q 483 -109 457 -86 q 511 -175 510 -132 q 495 -285 515 -240 q 436 -358 475 -331 q 343 -400 397 -386 l 325 -340 q 410 -302 376 -326 q 442 -231 443 -278 q 434 -234 439 -233 q 426 -235 429 -235 z "},"Ƙ":{"ha":882,"x_min":119,"x_max":846,"o":"m 431 529 l 846 0 l 722 0 l 364 457 l 225 306 l 225 0 l 119 0 l 119 917 l 225 917 l 225 442 l 581 832 q 631 884 608 861 q 677 920 653 907 q 736 933 701 933 q 776 930 756 933 q 808 922 796 926 l 790 828 q 772 831 781 829 q 754 833 764 832 q 710 828 725 836 q 672 794 696 819 l 431 529 z "},"L":{"ha":686,"x_min":119,"x_max":653,"o":"m 225 99 l 653 99 l 653 0 l 119 0 l 119 917 l 225 917 l 225 99 z "},"Ǉ":{"ha":1143,"x_min":119,"x_max":1024,"o":"m 225 99 l 653 99 l 653 0 l 119 0 l 119 917 l 225 917 l 225 99 m 1024 917 l 1024 286 q 963 56 1024 135 q 775 -22 901 -22 q 746 -21 763 -22 q 712 -17 729 -19 q 682 -11 694 -15 l 700 82 q 745 76 732 78 q 768 74 758 74 q 882 128 846 74 q 918 290 918 182 l 918 917 l 1024 917 z "},"Ĺ":{"ha":686,"x_min":119,"x_max":653,"o":"m 225 99 l 653 99 l 653 0 l 119 0 l 119 917 l 225 917 l 225 99 m 497 1211 l 594 1211 l 451 1004 l 356 1004 l 497 1211 z "},"Ľ":{"ha":686,"x_min":119,"x_max":654,"o":"m 225 99 l 653 99 l 653 0 l 119 0 l 119 917 l 225 917 l 225 99 m 564 783 q 512 805 533 783 q 490 857 490 826 q 512 909 490 888 q 564 931 533 931 q 621 908 594 931 q 650 842 647 886 q 634 732 654 776 q 574 660 614 688 q 481 618 535 632 l 464 676 q 548 715 514 690 q 579 786 582 739 q 572 783 576 783 q 564 783 567 783 z "},"Ļ":{"ha":686,"x_min":119,"x_max":653,"o":"m 225 99 l 653 99 l 653 0 l 119 0 l 119 917 l 225 917 l 225 99 m 435 -235 q 383 -213 404 -235 q 361 -160 361 -192 q 383 -108 361 -129 q 435 -86 404 -86 q 492 -109 465 -86 q 521 -175 518 -132 q 505 -285 525 -240 q 445 -358 485 -331 q 353 -400 406 -386 l 335 -340 q 419 -302 385 -326 q 450 -231 453 -278 q 442 -234 447 -233 q 435 -235 438 -235 z "},"Ŀ":{"ha":686,"x_min":119,"x_max":653,"o":"m 225 99 l 653 99 l 653 0 l 119 0 l 119 917 l 225 917 l 225 99 m 542 385 q 490 406 511 385 q 468 458 468 428 q 490 511 468 489 q 542 533 511 533 q 594 511 572 533 q 615 458 615 489 q 594 406 615 428 q 542 385 572 385 z "},"ǈ":{"ha":976,"x_min":119,"x_max":890,"o":"m 225 99 l 653 99 l 653 0 l 119 0 l 119 917 l 225 917 l 225 99 m 879 694 l 879 -81 q 818 -268 879 -208 q 646 -321 757 -328 q 622 -319 635 -321 q 595 -316 608 -318 q 572 -312 582 -314 l 588 -218 q 603 -218 592 -217 q 624 -221 615 -219 q 735 -199 696 -229 q 774 -75 774 -169 l 774 694 l 879 694 m 826 824 q 780 843 799 824 q 761 889 761 863 q 780 934 761 915 q 826 953 799 953 q 872 934 853 953 q 890 889 890 915 q 872 843 890 863 q 826 824 853 824 z "},"Ł":{"ha":731,"x_min":18,"x_max":653,"o":"m 225 99 l 653 99 l 653 0 l 119 0 l 119 351 l 18 290 l 18 407 l 119 468 l 119 917 l 225 917 l 225 532 l 338 600 l 338 483 l 225 417 l 225 99 z "},"M":{"ha":1243,"x_min":119,"x_max":1124,"o":"m 565 0 l 225 704 l 225 0 l 119 0 l 119 917 l 233 917 l 621 114 l 1010 917 l 1124 917 l 1124 0 l 1018 0 l 1018 704 l 678 0 l 565 0 z "},"N":{"ha":1006,"x_min":119,"x_max":886,"o":"m 886 917 l 885 0 l 781 0 l 226 750 l 225 0 l 119 0 l 119 917 l 224 917 l 779 165 l 779 917 l 886 917 z "},"Ǌ":{"ha":1463,"x_min":119,"x_max":1343,"o":"m 886 917 l 885 0 l 781 0 l 226 750 l 226 0 l 121 0 l 119 917 l 224 917 l 779 165 l 781 917 l 886 917 m 1343 917 l 1343 286 q 1281 56 1343 135 q 1093 -22 1219 -22 q 1065 -21 1082 -22 q 1031 -17 1047 -19 q 1000 -11 1014 -15 l 1018 82 q 1064 76 1050 78 q 1086 74 1078 74 q 1201 128 1164 74 q 1238 290 1238 182 l 1238 917 l 1343 917 z "},"Ń":{"ha":1006,"x_min":119,"x_max":886,"o":"m 886 917 l 885 0 l 781 0 l 226 750 l 225 0 l 119 0 l 119 917 l 224 917 l 779 165 l 779 917 l 886 917 m 588 1211 l 683 1211 l 542 1004 l 446 1004 l 588 1211 z "},"Ň":{"ha":1006,"x_min":119,"x_max":886,"o":"m 886 917 l 885 0 l 781 0 l 226 750 l 225 0 l 119 0 l 119 917 l 224 917 l 779 165 l 779 917 l 886 917 m 554 999 l 432 999 l 290 1206 l 394 1206 l 493 1060 l 593 1206 l 697 1206 l 554 999 z "},"Ņ":{"ha":1006,"x_min":119,"x_max":886,"o":"m 886 917 l 885 0 l 781 0 l 226 750 l 225 0 l 119 0 l 119 917 l 224 917 l 779 165 l 779 917 l 886 917 m 492 -235 q 439 -213 461 -235 q 417 -160 417 -192 q 439 -108 417 -129 q 492 -86 461 -86 q 548 -109 522 -86 q 576 -175 574 -132 q 560 -285 581 -240 q 501 -358 540 -331 q 408 -400 461 -386 l 390 -340 q 474 -302 440 -326 q 507 -231 508 -278 q 498 -234 503 -233 q 492 -235 493 -235 z "},"Ṅ":{"ha":1006,"x_min":119,"x_max":886,"o":"m 886 917 l 885 0 l 781 0 l 226 750 l 226 0 l 121 0 l 119 917 l 224 917 l 779 165 l 781 917 l 886 917 m 493 1047 q 447 1066 467 1047 q 428 1111 428 1085 q 447 1158 428 1139 q 493 1176 467 1176 q 538 1158 519 1176 q 557 1111 557 1139 q 538 1066 557 1085 q 493 1047 519 1047 z "},"Ṇ":{"ha":1006,"x_min":119,"x_max":886,"o":"m 886 917 l 885 0 l 781 0 l 226 750 l 226 0 l 121 0 l 119 917 l 224 917 l 779 165 l 781 917 l 886 917 m 481 -226 q 435 -208 454 -226 q 417 -162 417 -189 q 435 -117 417 -136 q 481 -97 454 -97 q 527 -117 508 -97 q 546 -162 546 -136 q 527 -208 546 -189 q 481 -226 508 -226 z "},"Ɲ":{"ha":1083,"x_min":-4,"x_max":964,"o":"m 196 917 l 300 917 l 858 165 l 858 917 l 964 917 l 964 0 l 858 0 l 303 750 l 301 -81 q 241 -268 301 -208 q 68 -321 181 -328 q 44 -319 57 -321 q 19 -316 32 -318 q -4 -312 6 -314 l 11 -218 q 26 -219 14 -218 q 47 -221 38 -219 q 158 -200 119 -231 q 196 -75 196 -169 l 196 917 z "},"ǋ":{"ha":1311,"x_min":119,"x_max":1226,"o":"m 886 917 l 885 0 l 781 0 l 226 750 l 226 0 l 121 0 l 119 917 l 224 917 l 779 165 l 781 917 l 886 917 m 1214 694 l 1214 -81 q 1153 -268 1214 -208 q 981 -321 1092 -328 q 956 -319 969 -321 q 931 -316 943 -318 q 907 -312 918 -314 l 922 -218 q 938 -218 926 -217 q 960 -221 950 -219 q 1070 -199 1032 -229 q 1108 -75 1108 -169 l 1108 694 l 1214 694 m 1161 824 q 1116 843 1135 824 q 1097 889 1097 863 q 1116 934 1097 915 q 1161 953 1135 953 q 1207 934 1188 953 q 1226 889 1226 915 q 1207 843 1226 863 q 1161 824 1188 824 z "},"Ñ":{"ha":1006,"x_min":119,"x_max":886,"o":"m 886 917 l 885 0 l 781 0 l 226 750 l 225 0 l 119 0 l 119 917 l 224 917 l 779 165 l 779 917 l 886 917 m 531 1115 q 563 1087 550 1097 q 597 1076 576 1076 q 647 1103 636 1078 q 658 1156 657 1128 l 733 1156 q 719 1083 732 1121 q 676 1020 706 1046 q 601 994 647 994 q 536 1009 560 994 q 492 1044 513 1024 q 459 1072 472 1064 q 425 1081 446 1081 q 386 1067 399 1079 q 369 1038 374 1056 q 364 1001 364 1019 l 289 1001 q 303 1077 289 1040 q 347 1138 318 1114 q 422 1163 376 1163 q 488 1147 464 1163 q 531 1115 513 1132 z "},"Ŋ":{"ha":1007,"x_min":119,"x_max":888,"o":"m 119 0 l 119 917 l 224 917 l 782 165 l 782 917 l 888 917 l 888 -81 q 826 -268 888 -208 q 654 -321 765 -328 q 630 -319 643 -321 q 604 -316 617 -318 q 582 -312 592 -314 l 597 -218 q 612 -218 600 -217 q 633 -221 624 -219 q 744 -199 706 -229 q 782 -75 782 -169 l 782 -10 l 782 0 l 226 750 l 225 0 l 119 0 z "},"O":{"ha":1038,"x_min":63,"x_max":975,"o":"m 519 -14 q 267 47 368 -14 q 114 214 165 107 q 63 460 63 321 q 114 704 63 597 q 267 872 165 811 q 519 933 368 933 q 771 872 669 933 q 924 704 872 811 q 975 460 975 597 q 924 214 975 321 q 771 47 872 107 q 519 -14 669 -14 m 519 85 q 715 133 638 85 q 830 265 792 181 q 868 460 868 350 q 830 653 868 568 q 715 785 792 738 q 519 833 638 833 q 323 785 400 833 q 208 653 246 738 q 171 460 171 568 q 208 265 171 350 q 323 133 246 181 q 519 85 400 85 z "},"Ó":{"ha":1038,"x_min":63,"x_max":975,"o":"m 519 -14 q 267 47 368 -14 q 114 214 165 107 q 63 460 63 321 q 114 704 63 597 q 267 872 165 811 q 519 933 368 933 q 771 872 669 933 q 924 704 872 811 q 975 460 975 597 q 924 214 975 321 q 771 47 872 107 q 519 -14 669 -14 m 519 85 q 715 133 638 85 q 830 265 792 181 q 868 460 868 350 q 830 653 868 568 q 715 785 792 738 q 519 833 638 833 q 323 785 400 833 q 208 653 246 738 q 171 460 171 568 q 208 265 171 350 q 323 133 246 181 q 519 85 400 85 m 614 1211 l 711 1211 l 568 1004 l 472 1004 l 614 1211 z "},"Ɵ":{"ha":1038,"x_min":63,"x_max":975,"o":"m 519 -14 q 267 47 368 -14 q 114 214 165 107 q 63 460 63 321 q 114 704 63 597 q 267 872 165 811 q 519 933 368 933 q 771 872 669 933 q 924 704 872 811 q 975 460 975 597 q 924 214 975 321 q 771 47 872 107 q 519 -14 669 -14 m 519 85 q 705 127 631 85 q 819 244 779 169 q 867 418 860 319 l 172 418 q 218 244 178 319 q 333 127 258 169 q 519 85 408 85 m 172 510 l 865 510 q 817 678 858 606 q 702 792 776 751 q 519 833 628 833 q 335 792 410 833 q 221 678 261 751 q 172 510 181 606 z "},"Ŏ":{"ha":1038,"x_min":63,"x_max":975,"o":"m 519 -14 q 267 47 368 -14 q 114 214 165 107 q 63 460 63 321 q 114 704 63 597 q 267 872 165 811 q 519 933 368 933 q 771 872 669 933 q 924 704 872 811 q 975 460 975 597 q 924 214 975 321 q 771 47 872 107 q 519 -14 669 -14 m 519 85 q 715 133 638 85 q 830 265 792 181 q 868 460 868 350 q 830 653 868 568 q 715 785 792 738 q 519 833 638 833 q 323 785 400 833 q 208 653 246 738 q 171 460 171 568 q 208 265 171 350 q 323 133 246 181 q 519 85 400 85 m 517 1000 q 429 1016 467 1000 q 367 1063 392 1032 q 331 1142 342 1094 l 419 1142 q 449 1092 428 1113 q 517 1071 471 1071 q 583 1092 561 1071 q 614 1142 606 1113 l 703 1142 q 665 1063 690 1094 q 603 1016 640 1032 q 517 1000 565 1000 z "},"Ǒ":{"ha":1038,"x_min":63,"x_max":975,"o":"m 519 -14 q 267 47 368 -14 q 114 214 165 107 q 63 460 63 321 q 114 704 63 597 q 267 872 165 811 q 519 933 368 933 q 771 872 669 933 q 924 704 872 811 q 975 460 975 597 q 924 214 975 321 q 771 47 872 107 q 519 -14 669 -14 m 519 85 q 715 133 638 85 q 830 265 792 181 q 868 460 868 350 q 830 653 868 568 q 715 785 792 738 q 519 833 638 833 q 323 785 400 833 q 208 653 246 738 q 171 460 171 568 q 208 265 171 350 q 323 133 246 181 q 519 85 400 85 m 581 999 l 458 999 l 317 1206 l 421 1206 l 519 1060 l 619 1206 l 724 1206 l 581 999 z "},"Ô":{"ha":1038,"x_min":63,"x_max":975,"o":"m 519 -14 q 267 47 368 -14 q 114 214 165 107 q 63 460 63 321 q 114 704 63 597 q 267 872 165 811 q 519 933 368 933 q 771 872 669 933 q 924 704 872 811 q 975 460 975 597 q 924 214 975 321 q 771 47 872 107 q 519 -14 669 -14 m 519 85 q 715 133 638 85 q 830 265 792 181 q 868 460 868 350 q 830 653 868 568 q 715 785 792 738 q 519 833 638 833 q 323 785 400 833 q 208 653 246 738 q 171 460 171 568 q 208 265 171 350 q 323 133 246 181 q 519 85 400 85 m 582 1201 l 725 994 l 621 994 l 521 1139 l 422 994 l 318 994 l 460 1201 l 582 1201 z "},"Ố":{"ha":1038,"x_min":63,"x_max":975,"o":"m 519 -14 q 267 47 368 -14 q 114 214 165 107 q 63 460 63 321 q 114 704 63 597 q 267 872 165 811 q 519 933 368 933 q 771 872 669 933 q 924 704 872 811 q 975 460 975 597 q 924 214 975 321 q 771 47 872 107 q 519 -14 669 -14 m 519 85 q 715 133 638 85 q 830 265 792 181 q 868 460 868 350 q 830 653 868 568 q 715 785 792 738 q 519 833 638 833 q 323 785 400 833 q 208 653 246 738 q 171 460 171 568 q 208 265 171 350 q 323 133 246 181 q 519 85 400 85 m 582 1201 l 725 994 l 621 994 l 521 1139 l 422 994 l 318 994 l 460 1201 l 582 1201 m 828 1321 l 925 1321 l 782 1115 l 686 1115 l 828 1321 z "},"Ộ":{"ha":1038,"x_min":63,"x_max":975,"o":"m 519 -14 q 267 47 368 -14 q 114 214 165 107 q 63 460 63 321 q 114 704 63 597 q 267 872 165 811 q 519 933 368 933 q 771 872 669 933 q 924 704 872 811 q 975 460 975 597 q 924 214 975 321 q 771 47 872 107 q 519 -14 669 -14 m 519 85 q 715 133 638 85 q 830 265 792 181 q 868 460 868 350 q 830 653 868 568 q 715 785 792 738 q 519 833 638 833 q 323 785 400 833 q 208 653 246 738 q 171 460 171 568 q 208 265 171 350 q 323 133 246 181 q 519 85 400 85 m 518 -226 q 472 -208 490 -226 q 453 -162 453 -189 q 472 -117 453 -136 q 518 -97 490 -97 q 563 -117 544 -97 q 582 -162 582 -136 q 563 -208 582 -189 q 518 -226 544 -226 m 582 1201 l 725 994 l 621 994 l 521 1139 l 422 994 l 318 994 l 460 1201 l 582 1201 z "},"Ồ":{"ha":1038,"x_min":63,"x_max":975,"o":"m 519 -14 q 267 47 368 -14 q 114 214 165 107 q 63 460 63 321 q 114 704 63 597 q 267 872 165 811 q 519 933 368 933 q 771 872 669 933 q 924 704 872 811 q 975 460 975 597 q 924 214 975 321 q 771 47 872 107 q 519 -14 669 -14 m 519 85 q 715 133 638 85 q 830 265 792 181 q 868 460 868 350 q 830 653 868 568 q 715 785 792 738 q 519 833 638 833 q 323 785 400 833 q 208 653 246 738 q 171 460 171 568 q 208 265 171 350 q 323 133 246 181 q 519 85 400 85 m 582 1201 l 725 994 l 621 994 l 521 1139 l 422 994 l 318 994 l 460 1201 l 582 1201 m 663 1321 l 804 1114 l 708 1114 l 565 1321 l 663 1321 z "},"Ổ":{"ha":1038,"x_min":63,"x_max":975,"o":"m 519 -14 q 267 47 368 -14 q 114 214 165 107 q 63 460 63 321 q 114 704 63 597 q 267 872 165 811 q 519 933 368 933 q 771 872 669 933 q 924 704 872 811 q 975 460 975 597 q 924 214 975 321 q 771 47 872 107 q 519 -14 669 -14 m 519 85 q 715 133 638 85 q 830 265 792 181 q 868 460 868 350 q 830 653 868 568 q 715 785 792 738 q 519 833 638 833 q 323 785 400 833 q 208 653 246 738 q 171 460 171 568 q 208 265 171 350 q 323 133 246 181 q 519 85 400 85 m 582 1201 l 725 994 l 621 994 l 521 1139 l 422 994 l 318 994 l 460 1201 l 582 1201 m 760 1351 q 815 1338 792 1351 q 851 1303 839 1324 q 864 1263 864 1283 q 851 1210 864 1235 q 792 1169 838 1186 q 770 1156 774 1164 q 767 1136 767 1147 l 767 1122 l 692 1122 l 693 1146 q 703 1182 693 1165 q 739 1211 713 1199 q 762 1222 749 1215 q 785 1236 775 1228 q 796 1258 796 1244 q 788 1279 796 1269 q 758 1289 779 1289 q 726 1279 736 1289 q 715 1246 715 1269 l 646 1246 q 661 1309 646 1286 q 702 1342 676 1332 q 760 1351 728 1351 z "},"Ỗ":{"ha":1038,"x_min":63,"x_max":975,"o":"m 519 -14 q 267 47 368 -14 q 114 214 165 107 q 63 460 63 321 q 114 704 63 597 q 267 872 165 811 q 519 933 368 933 q 771 872 669 933 q 924 704 872 811 q 975 460 975 597 q 924 214 975 321 q 771 47 872 107 q 519 -14 669 -14 m 519 85 q 715 133 638 85 q 830 265 792 181 q 868 460 868 350 q 830 653 868 568 q 715 785 792 738 q 519 833 638 833 q 323 785 400 833 q 208 653 246 738 q 171 460 171 568 q 208 265 171 350 q 323 133 246 181 q 519 85 400 85 m 582 1201 l 725 994 l 621 994 l 521 1139 l 422 994 l 318 994 l 460 1201 l 582 1201 m 561 1361 q 594 1333 581 1344 q 628 1322 607 1322 q 677 1349 667 1324 q 689 1401 688 1375 l 764 1401 q 750 1329 764 1367 q 708 1266 736 1292 q 632 1240 679 1240 q 567 1255 590 1240 q 522 1292 544 1269 q 490 1319 503 1310 q 456 1326 476 1328 q 417 1313 429 1325 q 400 1283 404 1301 q 394 1247 396 1265 l 319 1247 q 335 1324 321 1286 q 378 1385 349 1361 q 453 1408 407 1408 q 519 1393 496 1408 q 561 1361 543 1378 z "},"Ȍ":{"ha":1038,"x_min":63,"x_max":975,"o":"m 519 -14 q 267 47 368 -14 q 114 214 165 107 q 63 460 63 321 q 114 704 63 597 q 267 872 165 811 q 519 933 368 933 q 771 872 669 933 q 924 704 872 811 q 975 460 975 597 q 924 214 975 321 q 771 47 872 107 q 519 -14 669 -14 m 519 85 q 715 133 638 85 q 830 265 792 181 q 868 460 868 350 q 830 653 868 568 q 715 785 792 738 q 519 833 638 833 q 323 785 400 833 q 208 653 246 738 q 171 460 171 568 q 208 265 171 350 q 323 133 246 181 q 519 85 400 85 m 290 1210 l 433 1003 l 336 1003 l 194 1210 l 290 1210 m 536 1210 l 679 1003 l 582 1003 l 440 1210 l 536 1210 z "},"Ö":{"ha":1038,"x_min":63,"x_max":975,"o":"m 519 -14 q 267 47 368 -14 q 114 214 165 107 q 63 460 63 321 q 114 704 63 597 q 267 872 165 811 q 519 933 368 933 q 771 872 669 933 q 924 704 872 811 q 975 460 975 597 q 924 214 975 321 q 771 47 872 107 q 519 -14 669 -14 m 519 85 q 715 133 638 85 q 830 265 792 181 q 868 460 868 350 q 830 653 868 568 q 715 785 792 738 q 519 833 638 833 q 323 785 400 833 q 208 653 246 738 q 171 460 171 568 q 208 265 171 350 q 323 133 246 181 q 519 85 400 85 m 411 1049 q 366 1067 385 1049 q 347 1113 347 1086 q 366 1158 347 1139 q 411 1178 385 1178 q 457 1158 438 1178 q 476 1113 476 1139 q 457 1067 476 1086 q 411 1049 438 1049 m 619 1049 q 574 1067 593 1049 q 556 1113 556 1086 q 574 1158 556 1139 q 619 1178 593 1178 q 665 1158 646 1178 q 685 1113 685 1139 q 665 1067 685 1086 q 619 1049 646 1049 z "},"Ọ":{"ha":1038,"x_min":63,"x_max":975,"o":"m 519 -14 q 267 47 368 -14 q 114 214 165 107 q 63 460 63 321 q 114 704 63 597 q 267 872 165 811 q 519 933 368 933 q 771 872 669 933 q 924 704 872 811 q 975 460 975 597 q 924 214 975 321 q 771 47 872 107 q 519 -14 669 -14 m 519 85 q 715 133 638 85 q 830 265 792 181 q 868 460 868 350 q 830 653 868 568 q 715 785 792 738 q 519 833 638 833 q 323 785 400 833 q 208 653 246 738 q 171 460 171 568 q 208 265 171 350 q 323 133 246 181 q 519 85 400 85 m 518 -226 q 472 -208 490 -226 q 453 -162 453 -189 q 472 -117 453 -136 q 518 -97 490 -97 q 563 -117 544 -97 q 582 -162 582 -136 q 563 -208 582 -189 q 518 -226 544 -226 z "},"Ò":{"ha":1038,"x_min":63,"x_max":975,"o":"m 519 -14 q 267 47 368 -14 q 114 214 165 107 q 63 460 63 321 q 114 704 63 597 q 267 872 165 811 q 519 933 368 933 q 771 872 669 933 q 924 704 872 811 q 975 460 975 597 q 924 214 975 321 q 771 47 872 107 q 519 -14 669 -14 m 519 85 q 715 133 638 85 q 830 265 792 181 q 868 460 868 350 q 830 653 868 568 q 715 785 792 738 q 519 833 638 833 q 323 785 400 833 q 208 653 246 738 q 171 460 171 568 q 208 265 171 350 q 323 133 246 181 q 519 85 400 85 m 435 1210 l 578 1003 l 481 1003 l 339 1210 l 435 1210 z "},"Ỏ":{"ha":1038,"x_min":63,"x_max":975,"o":"m 519 -14 q 267 47 368 -14 q 114 214 165 107 q 63 460 63 321 q 114 704 63 597 q 267 872 165 811 q 519 933 368 933 q 771 872 669 933 q 924 704 872 811 q 975 460 975 597 q 924 214 975 321 q 771 47 872 107 q 519 -14 669 -14 m 519 85 q 715 133 638 85 q 830 265 792 181 q 868 460 868 350 q 830 653 868 568 q 715 785 792 738 q 519 833 638 833 q 323 785 400 833 q 208 653 246 738 q 171 460 171 568 q 208 265 171 350 q 323 133 246 181 q 519 85 400 85 m 546 1240 q 601 1227 578 1240 q 638 1194 625 1214 q 650 1153 650 1174 q 637 1101 650 1125 q 578 1060 624 1076 q 556 1046 560 1054 q 553 1025 553 1038 l 553 1013 l 479 1013 l 479 1036 q 489 1072 479 1056 q 526 1101 499 1089 q 548 1111 535 1106 q 572 1126 561 1117 q 582 1149 582 1135 q 574 1169 582 1160 q 544 1178 565 1178 q 512 1169 522 1178 q 501 1136 501 1160 l 433 1136 q 448 1199 433 1176 q 488 1231 463 1222 q 546 1240 514 1240 z "},"Ơ":{"ha":1213,"x_min":63,"x_max":1150,"o":"m 519 -14 q 267 47 368 -14 q 114 214 165 107 q 63 460 63 321 q 114 704 63 597 q 267 872 165 811 q 519 933 368 933 q 784 864 679 933 q 936 676 889 794 l 971 685 q 1021 716 1006 693 q 1042 779 1036 739 q 1056 878 1049 819 l 1150 878 q 1135 769 1140 815 q 1115 690 1129 722 q 1071 636 1101 657 q 983 601 1040 615 l 961 596 q 975 460 975 532 q 924 214 975 321 q 771 47 872 107 q 519 -14 669 -14 m 519 85 q 715 133 638 85 q 830 265 792 181 q 868 460 868 350 q 830 653 868 568 q 715 785 792 738 q 519 833 638 833 q 323 785 400 833 q 208 653 246 738 q 171 460 171 568 q 208 265 171 350 q 323 133 246 181 q 519 85 400 85 z "},"Ớ":{"ha":1213,"x_min":63,"x_max":1150,"o":"m 519 -14 q 267 47 368 -14 q 114 214 165 107 q 63 460 63 321 q 114 704 63 597 q 267 872 165 811 q 519 933 368 933 q 784 864 679 933 q 936 676 889 794 l 971 685 q 1021 716 1006 693 q 1042 779 1036 739 q 1056 878 1049 819 l 1150 878 q 1135 769 1140 815 q 1115 690 1129 722 q 1071 636 1101 657 q 983 601 1040 615 l 961 596 q 975 460 975 532 q 924 214 975 321 q 771 47 872 107 q 519 -14 669 -14 m 519 85 q 715 133 638 85 q 830 265 792 181 q 868 460 868 350 q 830 653 868 568 q 715 785 792 738 q 519 833 638 833 q 323 785 400 833 q 208 653 246 738 q 171 460 171 568 q 208 265 171 350 q 323 133 246 181 q 519 85 400 85 m 614 1211 l 711 1211 l 568 1004 l 472 1004 l 614 1211 z "},"Ợ":{"ha":1213,"x_min":63,"x_max":1150,"o":"m 519 -14 q 267 47 368 -14 q 114 214 165 107 q 63 460 63 321 q 114 704 63 597 q 267 872 165 811 q 519 933 368 933 q 784 864 679 933 q 936 676 889 794 l 971 685 q 1021 716 1006 693 q 1042 779 1036 739 q 1056 878 1049 819 l 1150 878 q 1135 769 1140 815 q 1115 690 1129 722 q 1071 636 1101 657 q 983 601 1040 615 l 961 596 q 975 460 975 532 q 924 214 975 321 q 771 47 872 107 q 519 -14 669 -14 m 519 85 q 715 133 638 85 q 830 265 792 181 q 868 460 868 350 q 830 653 868 568 q 715 785 792 738 q 519 833 638 833 q 323 785 400 833 q 208 653 246 738 q 171 460 171 568 q 208 265 171 350 q 323 133 246 181 q 519 85 400 85 m 518 -226 q 472 -208 490 -226 q 453 -162 453 -189 q 472 -117 453 -136 q 518 -97 490 -97 q 563 -117 544 -97 q 582 -162 582 -136 q 563 -208 582 -189 q 518 -226 544 -226 z "},"Ờ":{"ha":1213,"x_min":63,"x_max":1150,"o":"m 519 -14 q 267 47 368 -14 q 114 214 165 107 q 63 460 63 321 q 114 704 63 597 q 267 872 165 811 q 519 933 368 933 q 784 864 679 933 q 936 676 889 794 l 971 685 q 1021 716 1006 693 q 1042 779 1036 739 q 1056 878 1049 819 l 1150 878 q 1135 769 1140 815 q 1115 690 1129 722 q 1071 636 1101 657 q 983 601 1040 615 l 961 596 q 975 460 975 532 q 924 214 975 321 q 771 47 872 107 q 519 -14 669 -14 m 519 85 q 715 133 638 85 q 830 265 792 181 q 868 460 868 350 q 830 653 868 568 q 715 785 792 738 q 519 833 638 833 q 323 785 400 833 q 208 653 246 738 q 171 460 171 568 q 208 265 171 350 q 323 133 246 181 q 519 85 400 85 m 435 1210 l 578 1003 l 481 1003 l 339 1210 l 435 1210 z "},"Ở":{"ha":1213,"x_min":63,"x_max":1150,"o":"m 519 -14 q 267 47 368 -14 q 114 214 165 107 q 63 460 63 321 q 114 704 63 597 q 267 872 165 811 q 519 933 368 933 q 784 864 679 933 q 936 676 889 794 l 971 685 q 1021 716 1006 693 q 1042 779 1036 739 q 1056 878 1049 819 l 1150 878 q 1135 769 1140 815 q 1115 690 1129 722 q 1071 636 1101 657 q 983 601 1040 615 l 961 596 q 975 460 975 532 q 924 214 975 321 q 771 47 872 107 q 519 -14 669 -14 m 519 85 q 715 133 638 85 q 830 265 792 181 q 868 460 868 350 q 830 653 868 568 q 715 785 792 738 q 519 833 638 833 q 323 785 400 833 q 208 653 246 738 q 171 460 171 568 q 208 265 171 350 q 323 133 246 181 q 519 85 400 85 m 546 1240 q 601 1227 578 1240 q 638 1194 625 1214 q 650 1153 650 1174 q 637 1101 650 1125 q 578 1060 624 1076 q 556 1046 560 1054 q 553 1025 553 1038 l 553 1013 l 479 1013 l 479 1036 q 489 1072 479 1056 q 526 1101 499 1089 q 548 1111 535 1106 q 572 1126 561 1117 q 582 1149 582 1135 q 574 1169 582 1160 q 544 1178 565 1178 q 512 1169 522 1178 q 501 1136 501 1160 l 433 1136 q 448 1199 433 1176 q 488 1231 463 1222 q 546 1240 514 1240 z "},"Ỡ":{"ha":1213,"x_min":63,"x_max":1150,"o":"m 519 -14 q 267 47 368 -14 q 114 214 165 107 q 63 460 63 321 q 114 704 63 597 q 267 872 165 811 q 519 933 368 933 q 784 864 679 933 q 936 676 889 794 l 971 685 q 1021 716 1006 693 q 1042 779 1036 739 q 1056 878 1049 819 l 1150 878 q 1135 769 1140 815 q 1115 690 1129 722 q 1071 636 1101 657 q 983 601 1040 615 l 961 596 q 975 460 975 532 q 924 214 975 321 q 771 47 872 107 q 519 -14 669 -14 m 519 85 q 715 133 638 85 q 830 265 792 181 q 868 460 868 350 q 830 653 868 568 q 715 785 792 738 q 519 833 638 833 q 323 785 400 833 q 208 653 246 738 q 171 460 171 568 q 208 265 171 350 q 323 133 246 181 q 519 85 400 85 m 553 1115 q 584 1088 571 1099 q 619 1076 597 1076 q 668 1103 657 1078 q 681 1156 679 1129 l 756 1156 q 740 1083 754 1121 q 698 1020 726 1046 q 624 994 669 994 q 558 1009 582 994 q 513 1046 535 1024 q 480 1073 493 1064 q 446 1081 467 1082 q 408 1067 421 1079 q 391 1038 396 1056 q 385 1001 386 1019 l 311 1001 q 325 1078 311 1040 q 369 1139 339 1115 q 444 1163 399 1163 q 510 1147 486 1163 q 553 1115 535 1132 z "},"Ő":{"ha":1038,"x_min":63,"x_max":975,"o":"m 519 -14 q 267 47 368 -14 q 114 214 165 107 q 63 460 63 321 q 114 704 63 597 q 267 872 165 811 q 519 933 368 933 q 771 872 669 933 q 924 704 872 811 q 975 460 975 597 q 924 214 975 321 q 771 47 872 107 q 519 -14 669 -14 m 519 85 q 715 133 638 85 q 830 265 792 181 q 868 460 868 350 q 830 653 868 568 q 715 785 792 738 q 519 833 638 833 q 323 785 400 833 q 208 653 246 738 q 171 460 171 568 q 208 265 171 350 q 323 133 246 181 q 519 85 400 85 m 465 1213 l 561 1213 l 419 1006 l 322 1006 l 465 1213 m 746 1213 l 842 1213 l 700 1006 l 603 1006 l 746 1213 z "},"Ȏ":{"ha":1038,"x_min":63,"x_max":975,"o":"m 519 -14 q 267 47 368 -14 q 114 214 165 107 q 63 460 63 321 q 114 704 63 597 q 267 872 165 811 q 519 933 368 933 q 771 872 669 933 q 924 704 872 811 q 975 460 975 597 q 924 214 975 321 q 771 47 872 107 q 519 -14 669 -14 m 519 85 q 715 133 638 85 q 830 265 792 181 q 868 460 868 350 q 830 653 868 568 q 715 785 792 738 q 519 833 638 833 q 323 785 400 833 q 208 653 246 738 q 171 460 171 568 q 208 265 171 350 q 323 133 246 181 q 519 85 400 85 m 517 1157 q 603 1141 565 1157 q 665 1094 640 1125 q 703 1015 690 1063 l 614 1015 q 583 1066 606 1046 q 517 1086 561 1086 q 449 1066 471 1086 q 419 1015 428 1046 l 331 1015 q 367 1094 342 1063 q 429 1141 392 1125 q 517 1157 467 1157 z "},"Ō":{"ha":1038,"x_min":63,"x_max":975,"o":"m 519 -14 q 267 47 368 -14 q 114 214 165 107 q 63 460 63 321 q 114 704 63 597 q 267 872 165 811 q 519 933 368 933 q 771 872 669 933 q 924 704 872 811 q 975 460 975 597 q 924 214 975 321 q 771 47 872 107 q 519 -14 669 -14 m 519 85 q 715 133 638 85 q 830 265 792 181 q 868 460 868 350 q 830 653 868 568 q 715 785 792 738 q 519 833 638 833 q 323 785 400 833 q 208 653 246 738 q 171 460 171 568 q 208 265 171 350 q 323 133 246 181 q 519 85 400 85 m 363 1119 l 682 1119 l 682 1036 l 363 1036 l 363 1119 z "},"Ǫ":{"ha":1038,"x_min":63,"x_max":975,"o":"m 63 460 q 114 704 63 597 q 267 872 165 811 q 519 933 368 933 q 771 872 669 933 q 924 704 872 811 q 975 460 975 597 q 915 197 975 310 q 738 29 856 83 q 653 -42 686 -6 q 604 -113 621 -79 q 588 -175 588 -147 q 602 -209 588 -194 q 636 -224 617 -224 q 693 -206 667 -224 l 721 -185 l 772 -264 l 718 -296 q 628 -319 678 -319 q 558 -303 590 -319 q 504 -258 525 -286 q 483 -194 483 -229 q 490 -142 483 -168 q 513 -85 496 -115 q 568 -12 531 -54 q 519 -14 544 -14 q 267 47 368 -14 q 114 214 165 107 q 63 460 63 321 m 519 85 q 715 133 638 85 q 830 265 792 181 q 868 460 868 350 q 830 653 868 568 q 715 785 792 738 q 519 833 638 833 q 323 785 400 833 q 208 653 246 738 q 171 460 171 568 q 208 265 171 350 q 323 133 246 181 q 519 85 400 85 z "},"Ɔ":{"ha":919,"x_min":67,"x_max":856,"o":"m 67 194 l 174 222 q 235 149 199 181 q 322 99 272 117 q 433 82 371 82 q 609 130 539 82 q 714 263 679 178 q 749 460 749 347 q 714 656 749 571 q 609 789 679 742 q 433 836 539 836 q 322 819 371 836 q 236 770 274 801 q 174 697 199 739 l 68 726 q 153 837 101 790 q 274 910 204 883 q 433 936 344 936 q 666 876 572 936 q 808 708 760 815 q 856 460 856 600 q 808 211 856 318 q 666 44 760 104 q 433 -17 572 -17 q 274 10 344 -17 q 151 83 203 36 q 67 194 100 131 z "},"Ø":{"ha":1038,"x_min":63,"x_max":975,"o":"m 519 -14 q 371 4 439 -14 l 335 -75 l 232 -75 l 283 38 q 118 206 174 96 q 63 460 63 315 q 114 704 63 597 q 267 872 165 811 q 519 933 368 933 q 604 927 564 933 q 681 911 644 921 l 710 976 l 811 976 l 765 875 q 922 708 869 817 q 975 460 975 600 q 924 214 975 321 q 771 47 872 107 q 519 -14 669 -14 m 519 85 q 715 133 638 85 q 830 265 792 181 q 868 460 868 350 q 832 649 868 565 q 722 781 796 732 l 413 97 q 519 85 463 85 m 171 460 q 209 263 171 349 q 325 132 247 178 l 638 818 q 581 830 611 826 q 519 833 551 833 q 323 785 400 833 q 208 653 246 738 q 171 460 171 568 z "},"Ǿ":{"ha":1038,"x_min":63,"x_max":975,"o":"m 519 -14 q 371 4 439 -14 l 335 -75 l 232 -75 l 283 38 q 118 206 174 96 q 63 460 63 315 q 114 704 63 597 q 267 872 165 811 q 519 933 368 933 q 604 927 564 933 q 681 911 644 921 l 710 976 l 811 976 l 765 875 q 922 708 869 817 q 975 460 975 600 q 924 214 975 321 q 771 47 872 107 q 519 -14 669 -14 m 519 85 q 715 133 638 85 q 830 265 792 181 q 868 460 868 350 q 832 649 868 565 q 722 781 796 732 l 413 97 q 464 88 438 90 q 519 85 490 85 m 171 460 q 209 263 171 349 q 325 132 247 178 l 638 818 q 581 830 611 826 q 519 833 551 833 q 323 785 400 833 q 208 653 246 738 q 171 460 171 568 m 614 1211 l 711 1211 l 568 1004 l 472 1004 l 614 1211 z "},"Õ":{"ha":1038,"x_min":63,"x_max":975,"o":"m 519 -14 q 267 47 368 -14 q 114 214 165 107 q 63 460 63 321 q 114 704 63 597 q 267 872 165 811 q 519 933 368 933 q 771 872 669 933 q 924 704 872 811 q 975 460 975 597 q 924 214 975 321 q 771 47 872 107 q 519 -14 669 -14 m 519 85 q 715 133 638 85 q 830 265 792 181 q 868 460 868 350 q 830 653 868 568 q 715 785 792 738 q 519 833 638 833 q 323 785 400 833 q 208 653 246 738 q 171 460 171 568 q 208 265 171 350 q 323 133 246 181 q 519 85 400 85 m 553 1115 q 584 1088 571 1099 q 619 1076 597 1076 q 668 1103 657 1078 q 681 1156 679 1129 l 756 1156 q 740 1083 754 1121 q 698 1020 726 1046 q 624 994 669 994 q 558 1009 582 994 q 513 1046 535 1024 q 480 1073 493 1064 q 446 1081 467 1082 q 408 1067 421 1079 q 391 1038 396 1056 q 385 1001 386 1019 l 311 1001 q 325 1078 311 1040 q 369 1139 339 1115 q 444 1163 399 1163 q 510 1147 486 1163 q 553 1115 535 1132 z "},"Œ":{"ha":1475,"x_min":63,"x_max":1442,"o":"m 519 -8 q 267 51 368 -8 q 114 215 165 110 q 63 460 63 321 q 114 703 63 597 q 267 868 165 808 q 519 928 368 928 q 635 917 581 928 l 1414 917 l 1414 818 l 831 818 q 928 693 892 768 q 972 524 964 618 l 1385 524 l 1385 432 l 975 432 q 934 239 971 325 q 828 99 897 153 l 1442 99 l 1442 0 l 626 0 q 519 -8 576 -8 m 519 90 q 715 137 638 90 q 830 267 792 183 q 868 460 868 350 q 830 651 868 568 q 715 781 792 735 q 519 828 638 828 q 323 781 400 828 q 208 651 246 735 q 171 460 171 568 q 208 267 171 350 q 323 137 246 183 q 519 90 400 90 z "},"P":{"ha":913,"x_min":119,"x_max":829,"o":"m 488 917 q 700 880 626 917 q 801 779 774 843 q 829 633 829 715 q 801 487 829 551 q 700 386 774 422 q 488 350 626 350 l 225 350 l 225 0 l 119 0 l 119 917 l 488 917 m 475 824 l 225 824 l 225 442 l 475 442 q 633 467 581 442 q 704 535 686 492 q 722 633 722 579 q 704 731 722 688 q 633 799 686 774 q 475 824 581 824 z "},"Ṗ":{"ha":913,"x_min":119,"x_max":829,"o":"m 488 917 q 700 880 626 917 q 801 779 774 843 q 829 633 829 715 q 801 487 829 551 q 700 386 774 422 q 488 350 626 350 l 225 350 l 225 0 l 119 0 l 119 917 l 488 917 m 475 824 l 225 824 l 225 442 l 475 442 q 633 467 581 442 q 704 535 686 492 q 722 633 722 579 q 704 731 722 688 q 633 799 686 774 q 475 824 581 824 m 444 1047 q 399 1066 418 1047 q 381 1111 381 1085 q 399 1158 381 1139 q 444 1176 418 1176 q 490 1158 471 1176 q 508 1111 508 1139 q 490 1066 508 1085 q 444 1047 471 1047 z "},"Þ":{"ha":913,"x_min":119,"x_max":829,"o":"m 225 917 l 225 729 l 488 729 q 700 692 626 729 q 801 592 774 656 q 829 446 829 528 q 800 301 829 364 q 696 203 771 238 q 482 168 621 168 l 225 168 l 225 0 l 119 0 l 119 917 l 225 917 m 475 636 l 225 636 l 225 261 l 472 261 q 631 285 576 261 q 703 350 685 308 q 722 446 722 392 q 704 543 722 500 q 633 611 686 586 q 475 636 581 636 z "},"Q":{"ha":1038,"x_min":63,"x_max":975,"o":"m 519 85 q 715 133 638 85 q 830 265 792 181 q 868 460 868 350 q 830 653 868 568 q 715 785 792 738 q 519 833 638 833 q 323 785 400 833 q 208 653 246 738 q 171 460 171 568 q 208 265 171 350 q 323 133 246 181 q 519 85 400 85 m 756 -117 l 756 -211 q 680 -219 724 -214 q 592 -225 636 -225 q 503 -212 543 -225 q 439 -169 463 -199 q 415 -93 415 -140 q 421 -47 415 -68 q 438 -8 426 -26 q 231 71 314 7 q 105 234 147 135 q 63 460 63 333 q 114 704 63 597 q 267 872 165 811 q 519 933 368 933 q 771 872 669 933 q 924 704 872 811 q 975 460 975 597 q 929 225 975 328 q 792 60 883 122 q 567 -12 701 -3 q 528 -43 539 -28 q 517 -78 517 -58 q 533 -113 517 -101 q 574 -128 550 -125 q 622 -132 599 -132 q 680 -128 649 -132 q 756 -117 711 -125 z "},"R":{"ha":913,"x_min":119,"x_max":829,"o":"m 722 633 q 704 731 722 688 q 633 799 686 774 q 475 824 581 824 l 225 824 l 225 442 l 475 442 q 633 467 581 442 q 704 535 686 492 q 722 633 722 579 m 119 0 l 119 917 l 488 917 q 700 880 626 917 q 801 779 774 843 q 829 633 829 715 q 808 502 829 561 q 733 405 788 443 q 576 354 678 367 l 807 0 l 690 0 l 464 350 l 225 350 l 225 0 l 119 0 z "},"Ŕ":{"ha":913,"x_min":119,"x_max":829,"o":"m 722 633 q 704 731 722 688 q 633 799 686 774 q 475 824 581 824 l 225 824 l 225 442 l 475 442 q 633 467 581 442 q 704 535 686 492 q 722 633 722 579 m 119 0 l 119 917 l 488 917 q 700 880 626 917 q 801 779 774 843 q 829 633 829 715 q 808 502 829 561 q 733 405 788 443 q 576 354 678 367 l 807 0 l 690 0 l 464 350 l 225 350 l 225 0 l 119 0 m 526 1211 l 624 1211 l 481 1004 l 385 1004 l 526 1211 z "},"Ř":{"ha":913,"x_min":119,"x_max":829,"o":"m 722 633 q 704 731 722 688 q 633 799 686 774 q 475 824 581 824 l 225 824 l 225 442 l 475 442 q 633 467 581 442 q 704 535 686 492 q 722 633 722 579 m 119 0 l 119 917 l 488 917 q 700 880 626 917 q 801 779 774 843 q 829 633 829 715 q 808 502 829 561 q 733 405 788 443 q 576 354 678 367 l 807 0 l 690 0 l 464 350 l 225 350 l 225 0 l 119 0 m 493 999 l 371 999 l 229 1206 l 333 1206 l 432 1060 l 532 1206 l 636 1206 l 493 999 z "},"Ŗ":{"ha":913,"x_min":119,"x_max":829,"o":"m 722 633 q 704 731 722 688 q 633 799 686 774 q 475 824 581 824 l 225 824 l 225 442 l 475 442 q 633 467 581 442 q 704 535 686 492 q 722 633 722 579 m 119 0 l 119 917 l 488 917 q 700 880 626 917 q 801 779 774 843 q 829 633 829 715 q 808 502 829 561 q 733 405 788 443 q 576 354 678 367 l 807 0 l 690 0 l 464 350 l 225 350 l 225 0 l 119 0 m 440 -235 q 388 -213 410 -235 q 367 -160 367 -192 q 388 -108 367 -129 q 440 -86 410 -86 q 497 -109 471 -86 q 525 -175 522 -132 q 509 -285 529 -240 q 449 -358 489 -331 q 357 -400 410 -386 l 339 -340 q 423 -302 389 -326 q 456 -231 457 -278 q 447 -234 451 -233 q 440 -235 442 -235 z "},"Ȑ":{"ha":913,"x_min":107,"x_max":829,"o":"m 722 633 q 704 731 722 688 q 633 799 686 774 q 475 824 581 824 l 225 824 l 225 442 l 475 442 q 633 467 581 442 q 704 535 686 492 q 722 633 722 579 m 119 0 l 119 917 l 488 917 q 700 880 626 917 q 801 779 774 843 q 829 633 829 715 q 808 502 829 561 q 733 405 788 443 q 576 354 678 367 l 807 0 l 690 0 l 464 350 l 225 350 l 225 0 l 119 0 m 203 1210 l 346 1003 l 249 1003 l 107 1210 l 203 1210 m 449 1210 l 592 1003 l 494 1003 l 353 1210 l 449 1210 z "},"Ȓ":{"ha":913,"x_min":119,"x_max":829,"o":"m 722 633 q 704 731 722 688 q 633 799 686 774 q 475 824 581 824 l 225 824 l 225 442 l 475 442 q 633 467 581 442 q 704 535 686 492 q 722 633 722 579 m 119 0 l 119 917 l 488 917 q 700 880 626 917 q 801 779 774 843 q 829 633 829 715 q 808 502 829 561 q 733 405 788 443 q 576 354 678 367 l 807 0 l 690 0 l 464 350 l 225 350 l 225 0 l 119 0 m 429 1157 q 515 1141 478 1157 q 578 1094 553 1125 q 615 1015 603 1063 l 526 1015 q 496 1066 518 1046 q 429 1086 474 1086 q 362 1066 383 1086 q 332 1015 340 1046 l 242 1015 q 279 1094 254 1063 q 342 1141 304 1125 q 429 1157 379 1157 z "},"S":{"ha":871,"x_min":63,"x_max":808,"o":"m 688 733 q 646 781 675 758 q 566 819 617 804 q 436 835 515 835 q 290 815 349 835 q 203 763 232 796 q 174 689 174 729 q 195 618 174 647 q 258 571 217 589 q 354 543 299 553 l 522 511 q 684 458 621 493 q 778 374 747 424 q 808 261 808 325 q 785 158 808 207 q 717 69 763 108 q 600 8 671 31 q 433 -14 529 -14 q 242 13 318 -14 q 124 82 167 39 q 63 175 81 125 l 163 206 q 203 147 174 175 q 289 102 233 119 q 435 85 344 85 q 584 108 525 85 q 672 172 643 132 q 701 261 701 213 q 681 331 701 300 q 617 382 660 361 q 510 415 575 403 l 347 446 q 191 494 254 464 q 97 573 128 525 q 67 690 67 621 q 90 784 67 740 q 160 861 114 828 q 276 914 207 894 q 439 933 346 933 q 613 909 542 933 q 726 847 683 885 q 789 765 769 808 l 688 733 z "},"Ś":{"ha":871,"x_min":63,"x_max":808,"o":"m 688 733 q 646 781 675 758 q 566 819 617 804 q 436 835 515 835 q 290 815 349 835 q 203 763 232 796 q 174 689 174 729 q 195 618 174 647 q 258 571 217 589 q 354 543 299 553 l 522 511 q 684 458 621 493 q 778 374 747 424 q 808 261 808 325 q 785 158 808 207 q 717 69 763 108 q 600 8 671 31 q 433 -14 529 -14 q 242 13 318 -14 q 124 82 167 39 q 63 175 81 125 l 163 206 q 203 147 174 175 q 289 102 233 119 q 435 85 344 85 q 584 108 525 85 q 672 172 643 132 q 701 261 701 213 q 681 331 701 300 q 617 382 660 361 q 510 415 575 403 l 347 446 q 191 494 254 464 q 97 573 128 525 q 67 690 67 621 q 90 784 67 740 q 160 861 114 828 q 276 914 207 894 q 439 933 346 933 q 613 909 542 933 q 726 847 683 885 q 789 765 769 808 l 688 733 m 519 1211 l 615 1211 l 474 1004 l 376 1004 l 519 1211 z "},"Š":{"ha":871,"x_min":63,"x_max":808,"o":"m 688 733 q 646 781 675 758 q 566 819 617 804 q 436 835 515 835 q 290 815 349 835 q 203 763 232 796 q 174 689 174 729 q 195 618 174 647 q 258 571 217 589 q 354 543 299 553 l 522 511 q 684 458 621 493 q 778 374 747 424 q 808 261 808 325 q 785 158 808 207 q 717 69 763 108 q 600 8 671 31 q 433 -14 529 -14 q 242 13 318 -14 q 124 82 167 39 q 63 175 81 125 l 163 206 q 203 147 174 175 q 289 102 233 119 q 435 85 344 85 q 584 108 525 85 q 672 172 643 132 q 701 261 701 213 q 681 331 701 300 q 617 382 660 361 q 510 415 575 403 l 347 446 q 191 494 254 464 q 97 573 128 525 q 67 690 67 621 q 90 784 67 740 q 160 861 114 828 q 276 914 207 894 q 439 933 346 933 q 613 909 542 933 q 726 847 683 885 q 789 765 769 808 l 688 733 m 486 999 l 364 999 l 221 1206 l 325 1206 l 425 1060 l 524 1206 l 628 1206 l 486 999 z "},"Ş":{"ha":871,"x_min":63,"x_max":808,"o":"m 688 733 q 646 781 675 758 q 566 819 617 804 q 436 835 515 835 q 290 815 349 835 q 203 763 232 796 q 174 689 174 729 q 195 618 174 647 q 258 571 217 589 q 354 543 299 553 l 522 511 q 684 458 621 493 q 778 374 747 424 q 808 261 808 325 q 774 135 808 194 q 669 37 739 76 q 489 -11 599 -3 l 481 -37 q 551 -74 524 -46 q 578 -143 578 -101 l 578 -151 q 536 -236 578 -203 q 443 -281 494 -269 l 388 -293 l 358 -214 l 433 -199 q 474 -181 454 -193 q 493 -142 493 -168 q 480 -113 493 -122 q 449 -104 467 -104 l 371 -104 l 401 -14 q 229 17 299 -10 q 119 86 160 44 q 63 175 79 128 l 163 206 q 203 147 174 175 q 289 102 233 119 q 435 85 344 85 q 584 108 525 85 q 672 172 643 132 q 701 261 701 213 q 681 331 701 300 q 617 382 660 361 q 510 415 575 403 l 347 446 q 191 494 254 464 q 97 573 128 525 q 67 690 67 621 q 90 784 67 740 q 160 861 114 828 q 276 914 207 894 q 439 933 346 933 q 613 909 542 933 q 726 847 683 885 q 789 765 769 808 l 688 733 z "},"Ŝ":{"ha":869,"x_min":63,"x_max":808,"o":"m 688 733 q 646 781 675 758 q 566 819 617 804 q 436 835 515 835 q 292 815 350 835 q 203 763 233 796 q 174 689 174 729 q 195 618 174 647 q 258 571 217 589 q 354 543 299 553 l 522 511 q 684 458 621 493 q 778 374 747 424 q 808 261 808 325 q 785 158 808 207 q 717 69 763 108 q 600 8 671 31 q 433 -14 529 -14 q 242 13 318 -14 q 124 82 167 39 q 63 175 81 125 l 163 206 q 204 147 175 175 q 289 102 233 119 q 436 85 344 85 q 584 108 525 85 q 672 172 643 132 q 701 261 701 213 q 681 331 701 300 q 617 382 660 361 q 510 415 575 403 l 349 446 q 192 494 254 464 q 98 573 129 525 q 67 690 67 621 q 90 784 67 740 q 160 861 114 828 q 277 914 207 894 q 439 933 347 933 q 613 909 543 933 q 726 847 683 885 q 790 765 769 808 l 688 733 m 488 1201 l 629 994 l 525 994 l 426 1139 l 326 994 l 222 994 l 365 1201 l 488 1201 z "},"Ș":{"ha":871,"x_min":63,"x_max":808,"o":"m 688 733 q 646 781 675 758 q 566 819 617 804 q 436 835 515 835 q 290 815 349 835 q 203 763 232 796 q 174 689 174 729 q 195 618 174 647 q 258 571 217 589 q 354 543 299 553 l 522 511 q 684 458 621 493 q 778 374 747 424 q 808 261 808 325 q 785 158 808 207 q 717 69 763 108 q 600 8 671 31 q 433 -14 529 -14 q 242 13 318 -14 q 124 82 167 39 q 63 175 81 125 l 163 206 q 203 147 174 175 q 289 102 233 119 q 435 85 344 85 q 584 108 525 85 q 672 172 643 132 q 701 261 701 213 q 681 331 701 300 q 617 382 660 361 q 510 415 575 403 l 347 446 q 191 494 254 464 q 97 573 128 525 q 67 690 67 621 q 90 784 67 740 q 160 861 114 828 q 276 914 207 894 q 439 933 346 933 q 613 909 542 933 q 726 847 683 885 q 789 765 769 808 l 688 733 m 468 -235 q 416 -213 438 -235 q 394 -160 394 -192 q 416 -108 394 -129 q 468 -86 438 -86 q 525 -109 499 -86 q 554 -175 551 -132 q 537 -285 557 -240 q 478 -358 517 -331 q 385 -400 439 -386 l 368 -340 q 451 -302 418 -326 q 483 -231 485 -278 q 476 -234 481 -233 q 468 -235 471 -235 z "},"Ṣ":{"ha":869,"x_min":63,"x_max":808,"o":"m 688 733 q 646 781 675 758 q 566 819 617 804 q 436 835 515 835 q 292 815 350 835 q 203 763 233 796 q 174 689 174 729 q 195 618 174 647 q 258 571 217 589 q 354 543 299 553 l 522 511 q 684 458 621 493 q 778 374 747 424 q 808 261 808 325 q 785 158 808 207 q 717 69 763 108 q 600 8 671 31 q 433 -14 529 -14 q 242 13 318 -14 q 124 82 167 39 q 63 175 81 125 l 163 206 q 204 147 175 175 q 289 102 233 119 q 436 85 344 85 q 584 108 525 85 q 672 172 643 132 q 701 261 701 213 q 681 331 701 300 q 617 382 660 361 q 510 415 575 403 l 349 446 q 192 494 254 464 q 98 573 129 525 q 67 690 67 621 q 90 784 67 740 q 160 861 114 828 q 277 914 207 894 q 439 933 347 933 q 613 909 543 933 q 726 847 683 885 q 790 765 769 808 l 688 733 m 458 -226 q 413 -208 432 -226 q 393 -162 393 -189 q 413 -117 393 -136 q 458 -97 432 -97 q 503 -117 485 -97 q 522 -162 522 -136 q 503 -208 522 -189 q 458 -226 485 -226 z "},"ẞ":{"ha":961,"x_min":119,"x_max":903,"o":"m 810 608 l 618 608 q 521 595 560 608 q 463 560 482 582 q 443 511 443 538 q 477 456 443 475 q 574 428 511 438 l 689 408 q 825 361 779 394 q 887 285 871 328 q 903 201 903 243 q 889 131 903 168 q 842 60 875 93 q 756 6 810 26 q 622 -15 701 -15 q 483 2 540 -15 q 385 51 425 19 q 318 126 346 83 l 394 186 q 436 140 411 164 q 504 101 461 117 q 617 85 547 85 q 722 103 682 85 q 781 147 763 121 q 799 200 799 174 q 772 272 799 246 q 672 311 746 299 l 564 328 q 425 369 474 342 q 357 433 376 396 q 338 513 338 469 q 365 603 338 558 q 456 678 393 649 q 628 708 519 708 l 703 708 q 703 717 703 713 q 703 725 703 721 q 681 822 703 785 q 625 880 660 860 q 549 908 590 900 q 468 915 508 915 q 386 906 429 915 q 307 874 343 897 q 248 811 271 851 q 225 710 225 771 l 225 1 l 119 1 l 119 711 q 149 852 119 794 q 228 945 179 910 q 340 997 278 981 q 468 1011 403 1013 q 594 999 533 1013 q 703 951 654 985 q 780 863 751 918 q 808 725 808 807 l 810 608 z "},"T":{"ha":819,"x_min":33,"x_max":786,"o":"m 786 818 l 463 818 l 463 0 l 357 0 l 357 818 l 33 818 l 33 917 l 786 917 l 786 818 z "},"Ŧ":{"ha":819,"x_min":33,"x_max":786,"o":"m 786 818 l 463 818 l 463 539 l 585 539 l 585 456 l 463 456 l 463 0 l 357 0 l 357 456 l 231 456 l 231 539 l 357 539 l 357 818 l 33 818 l 33 917 l 786 917 l 786 818 z "},"Ť":{"ha":819,"x_min":33,"x_max":786,"o":"m 786 818 l 463 818 l 463 0 l 357 0 l 357 818 l 33 818 l 33 917 l 786 917 l 786 818 m 485 999 l 363 999 l 219 1206 l 324 1206 l 424 1060 l 522 1206 l 626 1206 l 485 999 z "},"Ţ":{"ha":819,"x_min":33,"x_max":786,"o":"m 786 818 l 463 818 l 463 0 l 451 0 l 439 -37 q 509 -74 482 -46 q 536 -143 536 -101 l 536 -151 q 494 -236 536 -203 q 401 -281 453 -269 l 346 -293 l 317 -214 l 393 -199 q 433 -181 414 -193 q 451 -142 451 -168 q 438 -113 451 -122 q 408 -104 425 -104 l 331 -104 l 365 0 l 357 0 l 357 818 l 33 818 l 33 917 l 786 917 l 786 818 z "},"Ț":{"ha":819,"x_min":33,"x_max":786,"o":"m 786 818 l 463 818 l 463 0 l 357 0 l 357 818 l 33 818 l 33 917 l 786 917 l 786 818 m 426 -235 q 374 -213 396 -235 q 353 -160 353 -192 q 374 -108 353 -129 q 426 -86 396 -86 q 483 -109 457 -86 q 513 -175 510 -132 q 497 -285 517 -240 q 437 -358 476 -331 q 343 -400 397 -386 l 326 -340 q 410 -302 376 -326 q 442 -231 444 -278 q 434 -234 439 -233 q 426 -235 429 -235 z "},"U":{"ha":1018,"x_min":94,"x_max":924,"o":"m 510 -22 q 278 33 371 -22 q 140 191 186 89 q 94 432 94 293 l 94 917 l 201 917 l 201 432 q 234 242 201 322 q 335 119 267 163 q 510 76 403 76 q 683 119 615 76 q 784 242 751 163 q 817 432 817 322 l 817 917 l 924 917 l 924 432 q 878 191 924 293 q 740 33 832 89 q 510 -22 647 -22 z "},"Ú":{"ha":1018,"x_min":94,"x_max":924,"o":"m 510 -22 q 278 33 371 -22 q 140 191 186 89 q 94 432 94 293 l 94 917 l 201 917 l 201 432 q 234 242 201 322 q 335 119 267 163 q 510 76 403 76 q 683 119 615 76 q 784 242 751 163 q 817 432 817 322 l 817 917 l 924 917 l 924 432 q 878 191 924 293 q 740 33 832 89 q 510 -22 647 -22 m 608 1181 l 704 1181 l 563 974 l 467 974 l 608 1181 z "},"Ŭ":{"ha":1018,"x_min":94,"x_max":924,"o":"m 510 -22 q 278 33 371 -22 q 140 191 186 89 q 94 432 94 293 l 94 917 l 201 917 l 201 432 q 234 242 201 322 q 335 119 267 163 q 510 76 403 76 q 683 119 615 76 q 784 242 751 163 q 817 432 817 322 l 817 917 l 924 917 l 924 432 q 878 191 924 293 q 740 33 832 89 q 510 -22 647 -22 m 510 969 q 424 985 461 969 q 361 1033 386 1001 q 324 1111 336 1064 l 414 1111 q 444 1061 422 1082 q 510 1040 465 1040 q 577 1061 556 1040 q 607 1111 599 1082 l 697 1111 q 660 1033 685 1064 q 597 985 635 1001 q 510 969 560 969 z "},"Ǔ":{"ha":1018,"x_min":94,"x_max":924,"o":"m 510 -22 q 278 33 371 -22 q 140 191 186 89 q 94 432 94 293 l 94 917 l 201 917 l 201 432 q 234 242 201 322 q 335 119 267 163 q 510 76 403 76 q 683 119 615 76 q 784 242 751 163 q 817 432 817 322 l 817 917 l 924 917 l 924 432 q 878 191 924 293 q 740 33 832 89 q 510 -22 647 -22 m 575 968 l 453 968 l 311 1175 l 414 1175 l 514 1029 l 614 1175 l 718 1175 l 575 968 z "},"Û":{"ha":1018,"x_min":94,"x_max":924,"o":"m 510 -22 q 278 33 371 -22 q 140 191 186 89 q 94 432 94 293 l 94 917 l 201 917 l 201 432 q 234 242 201 322 q 335 119 267 163 q 510 76 403 76 q 683 119 615 76 q 784 242 751 163 q 817 432 817 322 l 817 917 l 924 917 l 924 432 q 878 191 924 293 q 740 33 832 89 q 510 -22 647 -22 m 576 1171 l 718 964 l 615 964 l 515 1108 l 415 964 l 311 964 l 454 1171 l 576 1171 z "},"Ȕ":{"ha":1018,"x_min":94,"x_max":924,"o":"m 510 -22 q 278 33 371 -22 q 140 191 186 89 q 94 432 94 293 l 94 917 l 201 917 l 201 432 q 234 242 201 322 q 335 119 267 163 q 510 76 403 76 q 683 119 615 76 q 784 242 751 163 q 817 432 817 322 l 817 917 l 924 917 l 924 432 q 878 191 924 293 q 740 33 832 89 q 510 -22 647 -22 m 285 1179 l 426 972 l 331 972 l 189 1179 l 285 1179 m 531 1179 l 672 972 l 576 972 l 435 1179 l 531 1179 z "},"Ü":{"ha":1018,"x_min":94,"x_max":924,"o":"m 510 -22 q 278 33 371 -22 q 140 191 186 89 q 94 432 94 293 l 94 917 l 201 917 l 201 432 q 234 242 201 322 q 335 119 267 163 q 510 76 403 76 q 683 119 615 76 q 784 242 751 163 q 817 432 817 322 l 817 917 l 924 917 l 924 432 q 878 191 924 293 q 740 33 832 89 q 510 -22 647 -22 m 406 1018 q 360 1037 379 1018 q 340 1082 340 1056 q 360 1128 340 1108 q 406 1147 379 1147 q 451 1128 432 1147 q 469 1082 469 1108 q 451 1037 469 1056 q 406 1018 432 1018 m 614 1018 q 568 1037 588 1018 q 549 1082 549 1056 q 568 1128 549 1108 q 614 1147 588 1147 q 659 1128 640 1147 q 678 1082 678 1108 q 659 1037 678 1056 q 614 1018 640 1018 z "},"Ụ":{"ha":1018,"x_min":94,"x_max":924,"o":"m 510 -22 q 278 33 371 -22 q 140 191 186 89 q 94 432 94 293 l 94 917 l 201 917 l 201 432 q 234 242 201 322 q 335 119 267 163 q 510 76 403 76 q 683 119 615 76 q 784 242 751 163 q 817 432 817 322 l 817 917 l 924 917 l 924 432 q 878 191 924 293 q 740 33 832 89 q 510 -22 647 -22 m 526 -226 q 481 -208 500 -226 q 461 -162 461 -189 q 481 -117 461 -136 q 526 -97 500 -97 q 572 -117 553 -97 q 590 -162 590 -136 q 572 -208 590 -189 q 526 -226 553 -226 z "},"Ù":{"ha":1018,"x_min":94,"x_max":924,"o":"m 510 -22 q 278 33 371 -22 q 140 191 186 89 q 94 432 94 293 l 94 917 l 201 917 l 201 432 q 234 242 201 322 q 335 119 267 163 q 510 76 403 76 q 683 119 615 76 q 784 242 751 163 q 817 432 817 322 l 817 917 l 924 917 l 924 432 q 878 191 924 293 q 740 33 832 89 q 510 -22 647 -22 m 429 1179 l 571 972 l 475 972 l 333 1179 l 429 1179 z "},"Ủ":{"ha":1018,"x_min":94,"x_max":924,"o":"m 510 -22 q 278 33 371 -22 q 140 191 186 89 q 94 432 94 293 l 94 917 l 201 917 l 201 432 q 234 242 201 322 q 335 119 267 163 q 510 76 403 76 q 683 119 615 76 q 784 242 751 163 q 817 432 817 322 l 817 917 l 924 917 l 924 432 q 878 191 924 293 q 740 33 832 89 q 510 -22 647 -22 m 539 1210 q 596 1197 572 1210 q 632 1163 619 1183 q 644 1122 644 1143 q 631 1070 644 1094 q 572 1029 618 1046 q 551 1015 554 1024 q 547 994 547 1007 l 547 982 l 472 982 l 472 1006 q 482 1042 472 1025 q 519 1071 492 1058 q 542 1081 529 1075 q 566 1095 556 1086 q 576 1118 576 1104 q 568 1138 576 1129 q 539 1147 560 1147 q 505 1138 515 1147 q 494 1106 494 1129 l 426 1106 q 442 1169 426 1146 q 483 1201 457 1192 q 539 1210 508 1210 z "},"Ư":{"ha":1235,"x_min":94,"x_max":1140,"o":"m 510 -22 q 278 33 371 -22 q 140 191 186 89 q 94 432 94 293 l 94 917 l 201 917 l 201 432 q 234 242 201 322 q 335 119 267 163 q 510 76 403 76 q 683 119 615 76 q 784 242 751 163 q 817 432 817 322 l 817 917 l 924 917 l 924 711 l 961 719 q 1011 751 996 728 q 1033 814 1026 774 q 1046 913 1039 854 l 1140 913 q 1126 803 1132 850 q 1106 724 1119 757 q 1061 671 1092 692 q 974 636 1031 650 l 924 624 l 924 432 q 878 191 924 293 q 740 33 832 89 q 510 -22 647 -22 z "},"Ứ":{"ha":1235,"x_min":94,"x_max":1140,"o":"m 510 -22 q 278 33 371 -22 q 140 191 186 89 q 94 432 94 293 l 94 917 l 201 917 l 201 432 q 234 242 201 322 q 335 119 267 163 q 510 76 403 76 q 683 119 615 76 q 784 242 751 163 q 817 432 817 322 l 817 917 l 924 917 l 924 711 l 961 719 q 1011 751 996 728 q 1033 814 1026 774 q 1046 913 1039 854 l 1140 913 q 1126 803 1132 850 q 1106 724 1119 757 q 1061 671 1092 692 q 974 636 1031 650 l 924 624 l 924 432 q 878 191 924 293 q 740 33 832 89 q 510 -22 647 -22 m 608 1181 l 704 1181 l 563 974 l 467 974 l 608 1181 z "},"Ự":{"ha":1235,"x_min":94,"x_max":1140,"o":"m 510 -22 q 278 33 371 -22 q 140 191 186 89 q 94 432 94 293 l 94 917 l 201 917 l 201 432 q 234 242 201 322 q 335 119 267 163 q 510 76 403 76 q 683 119 615 76 q 784 242 751 163 q 817 432 817 322 l 817 917 l 924 917 l 924 711 l 961 719 q 1011 751 996 728 q 1033 814 1026 774 q 1046 913 1039 854 l 1140 913 q 1126 803 1132 850 q 1106 724 1119 757 q 1061 671 1092 692 q 974 636 1031 650 l 924 624 l 924 432 q 878 191 924 293 q 740 33 832 89 q 510 -22 647 -22 m 526 -226 q 481 -208 500 -226 q 461 -162 461 -189 q 481 -117 461 -136 q 526 -97 500 -97 q 572 -117 553 -97 q 590 -162 590 -136 q 572 -208 590 -189 q 526 -226 553 -226 z "},"Ừ":{"ha":1235,"x_min":94,"x_max":1140,"o":"m 510 -22 q 278 33 371 -22 q 140 191 186 89 q 94 432 94 293 l 94 917 l 201 917 l 201 432 q 234 242 201 322 q 335 119 267 163 q 510 76 403 76 q 683 119 615 76 q 784 242 751 163 q 817 432 817 322 l 817 917 l 924 917 l 924 711 l 961 719 q 1011 751 996 728 q 1033 814 1026 774 q 1046 913 1039 854 l 1140 913 q 1126 803 1132 850 q 1106 724 1119 757 q 1061 671 1092 692 q 974 636 1031 650 l 924 624 l 924 432 q 878 191 924 293 q 740 33 832 89 q 510 -22 647 -22 m 429 1179 l 571 972 l 475 972 l 333 1179 l 429 1179 z "},"Ử":{"ha":1235,"x_min":94,"x_max":1140,"o":"m 510 -22 q 278 33 371 -22 q 140 191 186 89 q 94 432 94 293 l 94 917 l 201 917 l 201 432 q 234 242 201 322 q 335 119 267 163 q 510 76 403 76 q 683 119 615 76 q 784 242 751 163 q 817 432 817 322 l 817 917 l 924 917 l 924 711 l 961 719 q 1011 751 996 728 q 1033 814 1026 774 q 1046 913 1039 854 l 1140 913 q 1126 803 1132 850 q 1106 724 1119 757 q 1061 671 1092 692 q 974 636 1031 650 l 924 624 l 924 432 q 878 191 924 293 q 740 33 832 89 q 510 -22 647 -22 m 539 1210 q 596 1197 572 1210 q 632 1163 619 1183 q 644 1122 644 1143 q 631 1070 644 1094 q 572 1029 618 1046 q 551 1015 554 1024 q 547 994 547 1007 l 547 982 l 472 982 l 472 1006 q 482 1042 472 1025 q 519 1071 492 1058 q 542 1081 529 1075 q 566 1095 556 1086 q 576 1118 576 1104 q 568 1138 576 1129 q 539 1147 560 1147 q 505 1138 515 1147 q 494 1106 494 1129 l 426 1106 q 442 1169 426 1146 q 483 1201 457 1192 q 539 1210 508 1210 z "},"Ữ":{"ha":1235,"x_min":94,"x_max":1140,"o":"m 510 -22 q 278 33 371 -22 q 140 191 186 89 q 94 432 94 293 l 94 917 l 201 917 l 201 432 q 234 242 201 322 q 335 119 267 163 q 510 76 403 76 q 683 119 615 76 q 784 242 751 163 q 817 432 817 322 l 817 917 l 924 917 l 924 711 l 961 719 q 1011 751 996 728 q 1033 814 1026 774 q 1046 913 1039 854 l 1140 913 q 1126 803 1132 850 q 1106 724 1119 757 q 1061 671 1092 692 q 974 636 1031 650 l 924 624 l 924 432 q 878 191 924 293 q 740 33 832 89 q 510 -22 647 -22 m 547 1085 q 578 1057 565 1068 q 613 1046 592 1046 q 663 1073 651 1047 q 675 1125 674 1099 l 750 1125 q 735 1053 749 1090 q 692 990 721 1015 q 617 964 664 964 q 553 978 576 964 q 507 1015 529 993 q 474 1042 488 1033 q 440 1050 461 1051 q 402 1037 415 1049 q 385 1007 389 1025 q 379 971 381 989 l 304 971 q 319 1047 306 1010 q 363 1108 333 1085 q 439 1132 392 1132 q 504 1117 481 1132 q 547 1085 528 1101 z "},"Ű":{"ha":1018,"x_min":94,"x_max":924,"o":"m 510 -22 q 278 33 371 -22 q 140 191 186 89 q 94 432 94 293 l 94 917 l 201 917 l 201 432 q 234 242 201 322 q 335 119 267 163 q 510 76 403 76 q 683 119 615 76 q 784 242 751 163 q 817 432 817 322 l 817 917 l 924 917 l 924 432 q 878 191 924 293 q 740 33 832 89 q 510 -22 647 -22 m 458 1182 l 556 1182 l 413 975 l 317 975 l 458 1182 m 739 1182 l 836 1182 l 693 975 l 597 975 l 739 1182 z "},"Ȗ":{"ha":1018,"x_min":94,"x_max":924,"o":"m 510 -22 q 278 33 371 -22 q 140 191 186 89 q 94 432 94 293 l 94 917 l 201 917 l 201 432 q 234 242 201 322 q 335 119 267 163 q 510 76 403 76 q 683 119 615 76 q 784 242 751 163 q 817 432 817 322 l 817 917 l 924 917 l 924 432 q 878 191 924 293 q 740 33 832 89 q 510 -22 647 -22 m 510 1126 q 597 1110 560 1126 q 660 1063 635 1094 q 697 985 685 1032 l 607 985 q 577 1035 599 1015 q 510 1056 556 1056 q 444 1035 465 1056 q 414 985 422 1015 l 324 985 q 361 1063 336 1032 q 424 1110 386 1094 q 510 1126 461 1126 z "},"Ū":{"ha":1018,"x_min":94,"x_max":924,"o":"m 510 -22 q 278 33 371 -22 q 140 191 186 89 q 94 432 94 293 l 94 917 l 201 917 l 201 432 q 234 242 201 322 q 335 119 267 163 q 510 76 403 76 q 683 119 615 76 q 784 242 751 163 q 817 432 817 322 l 817 917 l 924 917 l 924 432 q 878 191 924 293 q 740 33 832 89 q 510 -22 647 -22 m 357 1089 l 675 1089 l 676 1006 l 357 1006 l 357 1089 z "},"Ų":{"ha":1018,"x_min":94,"x_max":924,"o":"m 94 432 l 94 917 l 201 917 l 201 432 q 234 242 201 322 q 335 119 267 163 q 510 76 403 76 q 683 119 615 76 q 784 242 751 163 q 817 432 817 322 l 817 917 l 924 917 l 924 432 q 869 174 924 282 q 707 17 815 67 q 633 -51 663 -17 q 588 -117 603 -85 q 574 -175 574 -149 q 588 -209 574 -194 q 622 -224 603 -224 q 679 -206 653 -224 l 707 -185 l 758 -264 l 704 -296 q 614 -319 664 -319 q 544 -303 576 -319 q 490 -258 511 -286 q 469 -194 469 -229 q 483 -117 469 -156 q 546 -21 496 -79 q 510 -22 528 -22 q 278 33 371 -22 q 140 191 186 89 q 94 432 94 293 z "},"Ů":{"ha":1018,"x_min":94,"x_max":924,"o":"m 510 -22 q 278 33 371 -22 q 140 191 186 89 q 94 432 94 293 l 94 917 l 201 917 l 201 432 q 234 242 201 322 q 335 119 267 163 q 510 76 403 76 q 683 119 615 76 q 784 242 751 163 q 817 432 817 322 l 817 917 l 924 917 l 924 432 q 878 191 924 293 q 740 33 832 89 q 510 -22 647 -22 m 567 1064 q 551 1111 567 1094 q 513 1128 535 1128 q 475 1111 490 1128 q 460 1064 460 1094 q 475 1017 460 1035 q 513 1000 490 1000 q 551 1017 535 1000 q 567 1064 567 1035 m 375 1064 q 394 1133 375 1101 q 444 1183 413 1164 q 513 1201 475 1201 q 583 1183 551 1201 q 632 1133 614 1164 q 650 1064 650 1101 q 632 995 650 1026 q 583 945 614 964 q 513 926 551 926 q 444 945 475 926 q 394 995 413 964 q 375 1064 375 1026 z "},"Ũ":{"ha":1018,"x_min":94,"x_max":924,"o":"m 510 -22 q 278 33 371 -22 q 140 191 186 89 q 94 432 94 293 l 94 917 l 201 917 l 201 432 q 234 242 201 322 q 335 119 267 163 q 510 76 403 76 q 683 119 615 76 q 784 242 751 163 q 817 432 817 322 l 817 917 l 924 917 l 924 432 q 878 191 924 293 q 740 33 832 89 q 510 -22 647 -22 m 547 1085 q 578 1057 565 1068 q 613 1046 592 1046 q 663 1073 651 1047 q 675 1125 674 1099 l 750 1125 q 735 1053 749 1090 q 692 990 721 1015 q 617 964 664 964 q 553 978 576 964 q 507 1015 529 993 q 474 1042 488 1033 q 440 1050 461 1051 q 402 1037 415 1049 q 385 1007 389 1025 q 379 971 381 989 l 304 971 q 319 1047 306 1010 q 363 1108 333 1085 q 439 1132 392 1132 q 504 1117 481 1132 q 547 1085 528 1101 z "},"V":{"ha":988,"x_min":36,"x_max":951,"o":"m 436 0 l 36 917 l 153 917 l 493 118 l 835 917 l 951 917 l 551 0 l 436 0 z "},"Ʌ":{"ha":988,"x_min":36,"x_max":951,"o":"m 436 917 l 551 917 l 951 0 l 835 0 l 494 799 l 153 0 l 36 0 l 436 917 z "},"W":{"ha":1469,"x_min":36,"x_max":1433,"o":"m 353 0 l 36 917 l 149 917 l 418 121 l 678 917 l 792 917 l 1051 121 l 1319 917 l 1433 917 l 1117 0 l 988 0 l 735 778 l 482 0 l 353 0 z "},"Ẃ":{"ha":1469,"x_min":36,"x_max":1433,"o":"m 839 1211 l 936 1211 l 793 1004 l 697 1004 l 839 1211 m 353 0 l 36 917 l 149 917 l 418 121 l 678 917 l 792 917 l 1051 121 l 1319 917 l 1433 917 l 1117 0 l 988 0 l 735 778 l 482 0 l 353 0 z "},"Ŵ":{"ha":1469,"x_min":36,"x_max":1433,"o":"m 807 1201 l 950 994 l 846 994 l 746 1139 l 647 994 l 543 994 l 685 1201 l 807 1201 m 353 0 l 36 917 l 149 917 l 418 121 l 678 917 l 792 917 l 1051 121 l 1319 917 l 1433 917 l 1117 0 l 988 0 l 735 778 l 482 0 l 353 0 z "},"Ẅ":{"ha":1469,"x_min":36,"x_max":1433,"o":"m 636 1049 q 591 1067 610 1049 q 572 1113 572 1086 q 591 1158 572 1139 q 636 1178 610 1178 q 682 1158 663 1178 q 701 1113 701 1139 q 682 1067 701 1086 q 636 1049 663 1049 m 844 1049 q 799 1067 818 1049 q 781 1113 781 1086 q 799 1158 781 1139 q 844 1178 818 1178 q 890 1158 871 1178 q 910 1113 910 1139 q 890 1067 910 1086 q 844 1049 871 1049 m 353 0 l 36 917 l 149 917 l 418 121 l 678 917 l 792 917 l 1051 121 l 1319 917 l 1433 917 l 1117 0 l 988 0 l 735 778 l 482 0 l 353 0 z "},"Ẁ":{"ha":1469,"x_min":36,"x_max":1433,"o":"m 660 1210 l 803 1003 l 706 1003 l 564 1210 l 660 1210 m 353 0 l 36 917 l 149 917 l 418 121 l 678 917 l 792 917 l 1051 121 l 1319 917 l 1433 917 l 1117 0 l 988 0 l 735 778 l 482 0 l 353 0 z "},"X":{"ha":846,"x_min":36,"x_max":810,"o":"m 36 0 l 361 467 l 51 917 l 171 917 l 422 547 l 675 917 l 793 917 l 485 467 l 810 0 l 682 0 l 422 385 l 164 0 l 36 0 z "},"Ẍ":{"ha":846,"x_min":36,"x_max":810,"o":"m 36 0 l 361 467 l 51 917 l 171 917 l 422 547 l 675 917 l 793 917 l 485 467 l 810 0 l 682 0 l 422 385 l 164 0 l 36 0 m 324 1049 q 278 1067 297 1049 q 258 1113 258 1086 q 278 1158 258 1139 q 324 1178 297 1178 q 369 1158 350 1178 q 388 1113 388 1139 q 369 1067 388 1086 q 324 1049 350 1049 m 532 1049 q 487 1067 506 1049 q 468 1113 468 1086 q 487 1158 468 1139 q 532 1178 506 1178 q 577 1158 558 1178 q 596 1113 596 1139 q 577 1067 596 1086 q 532 1049 558 1049 z "},"Y":{"ha":822,"x_min":33,"x_max":789,"o":"m 464 0 l 358 0 l 358 446 l 33 917 l 153 917 l 411 536 l 671 917 l 789 917 l 464 446 l 464 0 z "},"Ý":{"ha":822,"x_min":33,"x_max":789,"o":"m 464 0 l 358 0 l 358 446 l 33 917 l 153 917 l 411 536 l 671 917 l 789 917 l 464 446 l 464 0 m 504 1181 l 601 1181 l 458 974 l 363 974 l 504 1181 z "},"Ŷ":{"ha":822,"x_min":33,"x_max":789,"o":"m 464 0 l 358 0 l 358 446 l 33 917 l 153 917 l 411 536 l 671 917 l 789 917 l 464 446 l 464 0 m 472 1171 l 615 964 l 511 964 l 411 1108 l 313 964 l 208 964 l 350 1171 l 472 1171 z "},"Ÿ":{"ha":822,"x_min":33,"x_max":789,"o":"m 464 0 l 358 0 l 358 446 l 33 917 l 153 917 l 411 536 l 671 917 l 789 917 l 464 446 l 464 0 m 301 1018 q 256 1037 275 1018 q 238 1082 238 1056 q 256 1128 238 1108 q 301 1147 275 1147 q 347 1128 328 1147 q 367 1082 367 1108 q 347 1037 367 1056 q 301 1018 328 1018 m 510 1018 q 465 1037 483 1018 q 446 1082 446 1056 q 465 1128 446 1108 q 510 1147 483 1147 q 556 1128 538 1147 q 575 1082 575 1108 q 556 1037 575 1056 q 510 1018 538 1018 z "},"Ỵ":{"ha":822,"x_min":33,"x_max":789,"o":"m 464 0 l 358 0 l 358 446 l 33 917 l 153 917 l 411 536 l 671 917 l 789 917 l 464 446 l 464 0 m 410 -226 q 363 -208 382 -226 q 344 -162 344 -189 q 363 -117 344 -136 q 410 -97 382 -97 q 455 -117 436 -97 q 474 -162 474 -136 q 455 -208 474 -189 q 410 -226 436 -226 z "},"Ỳ":{"ha":822,"x_min":33,"x_max":789,"o":"m 464 0 l 358 0 l 358 446 l 33 917 l 153 917 l 411 536 l 671 917 l 789 917 l 464 446 l 464 0 m 325 1179 l 468 972 l 371 972 l 229 1179 l 325 1179 z "},"Ƴ":{"ha":822,"x_min":33,"x_max":838,"o":"m 464 0 l 358 0 l 358 446 l 33 917 l 153 917 l 411 536 l 544 731 q 618 839 588 793 q 682 910 649 885 q 765 933 715 935 q 804 929 785 932 q 838 922 824 926 l 818 828 q 801 831 810 829 q 783 833 792 832 q 744 830 758 836 q 718 809 731 824 q 688 769 706 794 l 464 446 l 464 0 z "},"Ỷ":{"ha":822,"x_min":33,"x_max":789,"o":"m 464 0 l 358 0 l 358 446 l 33 917 l 153 917 l 411 536 l 671 917 l 789 917 l 464 446 l 464 0 m 436 1210 q 492 1197 468 1210 q 528 1163 515 1183 q 540 1122 540 1143 q 527 1070 540 1094 q 468 1029 514 1046 q 447 1015 450 1024 q 443 994 443 1007 l 443 982 l 369 982 l 369 1006 q 379 1042 369 1025 q 417 1071 389 1058 q 438 1081 425 1075 q 462 1095 451 1086 q 472 1118 472 1104 q 464 1138 472 1129 q 435 1147 456 1147 q 402 1138 413 1147 q 392 1106 392 1129 l 324 1106 q 338 1169 324 1146 q 378 1201 353 1192 q 436 1210 404 1210 z "},"Ȳ":{"ha":822,"x_min":33,"x_max":789,"o":"m 464 0 l 358 0 l 358 446 l 33 917 l 153 917 l 411 536 l 671 917 l 789 917 l 464 446 l 464 0 m 253 1089 l 572 1089 l 572 1006 l 253 1006 l 253 1089 z "},"Ỹ":{"ha":822,"x_min":33,"x_max":789,"o":"m 464 0 l 358 0 l 358 446 l 33 917 l 153 917 l 411 536 l 671 917 l 789 917 l 464 446 l 464 0 m 443 1085 q 476 1057 463 1068 q 510 1046 489 1046 q 558 1073 547 1047 q 571 1125 569 1099 l 646 1125 q 631 1053 644 1090 q 589 990 618 1015 q 514 964 560 964 q 449 978 472 964 q 403 1015 425 993 q 370 1042 383 1033 q 336 1050 357 1051 q 299 1037 311 1049 q 281 1007 286 1025 q 276 971 276 989 l 201 971 q 216 1047 201 1010 q 260 1108 231 1085 q 335 1132 289 1132 q 401 1117 376 1132 q 443 1085 425 1101 z "},"Z":{"ha":775,"x_min":40,"x_max":731,"o":"m 40 43 l 578 818 l 67 818 l 67 917 l 731 917 l 731 871 l 196 99 l 703 99 l 703 0 l 40 0 l 40 43 z "},"Ź":{"ha":775,"x_min":40,"x_max":731,"o":"m 40 43 l 578 818 l 67 818 l 67 917 l 731 917 l 731 871 l 196 99 l 703 99 l 703 0 l 40 0 l 40 43 m 506 1211 l 601 1211 l 460 1004 l 364 1004 l 506 1211 z "},"Ž":{"ha":775,"x_min":40,"x_max":731,"o":"m 40 43 l 578 818 l 67 818 l 67 917 l 731 917 l 731 871 l 196 99 l 703 99 l 703 0 l 40 0 l 40 43 m 472 999 l 350 999 l 208 1206 l 313 1206 l 411 1060 l 511 1206 l 615 1206 l 472 999 z "},"Ż":{"ha":775,"x_min":40,"x_max":731,"o":"m 40 43 l 578 818 l 67 818 l 67 917 l 731 917 l 731 871 l 196 99 l 703 99 l 703 0 l 40 0 l 40 43 m 411 1047 q 365 1066 385 1047 q 346 1111 346 1085 q 365 1158 346 1139 q 411 1176 385 1176 q 456 1158 438 1176 q 475 1111 475 1139 q 456 1066 475 1085 q 411 1047 438 1047 z "},"Ẓ":{"ha":775,"x_min":40,"x_max":731,"o":"m 40 43 l 578 818 l 67 818 l 67 917 l 731 917 l 731 871 l 196 99 l 703 99 l 703 0 l 40 0 l 40 43 m 386 -226 q 341 -208 360 -226 q 322 -162 322 -189 q 341 -117 322 -136 q 386 -97 360 -97 q 433 -117 414 -97 q 451 -162 451 -136 q 433 -208 451 -189 q 386 -226 414 -226 z "},"a":{"ha":756,"x_min":67,"x_max":667,"o":"m 321 -15 q 171 15 226 -15 q 91 92 115 44 q 67 190 67 139 l 67 208 q 82 288 67 246 q 140 362 97 329 q 263 403 182 394 l 436 424 q 529 441 503 431 q 556 479 556 451 q 507 578 556 546 q 367 611 458 611 q 281 601 319 611 q 216 571 243 592 q 175 517 189 550 l 75 550 q 123 624 92 593 q 197 674 154 656 q 286 701 239 693 q 381 710 333 710 q 549 676 486 707 q 640 581 613 644 q 667 419 667 518 l 667 0 l 561 0 l 561 106 q 511 47 546 75 q 427 2 476 19 q 321 -15 378 -15 m 319 83 q 455 113 401 83 q 534 183 508 142 q 561 261 560 224 q 561 318 561 286 q 561 367 561 350 q 522 347 550 354 q 442 335 493 340 l 283 315 q 199 281 226 308 q 172 210 172 253 l 172 199 q 185 143 172 169 q 231 100 199 117 q 319 83 263 83 z "},"á":{"ha":756,"x_min":67,"x_max":667,"o":"m 321 -15 q 171 15 226 -15 q 91 92 115 44 q 67 190 67 139 l 67 208 q 82 288 67 246 q 140 362 97 329 q 263 403 182 394 l 436 424 q 529 441 503 431 q 556 479 556 451 q 507 578 556 546 q 367 611 458 611 q 281 601 319 611 q 216 571 243 592 q 175 517 189 550 l 75 550 q 123 624 92 593 q 197 674 154 656 q 286 701 239 693 q 381 710 333 710 q 549 676 486 707 q 640 581 613 644 q 667 419 667 518 l 667 0 l 561 0 l 561 106 q 511 47 546 75 q 427 2 476 19 q 321 -15 378 -15 m 319 83 q 455 113 401 83 q 534 183 508 142 q 561 261 560 224 q 561 318 561 286 q 561 367 561 350 q 522 347 550 354 q 442 335 493 340 l 283 315 q 199 281 226 308 q 172 210 172 253 l 172 199 q 185 143 172 169 q 231 100 199 117 q 319 83 263 83 m 319 782 l 461 989 l 558 989 l 417 782 l 319 782 z "},"ă":{"ha":756,"x_min":67,"x_max":667,"o":"m 321 -15 q 171 15 226 -15 q 91 92 115 44 q 67 190 67 139 l 67 208 q 82 288 67 246 q 140 362 97 329 q 263 403 182 394 l 436 424 q 529 441 503 431 q 556 479 556 451 q 507 578 556 546 q 367 611 458 611 q 281 601 319 611 q 216 571 243 592 q 175 517 189 550 l 75 550 q 123 624 92 593 q 197 674 154 656 q 286 701 239 693 q 381 710 333 710 q 549 676 486 707 q 640 581 613 644 q 667 419 667 518 l 667 0 l 561 0 l 561 106 q 511 47 546 75 q 427 2 476 19 q 321 -15 378 -15 m 319 83 q 455 113 401 83 q 534 183 508 142 q 561 261 560 224 q 561 318 561 286 q 561 367 561 350 q 522 347 550 354 q 442 335 493 340 l 283 315 q 199 281 226 308 q 172 210 172 253 l 172 199 q 185 143 172 169 q 231 100 199 117 q 319 83 263 83 m 364 778 q 276 793 314 778 q 215 840 239 808 q 178 918 190 872 l 267 918 q 297 869 275 889 q 364 849 318 849 q 431 869 408 849 q 461 918 453 889 l 550 918 q 513 840 538 872 q 451 793 488 808 q 364 778 414 778 z "},"ắ":{"ha":756,"x_min":67,"x_max":667,"o":"m 321 -15 q 171 15 226 -15 q 91 92 115 44 q 67 190 67 139 l 67 208 q 82 288 67 246 q 140 362 97 329 q 263 403 182 394 l 436 424 q 529 441 503 431 q 556 479 556 451 q 507 578 556 546 q 367 611 458 611 q 281 601 319 611 q 216 571 243 592 q 175 517 189 550 l 75 550 q 123 624 92 593 q 197 674 154 656 q 286 701 239 693 q 381 710 333 710 q 549 676 486 707 q 640 581 613 644 q 667 419 667 518 l 667 0 l 561 0 l 561 106 q 511 47 546 75 q 427 2 476 19 q 321 -15 378 -15 m 319 83 q 455 113 401 83 q 534 183 508 142 q 561 261 560 224 q 561 318 561 286 q 561 367 561 350 q 522 347 550 354 q 442 335 493 340 l 283 315 q 199 281 226 308 q 172 210 172 253 l 172 199 q 185 143 172 169 q 231 100 199 117 q 319 83 263 83 m 364 778 q 276 793 314 778 q 215 840 239 808 q 178 918 190 872 l 267 918 q 297 869 275 889 q 364 849 318 849 q 431 869 408 849 q 461 918 453 889 l 550 918 q 513 840 538 872 q 451 793 488 808 q 364 778 414 778 m 329 935 l 471 1142 l 567 1142 l 425 935 l 329 935 z "},"ặ":{"ha":756,"x_min":67,"x_max":667,"o":"m 321 -15 q 171 15 226 -15 q 91 92 115 44 q 67 190 67 139 l 67 208 q 82 288 67 246 q 140 362 97 329 q 263 403 182 394 l 436 424 q 529 441 503 431 q 556 479 556 451 q 507 578 556 546 q 367 611 458 611 q 281 601 319 611 q 216 571 243 592 q 175 517 189 550 l 75 550 q 123 624 92 593 q 197 674 154 656 q 286 701 239 693 q 381 710 333 710 q 549 676 486 707 q 640 581 613 644 q 667 419 667 518 l 667 0 l 561 0 l 561 106 q 511 47 546 75 q 427 2 476 19 q 321 -15 378 -15 m 374 -226 q 328 -208 347 -226 q 310 -162 310 -189 q 328 -117 310 -136 q 374 -97 347 -97 q 420 -117 401 -97 q 439 -162 439 -136 q 420 -208 439 -189 q 374 -226 401 -226 m 319 83 q 455 113 401 83 q 534 183 508 142 q 561 261 560 224 q 561 318 561 286 q 561 367 561 350 q 522 347 550 354 q 442 335 493 340 l 283 315 q 199 281 226 308 q 172 210 172 253 l 172 199 q 185 143 172 169 q 231 100 199 117 q 319 83 263 83 m 364 778 q 276 793 314 778 q 215 840 239 808 q 178 918 190 872 l 267 918 q 297 869 275 889 q 364 849 318 849 q 431 869 408 849 q 461 918 453 889 l 550 918 q 513 840 538 872 q 451 793 488 808 q 364 778 414 778 z "},"ằ":{"ha":756,"x_min":67,"x_max":667,"o":"m 321 -15 q 171 15 226 -15 q 91 92 115 44 q 67 190 67 139 l 67 208 q 82 288 67 246 q 140 362 97 329 q 263 403 182 394 l 436 424 q 529 441 503 431 q 556 479 556 451 q 507 578 556 546 q 367 611 458 611 q 281 601 319 611 q 216 571 243 592 q 175 517 189 550 l 75 550 q 123 624 92 593 q 197 674 154 656 q 286 701 239 693 q 381 710 333 710 q 549 676 486 707 q 640 581 613 644 q 667 419 667 518 l 667 0 l 561 0 l 561 106 q 511 47 546 75 q 427 2 476 19 q 321 -15 378 -15 m 319 83 q 455 113 401 83 q 534 183 508 142 q 561 261 560 224 q 561 318 561 286 q 561 367 561 350 q 522 347 550 354 q 442 335 493 340 l 283 315 q 199 281 226 308 q 172 210 172 253 l 172 199 q 185 143 172 169 q 231 100 199 117 q 319 83 263 83 m 364 778 q 276 793 314 778 q 215 840 239 808 q 178 918 190 872 l 267 918 q 297 869 275 889 q 364 849 318 849 q 431 869 408 849 q 461 918 453 889 l 550 918 q 513 840 538 872 q 451 793 488 808 q 364 778 414 778 m 325 933 l 183 1140 l 279 1140 l 422 933 l 325 933 z "},"ẳ":{"ha":756,"x_min":67,"x_max":667,"o":"m 321 -15 q 171 15 226 -15 q 91 92 115 44 q 67 190 67 139 l 67 208 q 82 288 67 246 q 140 362 97 329 q 263 403 182 394 l 436 424 q 529 441 503 431 q 556 479 556 451 q 507 578 556 546 q 367 611 458 611 q 281 601 319 611 q 216 571 243 592 q 175 517 189 550 l 75 550 q 123 624 92 593 q 197 674 154 656 q 286 701 239 693 q 381 710 333 710 q 549 676 486 707 q 640 581 613 644 q 667 419 667 518 l 667 0 l 561 0 l 561 106 q 511 47 546 75 q 427 2 476 19 q 321 -15 378 -15 m 319 83 q 455 113 401 83 q 534 183 508 142 q 561 261 560 224 q 561 318 561 286 q 561 367 561 350 q 522 347 550 354 q 442 335 493 340 l 283 315 q 199 281 226 308 q 172 210 172 253 l 172 199 q 185 143 172 169 q 231 100 199 117 q 319 83 263 83 m 364 778 q 276 793 314 778 q 215 840 239 808 q 178 918 190 872 l 267 918 q 297 869 275 889 q 364 849 318 849 q 431 869 408 849 q 461 918 453 889 l 550 918 q 513 840 538 872 q 451 793 488 808 q 364 778 414 778 m 324 943 l 324 965 q 333 1003 324 986 q 371 1032 343 1019 q 392 1042 379 1036 q 416 1056 406 1047 q 426 1078 426 1065 q 418 1099 426 1090 q 389 1108 410 1108 q 356 1099 367 1108 q 346 1067 346 1090 l 278 1067 q 292 1130 278 1107 q 333 1162 307 1153 q 390 1171 358 1171 q 446 1158 422 1171 q 482 1124 469 1144 q 494 1083 494 1104 q 481 1031 494 1056 q 422 990 468 1007 q 401 976 404 983 q 397 956 397 968 l 397 943 l 324 943 z "},"ẵ":{"ha":756,"x_min":67,"x_max":667,"o":"m 321 -15 q 171 15 226 -15 q 91 92 115 44 q 67 190 67 139 l 67 208 q 82 288 67 246 q 140 362 97 329 q 263 403 182 394 l 436 424 q 529 441 503 431 q 556 479 556 451 q 507 578 556 546 q 367 611 458 611 q 281 601 319 611 q 216 571 243 592 q 175 517 189 550 l 75 550 q 123 624 92 593 q 197 674 154 656 q 286 701 239 693 q 381 710 333 710 q 549 676 486 707 q 640 581 613 644 q 667 419 667 518 l 667 0 l 561 0 l 561 106 q 511 47 546 75 q 427 2 476 19 q 321 -15 378 -15 m 319 83 q 455 113 401 83 q 534 183 508 142 q 561 261 560 224 q 561 318 561 286 q 561 367 561 350 q 522 347 550 354 q 442 335 493 340 l 283 315 q 199 281 226 308 q 172 210 172 253 l 172 199 q 185 143 172 169 q 231 100 199 117 q 319 83 263 83 m 364 778 q 276 793 314 778 q 215 840 239 808 q 178 918 190 872 l 267 918 q 297 869 275 889 q 364 849 318 849 q 431 869 408 849 q 461 918 453 889 l 550 918 q 513 840 538 872 q 451 793 488 808 q 364 778 414 778 m 463 974 q 398 988 421 974 q 353 1024 375 1003 q 320 1051 333 1043 q 286 1060 307 1060 q 247 1047 260 1058 q 231 1017 235 1035 q 225 981 226 999 l 150 981 q 165 1056 151 1019 q 208 1117 179 1093 q 283 1142 238 1142 q 349 1126 325 1142 q 392 1094 374 1111 q 424 1066 411 1076 q 458 1056 438 1056 q 508 1082 497 1057 q 519 1135 518 1107 l 594 1135 q 581 1063 594 1100 q 538 999 567 1025 q 463 974 510 974 z "},"ǎ":{"ha":756,"x_min":67,"x_max":667,"o":"m 321 -15 q 171 15 226 -15 q 91 92 115 44 q 67 190 67 139 l 67 208 q 82 288 67 246 q 140 362 97 329 q 263 403 182 394 l 436 424 q 529 441 503 431 q 556 479 556 451 q 507 578 556 546 q 367 611 458 611 q 281 601 319 611 q 216 571 243 592 q 175 517 189 550 l 75 550 q 123 624 92 593 q 197 674 154 656 q 286 701 239 693 q 381 710 333 710 q 549 676 486 707 q 640 581 613 644 q 667 419 667 518 l 667 0 l 561 0 l 561 106 q 511 47 546 75 q 427 2 476 19 q 321 -15 378 -15 m 319 83 q 455 113 401 83 q 534 183 508 142 q 561 261 560 224 q 561 318 561 286 q 561 367 561 350 q 522 347 550 354 q 442 335 493 340 l 283 315 q 199 281 226 308 q 172 210 172 253 l 172 199 q 185 143 172 169 q 231 100 199 117 q 319 83 263 83 m 306 775 l 164 982 l 268 982 l 368 838 l 467 982 l 571 982 l 429 775 l 306 775 z "},"â":{"ha":756,"x_min":67,"x_max":667,"o":"m 321 -15 q 171 15 226 -15 q 91 92 115 44 q 67 190 67 139 l 67 208 q 82 288 67 246 q 140 362 97 329 q 263 403 182 394 l 436 424 q 529 441 503 431 q 556 479 556 451 q 507 578 556 546 q 367 611 458 611 q 281 601 319 611 q 216 571 243 592 q 175 517 189 550 l 75 550 q 123 624 92 593 q 197 674 154 656 q 286 701 239 693 q 381 710 333 710 q 549 676 486 707 q 640 581 613 644 q 667 419 667 518 l 667 0 l 561 0 l 561 106 q 511 47 546 75 q 427 2 476 19 q 321 -15 378 -15 m 319 83 q 455 113 401 83 q 534 183 508 142 q 561 261 560 224 q 561 318 561 286 q 561 367 561 350 q 522 347 550 354 q 442 335 493 340 l 283 315 q 199 281 226 308 q 172 210 172 253 l 172 199 q 185 143 172 169 q 231 100 199 117 q 319 83 263 83 m 165 772 l 307 978 l 429 978 l 572 772 l 468 772 l 368 917 l 269 772 l 165 772 z "},"ấ":{"ha":756,"x_min":67,"x_max":667,"o":"m 321 -15 q 171 15 226 -15 q 91 92 115 44 q 67 190 67 139 l 67 208 q 82 288 67 246 q 140 362 97 329 q 263 403 182 394 l 436 424 q 529 441 503 431 q 556 479 556 451 q 507 578 556 546 q 367 611 458 611 q 281 601 319 611 q 216 571 243 592 q 175 517 189 550 l 75 550 q 123 624 92 593 q 197 674 154 656 q 286 701 239 693 q 381 710 333 710 q 549 676 486 707 q 640 581 613 644 q 667 419 667 518 l 667 0 l 561 0 l 561 106 q 511 47 546 75 q 427 2 476 19 q 321 -15 378 -15 m 319 83 q 455 113 401 83 q 534 183 508 142 q 561 261 560 224 q 561 318 561 286 q 561 367 561 350 q 522 347 550 354 q 442 335 493 340 l 283 315 q 199 281 226 308 q 172 210 172 253 l 172 199 q 185 143 172 169 q 231 100 199 117 q 319 83 263 83 m 93 892 l 235 1099 l 332 1099 l 190 892 l 93 892 m 165 772 l 307 978 l 429 978 l 572 772 l 468 772 l 368 917 l 269 772 l 165 772 z "},"ậ":{"ha":756,"x_min":67,"x_max":667,"o":"m 321 -15 q 171 15 226 -15 q 91 92 115 44 q 67 190 67 139 l 67 208 q 82 288 67 246 q 140 362 97 329 q 263 403 182 394 l 436 424 q 529 441 503 431 q 556 479 556 451 q 507 578 556 546 q 367 611 458 611 q 281 601 319 611 q 216 571 243 592 q 175 517 189 550 l 75 550 q 123 624 92 593 q 197 674 154 656 q 286 701 239 693 q 381 710 333 710 q 549 676 486 707 q 640 581 613 644 q 667 419 667 518 l 667 0 l 561 0 l 561 106 q 511 47 546 75 q 427 2 476 19 q 321 -15 378 -15 m 374 -226 q 328 -208 347 -226 q 310 -162 310 -189 q 328 -117 310 -136 q 374 -97 347 -97 q 420 -117 401 -97 q 439 -162 439 -136 q 420 -208 439 -189 q 374 -226 401 -226 m 319 83 q 455 113 401 83 q 534 183 508 142 q 561 261 560 224 q 561 318 561 286 q 561 367 561 350 q 522 347 550 354 q 442 335 493 340 l 283 315 q 199 281 226 308 q 172 210 172 253 l 172 199 q 185 143 172 169 q 231 100 199 117 q 319 83 263 83 m 165 772 l 307 978 l 429 978 l 572 772 l 468 772 l 368 917 l 269 772 l 165 772 z "},"ầ":{"ha":756,"x_min":67,"x_max":667,"o":"m 321 -15 q 171 15 226 -15 q 91 92 115 44 q 67 190 67 139 l 67 208 q 82 288 67 246 q 140 362 97 329 q 263 403 182 394 l 436 424 q 529 441 503 431 q 556 479 556 451 q 507 578 556 546 q 367 611 458 611 q 281 601 319 611 q 216 571 243 592 q 175 517 189 550 l 75 550 q 123 624 92 593 q 197 674 154 656 q 286 701 239 693 q 381 710 333 710 q 549 676 486 707 q 640 581 613 644 q 667 419 667 518 l 667 0 l 561 0 l 561 106 q 511 47 546 75 q 427 2 476 19 q 321 -15 378 -15 m 319 83 q 455 113 401 83 q 534 183 508 142 q 561 261 560 224 q 561 318 561 286 q 561 367 561 350 q 522 347 550 354 q 442 335 493 340 l 283 315 q 199 281 226 308 q 172 210 172 253 l 172 199 q 185 143 172 169 q 231 100 199 117 q 319 83 263 83 m 151 772 l 293 978 l 417 978 l 558 772 l 454 772 l 354 917 l 256 772 l 151 772 m 542 890 l 400 1097 l 496 1097 l 638 890 l 542 890 z "},"ẩ":{"ha":800,"x_min":67,"x_max":711,"o":"m 321 -15 q 171 15 226 -15 q 91 92 115 44 q 67 190 67 139 l 67 208 q 82 288 67 246 q 140 362 97 329 q 263 403 182 394 l 436 424 q 529 441 503 431 q 556 479 556 451 q 507 578 556 546 q 367 611 458 611 q 281 601 319 611 q 216 571 243 592 q 175 517 189 550 l 75 550 q 123 624 92 593 q 197 674 154 656 q 286 701 239 693 q 381 710 333 710 q 549 676 486 707 q 640 581 613 644 q 667 419 667 518 l 667 0 l 561 0 l 561 106 q 511 47 546 75 q 427 2 476 19 q 321 -15 378 -15 m 319 83 q 455 113 401 83 q 534 183 508 142 q 561 261 560 224 q 561 318 561 286 q 561 367 561 350 q 522 347 550 354 q 442 335 493 340 l 283 315 q 199 281 226 308 q 172 210 172 253 l 172 199 q 185 143 172 169 q 231 100 199 117 q 319 83 263 83 m 165 772 l 307 978 l 429 978 l 572 772 l 468 772 l 368 917 l 269 772 l 165 772 m 540 900 l 540 922 q 550 960 540 943 q 588 989 560 976 q 609 999 596 993 q 633 1013 622 1004 q 643 1035 643 1022 q 635 1056 643 1047 q 606 1065 626 1065 q 573 1056 583 1065 q 563 1024 563 1047 l 494 1024 q 509 1087 494 1064 q 549 1119 524 1110 q 607 1128 575 1128 q 663 1115 639 1128 q 699 1081 686 1101 q 711 1040 711 1061 q 698 988 711 1013 q 639 947 685 964 q 617 933 621 940 q 614 913 614 925 l 614 900 l 540 900 z "},"ẫ":{"ha":756,"x_min":67,"x_max":667,"o":"m 321 -15 q 171 15 226 -15 q 91 92 115 44 q 67 190 67 139 l 67 208 q 82 288 67 246 q 140 362 97 329 q 263 403 182 394 l 436 424 q 529 441 503 431 q 556 479 556 451 q 507 578 556 546 q 367 611 458 611 q 281 601 319 611 q 216 571 243 592 q 175 517 189 550 l 75 550 q 123 624 92 593 q 197 674 154 656 q 286 701 239 693 q 381 710 333 710 q 549 676 486 707 q 640 581 613 644 q 667 419 667 518 l 667 0 l 561 0 l 561 106 q 511 47 546 75 q 427 2 476 19 q 321 -15 378 -15 m 319 83 q 455 113 401 83 q 534 183 508 142 q 561 261 560 224 q 561 318 561 286 q 561 367 561 350 q 522 347 550 354 q 442 335 493 340 l 283 315 q 199 281 226 308 q 172 210 172 253 l 172 199 q 185 143 172 169 q 231 100 199 117 q 319 83 263 83 m 165 772 l 307 978 l 429 978 l 572 772 l 468 772 l 368 917 l 269 772 l 165 772 m 479 1018 q 415 1033 439 1018 q 369 1068 392 1047 q 337 1095 350 1086 q 303 1104 324 1104 q 265 1090 278 1103 q 247 1060 251 1078 q 242 1024 243 1043 l 167 1024 q 182 1101 168 1064 q 225 1162 196 1138 q 301 1186 254 1186 q 367 1170 343 1185 q 410 1138 390 1156 q 441 1110 428 1121 q 475 1100 454 1100 q 525 1126 514 1101 q 538 1179 536 1151 l 613 1179 q 597 1107 611 1144 q 555 1044 583 1069 q 479 1018 526 1018 z "},"ȁ":{"ha":756,"x_min":42,"x_max":667,"o":"m 321 -15 q 171 15 226 -15 q 91 92 115 44 q 67 190 67 139 l 67 208 q 82 288 67 246 q 140 362 97 329 q 263 403 182 394 l 436 424 q 529 441 503 431 q 556 479 556 451 q 507 578 556 546 q 367 611 458 611 q 281 601 319 611 q 216 571 243 592 q 175 517 189 550 l 75 550 q 123 624 92 593 q 197 674 154 656 q 286 701 239 693 q 381 710 333 710 q 549 676 486 707 q 640 581 613 644 q 667 419 667 518 l 667 0 l 561 0 l 561 106 q 511 47 546 75 q 427 2 476 19 q 321 -15 378 -15 m 319 83 q 455 113 401 83 q 534 183 508 142 q 561 261 560 224 q 561 318 561 286 q 561 367 561 350 q 522 347 550 354 q 442 335 493 340 l 283 315 q 199 281 226 308 q 172 210 172 253 l 172 199 q 185 143 172 169 q 231 100 199 117 q 319 83 263 83 m 183 781 l 42 988 l 139 988 l 281 781 l 183 781 m 429 781 l 288 988 l 385 988 l 526 781 l 429 781 z "},"ä":{"ha":756,"x_min":67,"x_max":667,"o":"m 321 -15 q 171 15 226 -15 q 91 92 115 44 q 67 190 67 139 l 67 208 q 82 288 67 246 q 140 362 97 329 q 263 403 182 394 l 436 424 q 529 441 503 431 q 556 479 556 451 q 507 578 556 546 q 367 611 458 611 q 281 601 319 611 q 216 571 243 592 q 175 517 189 550 l 75 550 q 123 624 92 593 q 197 674 154 656 q 286 701 239 693 q 381 710 333 710 q 549 676 486 707 q 640 581 613 644 q 667 419 667 518 l 667 0 l 561 0 l 561 106 q 511 47 546 75 q 427 2 476 19 q 321 -15 378 -15 m 319 83 q 455 113 401 83 q 534 183 508 142 q 561 261 560 224 q 561 318 561 286 q 561 367 561 350 q 522 347 550 354 q 442 335 493 340 l 283 315 q 199 281 226 308 q 172 210 172 253 l 172 199 q 185 143 172 169 q 231 100 199 117 q 319 83 263 83 m 258 825 q 213 844 232 825 q 194 890 194 864 q 213 935 194 917 q 258 954 232 954 q 305 935 286 954 q 324 890 324 917 q 305 844 324 864 q 258 825 286 825 m 467 825 q 422 844 440 825 q 403 890 403 864 q 422 935 403 917 q 467 954 440 954 q 513 935 494 954 q 532 890 532 917 q 513 844 532 864 q 467 825 494 825 z "},"ạ":{"ha":756,"x_min":67,"x_max":667,"o":"m 321 -15 q 171 15 226 -15 q 91 92 115 44 q 67 190 67 139 l 67 208 q 82 288 67 246 q 140 362 97 329 q 263 403 182 394 l 436 424 q 529 441 503 431 q 556 479 556 451 q 507 578 556 546 q 367 611 458 611 q 281 601 319 611 q 216 571 243 592 q 175 517 189 550 l 75 550 q 123 624 92 593 q 197 674 154 656 q 286 701 239 693 q 381 710 333 710 q 549 676 486 707 q 640 581 613 644 q 667 419 667 518 l 667 0 l 561 0 l 561 106 q 511 47 546 75 q 427 2 476 19 q 321 -15 378 -15 m 374 -226 q 328 -208 347 -226 q 310 -162 310 -189 q 328 -117 310 -136 q 374 -97 347 -97 q 420 -117 401 -97 q 439 -162 439 -136 q 420 -208 439 -189 q 374 -226 401 -226 m 319 83 q 455 113 401 83 q 534 183 508 142 q 561 261 560 224 q 561 318 561 286 q 561 367 561 350 q 522 347 550 354 q 442 335 493 340 l 283 315 q 199 281 226 308 q 172 210 172 253 l 172 199 q 185 143 172 169 q 231 100 199 117 q 319 83 263 83 z "},"à":{"ha":756,"x_min":67,"x_max":667,"o":"m 321 -15 q 171 15 226 -15 q 91 92 115 44 q 67 190 67 139 l 67 208 q 82 288 67 246 q 140 362 97 329 q 263 403 182 394 l 436 424 q 529 441 503 431 q 556 479 556 451 q 507 578 556 546 q 367 611 458 611 q 281 601 319 611 q 216 571 243 592 q 175 517 189 550 l 75 550 q 123 624 92 593 q 197 674 154 656 q 286 701 239 693 q 381 710 333 710 q 549 676 486 707 q 640 581 613 644 q 667 419 667 518 l 667 0 l 561 0 l 561 106 q 511 47 546 75 q 427 2 476 19 q 321 -15 378 -15 m 319 83 q 455 113 401 83 q 534 183 508 142 q 561 261 560 224 q 561 318 561 286 q 561 367 561 350 q 522 347 550 354 q 442 335 493 340 l 283 315 q 199 281 226 308 q 172 210 172 253 l 172 199 q 185 143 172 169 q 231 100 199 117 q 319 83 263 83 m 328 781 l 186 988 l 283 988 l 425 781 l 328 781 z "},"ả":{"ha":756,"x_min":67,"x_max":667,"o":"m 321 -15 q 171 15 226 -15 q 91 92 115 44 q 67 190 67 139 l 67 208 q 82 288 67 246 q 140 362 97 329 q 263 403 182 394 l 436 424 q 529 441 503 431 q 556 479 556 451 q 507 578 556 546 q 367 611 458 611 q 281 601 319 611 q 216 571 243 592 q 175 517 189 550 l 75 550 q 123 624 92 593 q 197 674 154 656 q 286 701 239 693 q 381 710 333 710 q 549 676 486 707 q 640 581 613 644 q 667 419 667 518 l 667 0 l 561 0 l 561 106 q 511 47 546 75 q 427 2 476 19 q 321 -15 378 -15 m 319 83 q 455 113 401 83 q 534 183 508 142 q 561 261 560 224 q 561 318 561 286 q 561 367 561 350 q 522 347 550 354 q 442 335 493 340 l 283 315 q 199 281 226 308 q 172 210 172 253 l 172 199 q 185 143 172 169 q 231 100 199 117 q 319 83 263 83 m 326 790 l 326 813 q 336 849 326 833 q 374 879 346 865 q 395 889 382 883 q 419 903 408 894 q 429 925 429 911 q 421 947 429 938 q 392 956 413 956 q 359 946 369 956 q 349 914 349 936 l 281 914 q 296 976 281 953 q 336 1008 311 999 q 393 1018 361 1018 q 449 1005 425 1018 q 485 971 472 992 q 497 929 497 950 q 484 878 497 903 q 425 838 471 853 q 404 822 408 831 q 400 803 400 814 l 400 790 l 326 790 z "},"ȃ":{"ha":756,"x_min":67,"x_max":667,"o":"m 321 -15 q 171 15 226 -15 q 91 92 115 44 q 67 190 67 139 l 67 208 q 82 288 67 246 q 140 362 97 329 q 263 403 182 394 l 436 424 q 529 441 503 431 q 556 479 556 451 q 507 578 556 546 q 367 611 458 611 q 281 601 319 611 q 216 571 243 592 q 175 517 189 550 l 75 550 q 123 624 92 593 q 197 674 154 656 q 286 701 239 693 q 381 710 333 710 q 549 676 486 707 q 640 581 613 644 q 667 419 667 518 l 667 0 l 561 0 l 561 106 q 511 47 546 75 q 427 2 476 19 q 321 -15 378 -15 m 319 83 q 455 113 401 83 q 534 183 508 142 q 561 261 560 224 q 561 318 561 286 q 561 367 561 350 q 522 347 550 354 q 442 335 493 340 l 283 315 q 199 281 226 308 q 172 210 172 253 l 172 199 q 185 143 172 169 q 231 100 199 117 q 319 83 263 83 m 178 793 q 215 871 190 839 q 276 919 239 903 q 364 935 314 935 q 451 919 414 935 q 513 871 488 903 q 550 793 538 839 l 461 793 q 431 843 453 822 q 364 864 408 864 q 297 843 318 864 q 267 793 275 822 l 178 793 z "},"ā":{"ha":756,"x_min":67,"x_max":667,"o":"m 321 -15 q 171 15 226 -15 q 91 92 115 44 q 67 190 67 139 l 67 208 q 82 288 67 246 q 140 362 97 329 q 263 403 182 394 l 436 424 q 529 441 503 431 q 556 479 556 451 q 507 578 556 546 q 367 611 458 611 q 281 601 319 611 q 216 571 243 592 q 175 517 189 550 l 75 550 q 123 624 92 593 q 197 674 154 656 q 286 701 239 693 q 381 710 333 710 q 549 676 486 707 q 640 581 613 644 q 667 419 667 518 l 667 0 l 561 0 l 561 106 q 511 47 546 75 q 427 2 476 19 q 321 -15 378 -15 m 319 83 q 455 113 401 83 q 534 183 508 142 q 561 261 560 224 q 561 318 561 286 q 561 367 561 350 q 522 347 550 354 q 442 335 493 340 l 283 315 q 199 281 226 308 q 172 210 172 253 l 172 199 q 185 143 172 169 q 231 100 199 117 q 319 83 263 83 m 210 813 l 210 896 l 529 896 l 529 813 l 210 813 z "},"ą":{"ha":758,"x_min":67,"x_max":669,"o":"m 321 -15 q 171 15 226 -15 q 91 92 115 44 q 67 190 67 139 l 67 208 q 82 288 67 246 q 140 362 97 329 q 263 403 182 394 l 436 424 q 529 441 503 431 q 556 479 556 451 q 507 578 556 546 q 367 611 458 611 q 281 601 319 611 q 216 571 243 592 q 175 517 189 550 l 75 550 q 123 624 92 593 q 197 674 154 656 q 286 701 239 693 q 381 710 333 710 q 549 676 486 707 q 640 581 613 644 q 667 419 667 518 l 667 0 q 577 -81 608 -46 q 534 -139 546 -115 q 522 -175 522 -162 q 539 -210 522 -197 q 581 -224 556 -224 q 600 -222 590 -224 q 621 -214 610 -219 l 635 -208 l 669 -294 l 628 -307 q 571 -317 600 -317 q 492 -299 528 -317 q 436 -251 457 -281 q 415 -185 415 -221 q 439 -105 415 -143 q 497 -33 463 -67 q 561 28 531 1 l 561 106 q 511 47 546 75 q 427 2 476 19 q 321 -15 378 -15 m 319 83 q 455 113 401 83 q 534 183 508 142 q 561 261 560 224 q 561 318 561 286 q 561 367 561 350 q 522 347 550 354 q 442 335 493 340 l 283 315 q 199 281 226 308 q 172 210 172 253 l 172 199 q 185 143 172 169 q 231 100 199 117 q 319 83 263 83 z "},"å":{"ha":756,"x_min":67,"x_max":667,"o":"m 321 -15 q 171 15 226 -15 q 91 92 115 44 q 67 190 67 139 l 67 208 q 82 288 67 246 q 140 362 97 329 q 263 403 182 394 l 436 424 q 529 441 503 431 q 556 479 556 451 q 507 578 556 546 q 367 611 458 611 q 281 601 319 611 q 216 571 243 592 q 175 517 189 550 l 75 550 q 144 644 96 608 q 254 694 193 679 q 229 775 229 731 q 247 844 229 813 q 297 894 265 875 q 367 913 328 913 q 435 894 404 913 q 485 844 467 875 q 504 775 504 813 q 481 699 504 733 q 625 609 583 676 q 667 419 667 542 l 667 0 l 561 0 l 561 106 q 511 47 546 75 q 427 2 476 19 q 321 -15 378 -15 m 319 83 q 455 113 401 83 q 534 183 508 142 q 561 261 560 224 q 561 318 561 286 q 561 367 561 350 q 522 347 550 354 q 442 335 493 340 l 283 315 q 199 281 226 308 q 172 210 172 253 l 172 199 q 185 143 172 169 q 231 100 199 117 q 319 83 263 83 m 367 711 q 404 728 389 711 q 419 775 419 744 q 404 821 419 804 q 367 838 389 838 q 328 821 344 838 q 313 775 313 804 q 328 728 313 744 q 367 711 344 711 z "},"ǻ":{"ha":751,"x_min":67,"x_max":667,"o":"m 321 -15 q 171 15 226 -15 q 91 92 115 44 q 67 190 67 139 l 67 208 q 82 288 67 246 q 140 362 97 329 q 263 403 182 394 l 436 424 q 529 441 503 431 q 556 479 556 451 q 507 578 556 546 q 367 611 458 611 q 281 601 319 611 q 216 571 243 592 q 175 517 189 550 l 75 550 q 144 644 96 608 q 254 694 193 679 q 229 775 229 731 q 251 849 229 815 q 308 899 272 882 l 436 1085 l 532 1085 l 408 906 q 415 903 411 904 q 479 853 454 889 q 504 775 504 818 q 481 699 504 733 q 625 609 583 676 q 667 419 667 542 l 667 0 l 561 0 l 561 106 q 511 47 546 75 q 427 2 476 19 q 321 -15 378 -15 m 319 83 q 455 113 401 83 q 534 183 508 142 q 561 261 560 224 q 561 318 561 286 q 561 367 561 350 q 522 347 550 354 q 442 335 493 340 l 283 315 q 199 281 226 308 q 172 210 172 253 l 172 199 q 185 143 172 169 q 231 100 199 117 q 319 83 263 83 m 367 711 q 404 728 389 711 q 419 775 419 744 q 404 821 419 804 q 367 838 389 838 q 328 821 344 838 q 313 775 313 804 q 328 728 313 744 q 367 711 344 711 z "},"ã":{"ha":756,"x_min":67,"x_max":667,"o":"m 321 -15 q 171 15 226 -15 q 91 92 115 44 q 67 190 67 139 l 67 208 q 82 288 67 246 q 140 362 97 329 q 263 403 182 394 l 436 424 q 529 441 503 431 q 556 479 556 451 q 507 578 556 546 q 367 611 458 611 q 281 601 319 611 q 216 571 243 592 q 175 517 189 550 l 75 550 q 123 624 92 593 q 197 674 154 656 q 286 701 239 693 q 381 710 333 710 q 549 676 486 707 q 640 581 613 644 q 667 419 667 518 l 667 0 l 561 0 l 561 106 q 511 47 546 75 q 427 2 476 19 q 321 -15 378 -15 m 319 83 q 455 113 401 83 q 534 183 508 142 q 561 261 560 224 q 561 318 561 286 q 561 367 561 350 q 522 347 550 354 q 442 335 493 340 l 283 315 q 199 281 226 308 q 172 210 172 253 l 172 199 q 185 143 172 169 q 231 100 199 117 q 319 83 263 83 m 483 747 q 418 762 442 747 q 372 797 394 776 q 340 824 353 815 q 306 833 326 833 q 268 819 281 832 q 251 789 256 807 q 246 753 246 771 l 171 753 q 185 830 171 793 q 228 890 199 867 q 304 914 258 914 q 370 899 346 914 q 413 867 394 883 q 444 840 431 850 q 479 828 457 829 q 528 856 517 831 q 540 908 539 881 l 615 908 q 600 836 614 874 q 558 773 586 799 q 483 747 529 747 z "},"æ":{"ha":1289,"x_min":67,"x_max":1224,"o":"m 321 -15 q 171 15 226 -15 q 91 92 115 44 q 67 190 67 139 l 67 208 q 82 288 67 246 q 140 362 97 329 q 263 403 182 394 l 436 424 q 529 441 503 431 q 556 479 556 451 q 507 578 556 546 q 367 611 458 611 q 281 601 319 611 q 216 571 243 592 q 175 517 189 550 l 75 550 q 123 624 92 593 q 197 674 154 656 q 286 701 239 693 q 381 710 333 710 q 540 680 479 707 q 631 599 600 653 q 737 678 671 650 q 897 707 803 707 q 1087 662 1015 707 q 1190 535 1158 617 q 1224 346 1222 453 l 1224 308 l 669 308 q 730 142 674 201 q 903 82 786 82 q 996 94 958 82 q 1059 127 1033 107 q 1104 172 1085 147 l 1194 118 q 1129 48 1167 78 q 1037 1 1092 18 q 903 -17 982 -17 q 716 24 789 -17 q 604 136 643 64 q 483 22 556 58 q 321 -15 411 -15 m 319 83 q 427 104 382 83 q 502 157 472 125 q 547 224 532 189 q 561 288 561 260 q 561 327 561 307 q 561 367 561 347 q 522 347 550 354 q 442 335 493 340 l 283 315 q 199 281 226 308 q 172 210 172 253 l 172 199 q 185 143 172 169 q 231 100 199 117 q 319 83 263 83 m 671 396 l 1113 396 q 1060 549 1113 490 q 897 608 1007 608 q 733 552 785 608 q 671 396 681 496 z "},"ǽ":{"ha":1289,"x_min":67,"x_max":1224,"o":"m 321 -15 q 171 15 226 -15 q 91 92 115 44 q 67 190 67 139 l 67 208 q 82 288 67 246 q 140 362 97 329 q 263 403 182 394 l 436 424 q 529 441 503 431 q 556 479 556 451 q 507 578 556 546 q 367 611 458 611 q 281 601 319 611 q 216 571 243 592 q 175 517 189 550 l 75 550 q 123 624 92 593 q 197 674 154 656 q 286 701 239 693 q 381 710 333 710 q 540 680 479 707 q 631 599 600 653 q 737 678 671 650 q 897 707 803 707 q 1087 662 1015 707 q 1190 535 1158 617 q 1224 346 1222 453 l 1224 308 l 669 308 q 730 142 674 201 q 903 82 786 82 q 996 94 958 82 q 1059 127 1033 107 q 1104 172 1085 147 l 1194 118 q 1129 48 1167 78 q 1037 1 1092 18 q 903 -17 982 -17 q 716 24 789 -17 q 604 136 643 64 q 483 22 556 58 q 321 -15 411 -15 m 319 83 q 427 104 382 83 q 502 157 472 125 q 547 224 532 189 q 561 288 561 260 q 561 327 561 307 q 561 367 561 347 q 522 347 550 354 q 442 335 493 340 l 283 315 q 199 281 226 308 q 172 210 172 253 l 172 199 q 185 143 172 169 q 231 100 199 117 q 319 83 263 83 m 671 396 l 1113 396 q 1060 549 1113 490 q 897 608 1007 608 q 733 552 785 608 q 671 396 681 496 m 724 989 l 821 989 l 678 782 l 582 782 l 724 989 z "},"b":{"ha":868,"x_min":107,"x_max":796,"o":"m 464 -15 q 306 26 368 -15 q 213 128 244 68 l 213 0 l 107 0 l 107 1011 l 213 1011 l 213 565 q 306 668 244 626 q 464 710 368 710 q 650 663 576 710 q 760 533 724 615 q 796 347 796 451 q 760 160 796 242 q 650 31 724 78 q 464 -15 576 -15 m 213 347 q 242 208 213 267 q 327 116 272 149 q 460 83 382 83 q 588 116 536 83 q 664 208 639 149 q 689 347 689 267 q 664 486 689 426 q 588 578 639 546 q 460 611 536 611 q 327 578 382 611 q 242 486 272 546 q 213 347 213 426 z "},"ḅ":{"ha":868,"x_min":107,"x_max":796,"o":"m 464 -15 q 306 26 368 -15 q 213 128 244 68 l 213 0 l 107 0 l 107 1011 l 213 1011 l 213 565 q 306 668 244 626 q 464 710 368 710 q 650 663 576 710 q 760 533 724 615 q 796 347 796 451 q 760 160 796 242 q 650 31 724 78 q 464 -15 576 -15 m 213 347 q 242 208 213 267 q 327 116 272 149 q 460 83 382 83 q 588 116 536 83 q 664 208 639 149 q 689 347 689 267 q 664 486 689 426 q 588 578 639 546 q 460 611 536 611 q 327 578 382 611 q 242 486 272 546 q 213 347 213 426 m 456 -226 q 410 -208 429 -226 q 390 -162 390 -189 q 410 -117 390 -136 q 456 -97 429 -97 q 501 -117 482 -97 q 519 -162 519 -136 q 501 -208 519 -189 q 456 -226 482 -226 z "},"ɓ":{"ha":868,"x_min":107,"x_max":796,"o":"m 464 -15 q 306 26 368 -15 q 213 128 244 68 l 213 0 l 107 0 l 107 728 q 177 951 107 886 q 385 1010 247 1017 q 408 1008 396 1010 q 434 1005 421 1007 q 457 1000 447 1003 l 438 906 q 419 910 428 908 q 401 911 411 911 q 298 905 340 918 q 234 849 256 892 q 213 726 213 807 l 213 565 q 306 668 244 626 q 464 710 368 710 q 650 663 576 710 q 760 533 724 615 q 796 347 796 451 q 760 160 796 242 q 650 31 724 78 q 464 -15 576 -15 m 213 347 q 242 208 213 267 q 327 116 272 149 q 460 83 382 83 q 588 116 536 83 q 664 208 639 149 q 689 347 689 267 q 664 486 689 426 q 588 578 639 546 q 460 611 536 611 q 327 578 382 611 q 242 486 272 546 q 213 347 213 426 z "},"c":{"ha":769,"x_min":72,"x_max":703,"o":"m 599 510 q 522 584 571 557 q 403 611 474 611 q 277 579 326 611 q 203 488 228 547 q 179 347 179 429 q 234 153 179 222 q 403 83 289 83 q 522 110 474 83 q 599 185 571 138 l 703 154 q 638 65 679 103 q 538 6 596 26 q 403 -15 479 -15 q 217 31 290 -15 q 108 158 144 76 q 72 347 72 239 q 108 536 72 454 q 217 664 144 618 q 403 710 290 710 q 535 689 478 710 q 635 631 593 668 q 701 543 676 594 l 599 510 z "},"ć":{"ha":769,"x_min":72,"x_max":703,"o":"m 599 510 q 522 584 571 557 q 403 611 474 611 q 277 579 326 611 q 203 488 228 547 q 179 347 179 429 q 234 153 179 222 q 403 83 289 83 q 522 110 474 83 q 599 185 571 138 l 703 154 q 638 65 679 103 q 538 6 596 26 q 403 -15 479 -15 q 217 31 290 -15 q 108 158 144 76 q 72 347 72 239 q 108 536 72 454 q 217 664 144 618 q 403 710 290 710 q 535 689 478 710 q 635 631 593 668 q 701 543 676 594 l 599 510 m 494 989 l 590 989 l 449 782 l 351 782 l 494 989 z "},"č":{"ha":769,"x_min":72,"x_max":703,"o":"m 599 510 q 522 584 571 557 q 403 611 474 611 q 277 579 326 611 q 203 488 228 547 q 179 347 179 429 q 234 153 179 222 q 403 83 289 83 q 522 110 474 83 q 599 185 571 138 l 703 154 q 638 65 679 103 q 538 6 596 26 q 403 -15 479 -15 q 217 31 290 -15 q 108 158 144 76 q 72 347 72 239 q 108 536 72 454 q 217 664 144 618 q 403 710 290 710 q 535 689 478 710 q 635 631 593 668 q 701 543 676 594 l 599 510 m 461 775 l 339 775 l 196 982 l 300 982 l 400 838 l 499 982 l 603 982 l 461 775 z "},"ç":{"ha":769,"x_min":72,"x_max":703,"o":"m 599 510 q 522 584 571 557 q 403 611 474 611 q 277 579 326 611 q 203 488 228 547 q 179 347 179 429 q 234 153 179 222 q 403 83 289 83 q 522 110 474 83 q 599 185 571 138 l 703 154 q 608 41 671 86 q 450 -14 544 -4 l 442 -37 q 512 -74 485 -46 q 539 -143 539 -101 l 539 -151 q 497 -236 539 -203 q 404 -281 456 -269 l 347 -293 l 319 -214 l 394 -199 q 435 -181 415 -193 q 454 -142 454 -168 q 441 -113 454 -122 q 410 -104 428 -104 l 332 -104 l 363 -14 q 200 42 264 -6 q 104 167 136 89 q 72 347 72 246 q 108 536 72 454 q 217 664 144 618 q 403 710 290 710 q 535 689 478 710 q 635 631 593 668 q 701 543 676 594 l 599 510 z "},"ĉ":{"ha":769,"x_min":72,"x_max":703,"o":"m 599 510 q 522 584 571 557 q 403 611 474 611 q 277 579 326 611 q 203 488 228 547 q 179 347 179 429 q 234 153 179 222 q 403 83 289 83 q 522 110 474 83 q 599 185 571 138 l 703 154 q 638 65 679 103 q 538 6 596 26 q 403 -15 479 -15 q 217 31 290 -15 q 108 158 144 76 q 72 347 72 239 q 108 536 72 454 q 217 664 144 618 q 403 710 290 710 q 535 689 478 710 q 635 631 593 668 q 701 543 676 594 l 599 510 m 463 978 l 604 772 l 500 772 l 401 917 l 301 772 l 197 772 l 339 978 l 463 978 z "},"ċ":{"ha":769,"x_min":72,"x_max":703,"o":"m 599 510 q 522 584 571 557 q 403 611 474 611 q 277 579 326 611 q 203 488 228 547 q 179 347 179 429 q 234 153 179 222 q 403 83 289 83 q 522 110 474 83 q 599 185 571 138 l 703 154 q 638 65 679 103 q 538 6 596 26 q 403 -15 479 -15 q 217 31 290 -15 q 108 158 144 76 q 72 347 72 239 q 108 536 72 454 q 217 664 144 618 q 403 710 290 710 q 535 689 478 710 q 635 631 593 668 q 701 543 676 594 l 599 510 m 399 824 q 353 843 372 824 q 335 889 335 863 q 353 934 335 915 q 399 953 372 953 q 445 934 426 953 q 464 889 464 915 q 445 843 464 863 q 399 824 426 824 z "},"d":{"ha":858,"x_min":72,"x_max":761,"o":"m 404 -15 q 217 31 290 -15 q 108 160 143 78 q 72 347 72 242 q 108 533 72 451 q 217 663 143 615 q 404 710 290 710 q 562 668 500 710 q 656 565 624 626 l 656 1011 l 761 1011 l 761 0 l 656 0 l 656 128 q 562 26 624 68 q 404 -15 500 -15 m 179 347 q 204 208 179 267 q 281 116 229 149 q 408 83 332 83 q 540 116 485 83 q 625 208 596 149 q 654 347 654 267 q 625 486 654 426 q 540 578 596 546 q 408 611 485 611 q 281 578 332 611 q 204 486 229 546 q 179 347 179 426 z "},"ď":{"ha":1057,"x_min":72,"x_max":1038,"o":"m 404 -15 q 217 31 290 -15 q 108 160 143 78 q 72 347 72 242 q 108 533 72 451 q 217 663 143 615 q 404 710 290 710 q 562 668 500 710 q 656 565 624 626 l 656 1011 l 761 1011 l 761 0 l 656 0 l 656 128 q 562 26 624 68 q 404 -15 500 -15 m 179 347 q 204 208 179 267 q 281 116 229 149 q 408 83 332 83 q 540 116 485 83 q 625 208 596 149 q 654 347 654 267 q 625 486 654 426 q 540 578 596 546 q 408 611 485 611 q 281 578 332 611 q 204 486 229 546 q 179 347 179 426 m 949 783 q 897 805 918 783 q 875 857 875 826 q 897 909 875 888 q 949 931 918 931 q 1006 908 979 931 q 1033 842 1032 886 q 1017 732 1038 776 q 958 660 997 688 q 865 618 919 632 l 847 676 q 931 715 897 690 q 964 786 965 739 q 956 783 960 783 q 949 783 951 783 z "},"đ":{"ha":928,"x_min":72,"x_max":831,"o":"m 404 -15 q 217 31 290 -15 q 108 160 143 78 q 72 347 72 242 q 108 533 72 451 q 217 663 143 615 q 404 710 290 710 q 562 668 500 710 q 656 565 624 626 l 656 813 l 511 813 l 511 896 l 656 896 l 656 1011 l 761 1011 l 761 896 l 829 896 l 831 813 l 761 813 l 761 0 l 656 0 l 656 128 q 562 26 624 68 q 404 -15 500 -15 m 179 347 q 204 208 179 267 q 281 116 229 149 q 408 83 332 83 q 540 116 485 83 q 625 208 596 149 q 654 347 654 267 q 625 486 654 426 q 540 578 596 546 q 408 611 485 611 q 281 578 332 611 q 204 486 229 546 q 179 347 179 426 z "},"ḍ":{"ha":858,"x_min":72,"x_max":761,"o":"m 404 -15 q 217 31 290 -15 q 108 160 143 78 q 72 347 72 242 q 108 533 72 451 q 217 663 143 615 q 404 710 290 710 q 562 668 500 710 q 656 565 624 626 l 656 1011 l 761 1011 l 761 0 l 656 0 l 656 128 q 562 26 624 68 q 404 -15 500 -15 m 179 347 q 204 208 179 267 q 281 116 229 149 q 408 83 332 83 q 540 116 485 83 q 625 208 596 149 q 654 347 654 267 q 625 486 654 426 q 540 578 596 546 q 408 611 485 611 q 281 578 332 611 q 204 486 229 546 q 179 347 179 426 m 432 -226 q 385 -208 404 -226 q 367 -162 367 -189 q 385 -117 367 -136 q 432 -97 404 -97 q 477 -117 458 -97 q 496 -162 496 -136 q 477 -208 496 -189 q 432 -226 458 -226 z "},"ɗ":{"ha":858,"x_min":72,"x_max":1006,"o":"m 404 -15 q 217 31 290 -15 q 108 160 143 78 q 72 347 72 242 q 108 533 72 451 q 217 663 143 615 q 404 710 290 710 q 562 668 500 710 q 656 565 624 626 l 656 728 q 726 951 656 886 q 933 1010 797 1017 q 958 1008 944 1010 q 983 1005 971 1007 q 1006 1000 996 1003 l 986 906 q 969 910 978 908 q 951 911 961 911 q 847 905 889 918 q 783 849 804 892 q 761 726 761 807 l 761 0 l 656 0 l 656 128 q 562 26 624 68 q 404 -15 500 -15 m 179 347 q 204 208 179 267 q 281 116 229 149 q 408 83 332 83 q 540 116 485 83 q 625 208 596 149 q 654 347 654 267 q 625 486 654 426 q 540 578 596 546 q 408 611 485 611 q 281 578 332 611 q 204 486 229 546 q 179 347 179 426 z "},"ǳ":{"ha":1431,"x_min":72,"x_max":1408,"o":"m 404 -15 q 217 31 290 -15 q 108 160 143 78 q 72 347 72 242 q 108 533 72 451 q 217 663 143 615 q 404 710 290 710 q 562 668 500 710 q 656 565 624 626 l 656 1011 l 761 1011 l 761 0 l 656 0 l 656 128 q 562 26 624 68 q 404 -15 500 -15 m 179 347 q 204 208 179 267 q 281 116 229 149 q 408 83 332 83 q 540 116 485 83 q 625 208 596 149 q 654 347 654 267 q 625 486 654 426 q 540 578 596 546 q 408 611 485 611 q 281 578 332 611 q 204 486 229 546 q 179 347 179 426 m 892 694 l 1408 694 l 1408 613 l 1014 99 l 1396 99 l 1397 0 l 882 0 l 882 81 l 1278 596 l 892 596 l 892 694 z "},"ǆ":{"ha":1431,"x_min":72,"x_max":1408,"o":"m 404 -15 q 217 31 290 -15 q 108 160 143 78 q 72 347 72 242 q 108 533 72 451 q 217 663 143 615 q 404 710 290 710 q 562 668 500 710 q 656 565 624 626 l 656 1011 l 761 1011 l 761 0 l 656 0 l 656 128 q 562 26 624 68 q 404 -15 500 -15 m 179 347 q 204 208 179 267 q 281 116 229 149 q 408 83 332 83 q 540 116 485 83 q 625 208 596 149 q 654 347 654 267 q 625 486 654 426 q 540 578 596 546 q 408 611 485 611 q 281 578 332 611 q 204 486 229 546 q 179 347 179 426 m 892 694 l 1408 694 l 1408 613 l 1014 99 l 1396 99 l 1397 0 l 882 0 l 882 81 l 1278 596 l 892 596 l 892 694 m 1206 768 l 1083 768 l 942 974 l 1046 974 l 1144 829 l 1244 974 l 1349 974 l 1206 768 z "},"ð":{"ha":846,"x_min":72,"x_max":808,"o":"m 404 -8 q 217 37 290 -8 q 108 162 143 82 q 72 347 72 242 q 108 532 72 451 q 217 658 143 613 q 404 703 290 703 q 562 665 500 703 q 656 565 624 626 l 656 693 q 652 746 656 722 q 640 789 649 769 l 551 743 l 551 833 l 618 868 q 556 910 594 900 q 465 915 518 921 q 447 913 457 914 q 429 911 438 913 l 411 1004 q 433 1008 421 1006 q 459 1011 446 1010 q 482 1014 472 1013 q 626 993 567 1018 q 717 911 685 968 l 808 957 l 808 865 l 743 832 q 757 782 753 810 q 761 721 761 754 l 761 0 l 656 0 l 656 128 q 562 30 624 68 q 404 -8 500 -8 m 179 347 q 236 158 179 226 q 408 90 293 90 q 540 121 485 90 q 625 209 596 151 q 654 347 654 267 q 589 535 654 467 q 408 604 524 604 q 236 535 293 604 q 179 347 179 467 z "},"e":{"ha":801,"x_min":72,"x_max":735,"o":"m 735 310 l 181 310 q 241 143 185 203 q 414 83 297 83 q 507 96 469 83 q 570 129 544 108 q 615 174 596 150 l 706 119 q 640 50 678 81 q 548 2 603 19 q 414 -15 493 -15 q 218 31 293 -15 q 108 158 143 76 q 72 347 72 239 q 106 536 72 454 q 215 664 140 618 q 408 710 289 710 q 598 664 526 710 q 702 537 669 618 q 735 347 735 456 l 735 310 m 182 397 l 624 397 q 571 552 624 493 q 408 611 518 611 q 244 554 296 611 q 182 397 192 497 z "},"é":{"ha":801,"x_min":72,"x_max":735,"o":"m 503 989 l 599 989 l 457 782 l 360 782 l 503 989 m 735 310 l 181 310 q 241 143 185 203 q 414 83 297 83 q 507 96 469 83 q 570 129 544 108 q 615 174 596 150 l 706 119 q 640 50 678 81 q 548 2 603 19 q 414 -15 493 -15 q 218 31 293 -15 q 108 158 143 76 q 72 347 72 239 q 106 536 72 454 q 215 664 140 618 q 408 710 289 710 q 598 664 526 710 q 702 537 669 618 q 735 347 735 456 l 735 310 m 182 397 l 624 397 q 571 552 624 493 q 408 611 518 611 q 244 554 296 611 q 182 397 192 497 z "},"ĕ":{"ha":801,"x_min":72,"x_max":735,"o":"m 404 778 q 318 793 356 778 q 256 840 281 808 q 218 918 231 872 l 307 918 q 338 869 315 889 q 404 849 360 849 q 472 869 450 849 q 501 918 493 889 l 592 918 q 554 840 579 872 q 492 793 529 808 q 404 778 454 778 m 735 310 l 181 310 q 241 143 185 203 q 414 83 297 83 q 507 96 469 83 q 570 129 544 108 q 615 174 596 150 l 706 119 q 640 50 678 81 q 548 2 603 19 q 414 -15 493 -15 q 218 31 293 -15 q 108 158 143 76 q 72 347 72 239 q 106 536 72 454 q 215 664 140 618 q 408 710 289 710 q 598 664 526 710 q 702 537 669 618 q 735 347 735 456 l 735 310 m 182 397 l 624 397 q 571 552 624 493 q 408 611 518 611 q 244 554 296 611 q 182 397 192 497 z "},"ě":{"ha":801,"x_min":72,"x_max":735,"o":"m 469 775 l 347 775 l 204 982 l 308 982 l 408 838 l 508 982 l 611 982 l 469 775 m 735 310 l 181 310 q 241 143 185 203 q 414 83 297 83 q 507 96 469 83 q 570 129 544 108 q 615 174 596 150 l 706 119 q 640 50 678 81 q 548 2 603 19 q 414 -15 493 -15 q 218 31 293 -15 q 108 158 143 76 q 72 347 72 239 q 106 536 72 454 q 215 664 140 618 q 408 710 289 710 q 598 664 526 710 q 702 537 669 618 q 735 347 735 456 l 735 310 m 182 397 l 624 397 q 571 552 624 493 q 408 611 518 611 q 244 554 296 611 q 182 397 192 497 z "},"ê":{"ha":801,"x_min":72,"x_max":735,"o":"m 471 978 l 613 772 l 508 772 l 410 917 l 310 772 l 206 772 l 349 978 l 471 978 m 735 310 l 181 310 q 241 143 185 203 q 414 83 297 83 q 507 96 469 83 q 570 129 544 108 q 615 174 596 150 l 706 119 q 640 50 678 81 q 548 2 603 19 q 414 -15 493 -15 q 218 31 293 -15 q 108 158 143 76 q 72 347 72 239 q 106 536 72 454 q 215 664 140 618 q 408 710 289 710 q 598 664 526 710 q 702 537 669 618 q 735 347 735 456 l 735 310 m 182 397 l 624 397 q 571 552 624 493 q 408 611 518 611 q 244 554 296 611 q 182 397 192 497 z "},"ế":{"ha":879,"x_min":72,"x_max":813,"o":"m 471 978 l 613 772 l 508 772 l 410 917 l 310 772 l 206 772 l 349 978 l 471 978 m 717 1099 l 813 1099 l 671 892 l 574 892 l 717 1099 m 735 310 l 181 310 q 241 143 185 203 q 414 83 297 83 q 507 96 469 83 q 570 129 544 108 q 615 174 596 150 l 706 119 q 640 50 678 81 q 548 2 603 19 q 414 -15 493 -15 q 218 31 293 -15 q 108 158 143 76 q 72 347 72 239 q 106 536 72 454 q 215 664 140 618 q 408 710 289 710 q 598 664 526 710 q 702 537 669 618 q 735 347 735 456 l 735 310 m 182 397 l 624 397 q 571 552 624 493 q 408 611 518 611 q 244 554 296 611 q 182 397 192 497 z "},"ệ":{"ha":801,"x_min":72,"x_max":735,"o":"m 393 -226 q 347 -208 367 -226 q 328 -162 328 -189 q 347 -117 328 -136 q 393 -97 367 -97 q 438 -117 419 -97 q 457 -162 457 -136 q 438 -208 457 -189 q 393 -226 419 -226 m 471 978 l 613 772 l 508 772 l 410 917 l 310 772 l 206 772 l 349 978 l 471 978 m 735 310 l 181 310 q 241 143 185 203 q 414 83 297 83 q 507 96 469 83 q 570 129 544 108 q 615 174 596 150 l 706 119 q 640 50 678 81 q 548 2 603 19 q 414 -15 493 -15 q 218 31 293 -15 q 108 158 143 76 q 72 347 72 239 q 106 536 72 454 q 215 664 140 618 q 408 710 289 710 q 598 664 526 710 q 702 537 669 618 q 735 347 735 456 l 735 310 m 182 397 l 624 397 q 571 552 624 493 q 408 611 518 611 q 244 554 296 611 q 182 397 192 497 z "},"ề":{"ha":801,"x_min":72,"x_max":735,"o":"m 471 978 l 613 772 l 508 772 l 410 917 l 310 772 l 206 772 l 349 978 l 471 978 m 563 1097 l 704 890 l 608 890 l 465 1097 l 563 1097 m 735 310 l 181 310 q 241 143 185 203 q 414 83 297 83 q 507 96 469 83 q 570 129 544 108 q 615 174 596 150 l 706 119 q 640 50 678 81 q 548 2 603 19 q 414 -15 493 -15 q 218 31 293 -15 q 108 158 143 76 q 72 347 72 239 q 106 536 72 454 q 215 664 140 618 q 408 710 289 710 q 598 664 526 710 q 702 537 669 618 q 735 347 735 456 l 735 310 m 182 397 l 624 397 q 571 552 624 493 q 408 611 518 611 q 244 554 296 611 q 182 397 192 497 z "},"ể":{"ha":819,"x_min":72,"x_max":753,"o":"m 471 978 l 613 772 l 508 772 l 410 917 l 310 772 l 206 772 l 349 978 l 471 978 m 647 1128 q 703 1115 679 1128 q 740 1081 726 1101 q 753 1040 753 1061 q 739 988 753 1013 q 679 947 725 964 q 659 933 663 940 q 656 913 656 925 l 656 900 l 581 900 l 581 922 q 590 960 581 943 q 628 989 600 976 q 651 999 638 993 q 674 1013 664 1004 q 683 1035 683 1022 q 676 1056 683 1047 q 647 1065 668 1065 q 613 1056 624 1065 q 603 1024 603 1047 l 535 1024 q 550 1087 535 1064 q 591 1119 565 1110 q 647 1128 617 1128 m 735 310 l 181 310 q 241 143 185 203 q 414 83 297 83 q 507 96 469 83 q 570 129 544 108 q 615 174 596 150 l 706 119 q 640 50 678 81 q 548 2 603 19 q 414 -15 493 -15 q 218 31 293 -15 q 108 158 143 76 q 72 347 72 239 q 106 536 72 454 q 215 664 140 618 q 408 710 289 710 q 598 664 526 710 q 702 537 669 618 q 735 347 735 456 l 735 310 m 182 397 l 624 397 q 571 552 624 493 q 408 611 518 611 q 244 554 296 611 q 182 397 192 497 z "},"ễ":{"ha":801,"x_min":72,"x_max":735,"o":"m 471 978 l 613 772 l 508 772 l 410 917 l 310 772 l 206 772 l 349 978 l 471 978 m 450 1138 q 482 1110 468 1121 q 517 1100 496 1100 q 565 1126 554 1101 q 578 1179 576 1151 l 653 1179 q 638 1107 651 1144 q 596 1044 625 1069 q 521 1018 567 1018 q 456 1033 479 1018 q 410 1068 432 1047 q 377 1095 390 1086 q 343 1104 364 1104 q 306 1090 318 1103 q 288 1060 293 1078 q 283 1024 283 1043 l 208 1024 q 222 1101 208 1064 q 266 1162 236 1138 q 342 1186 296 1186 q 408 1170 383 1185 q 450 1138 432 1156 m 735 310 l 181 310 q 241 143 185 203 q 414 83 297 83 q 507 96 469 83 q 570 129 544 108 q 615 174 596 150 l 706 119 q 640 50 678 81 q 548 2 603 19 q 414 -15 493 -15 q 218 31 293 -15 q 108 158 143 76 q 72 347 72 239 q 106 536 72 454 q 215 664 140 618 q 408 710 289 710 q 598 664 526 710 q 702 537 669 618 q 735 347 735 456 l 735 310 m 182 397 l 624 397 q 571 552 624 493 q 408 611 518 611 q 244 554 296 611 q 182 397 192 497 z "},"ȅ":{"ha":801,"x_min":72,"x_max":735,"o":"m 179 988 l 321 781 l 225 781 l 82 988 l 179 988 m 425 988 l 567 781 l 471 781 l 328 988 l 425 988 m 735 310 l 181 310 q 241 143 185 203 q 414 83 297 83 q 507 96 469 83 q 570 129 544 108 q 615 174 596 150 l 706 119 q 640 50 678 81 q 548 2 603 19 q 414 -15 493 -15 q 218 31 293 -15 q 108 158 143 76 q 72 347 72 239 q 106 536 72 454 q 215 664 140 618 q 408 710 289 710 q 598 664 526 710 q 702 537 669 618 q 735 347 735 456 l 735 310 m 182 397 l 624 397 q 571 552 624 493 q 408 611 518 611 q 244 554 296 611 q 182 397 192 497 z "},"ë":{"ha":801,"x_min":72,"x_max":735,"o":"m 300 825 q 253 844 272 825 q 235 890 235 864 q 253 935 235 917 q 300 954 272 954 q 345 935 326 954 q 364 890 364 917 q 345 844 364 864 q 300 825 326 825 m 508 825 q 462 844 481 825 q 443 890 443 864 q 462 935 443 917 q 508 954 481 954 q 553 935 535 954 q 572 890 572 917 q 553 844 572 864 q 508 825 535 825 m 735 310 l 181 310 q 241 143 185 203 q 414 83 297 83 q 507 96 469 83 q 570 129 544 108 q 615 174 596 150 l 706 119 q 640 50 678 81 q 548 2 603 19 q 414 -15 493 -15 q 218 31 293 -15 q 108 158 143 76 q 72 347 72 239 q 106 536 72 454 q 215 664 140 618 q 408 710 289 710 q 598 664 526 710 q 702 537 669 618 q 735 347 735 456 l 735 310 m 182 397 l 624 397 q 571 552 624 493 q 408 611 518 611 q 244 554 296 611 q 182 397 192 497 z "},"ė":{"ha":801,"x_min":72,"x_max":735,"o":"m 408 824 q 362 843 381 824 q 343 889 343 863 q 362 934 343 915 q 408 953 381 953 q 453 934 435 953 q 472 889 472 915 q 453 843 472 863 q 408 824 435 824 m 735 310 l 181 310 q 241 143 185 203 q 414 83 297 83 q 507 96 469 83 q 570 129 544 108 q 615 174 596 150 l 706 119 q 640 50 678 81 q 548 2 603 19 q 414 -15 493 -15 q 218 31 293 -15 q 108 158 143 76 q 72 347 72 239 q 106 536 72 454 q 215 664 140 618 q 408 710 289 710 q 598 664 526 710 q 702 537 669 618 q 735 347 735 456 l 735 310 m 182 397 l 624 397 q 571 552 624 493 q 408 611 518 611 q 244 554 296 611 q 182 397 192 497 z "},"ẹ":{"ha":801,"x_min":72,"x_max":735,"o":"m 393 -226 q 347 -208 367 -226 q 328 -162 328 -189 q 347 -117 328 -136 q 393 -97 367 -97 q 438 -117 419 -97 q 457 -162 457 -136 q 438 -208 457 -189 q 393 -226 419 -226 m 735 310 l 181 310 q 241 143 185 203 q 414 83 297 83 q 507 96 469 83 q 570 129 544 108 q 615 174 596 150 l 706 119 q 640 50 678 81 q 548 2 603 19 q 414 -15 493 -15 q 218 31 293 -15 q 108 158 143 76 q 72 347 72 239 q 106 536 72 454 q 215 664 140 618 q 408 710 289 710 q 598 664 526 710 q 702 537 669 618 q 735 347 735 456 l 735 310 m 182 397 l 624 397 q 571 552 624 493 q 408 611 518 611 q 244 554 296 611 q 182 397 192 497 z "},"è":{"ha":801,"x_min":72,"x_max":735,"o":"m 324 988 l 465 781 l 369 781 l 226 988 l 324 988 m 735 310 l 181 310 q 241 143 185 203 q 414 83 297 83 q 507 96 469 83 q 570 129 544 108 q 615 174 596 150 l 706 119 q 640 50 678 81 q 548 2 603 19 q 414 -15 493 -15 q 218 31 293 -15 q 108 158 143 76 q 72 347 72 239 q 106 536 72 454 q 215 664 140 618 q 408 710 289 710 q 598 664 526 710 q 702 537 669 618 q 735 347 735 456 l 735 310 m 182 397 l 624 397 q 571 552 624 493 q 408 611 518 611 q 244 554 296 611 q 182 397 192 497 z "},"ẻ":{"ha":801,"x_min":72,"x_max":735,"o":"m 433 1018 q 490 1005 467 1018 q 526 971 513 992 q 539 929 539 950 q 526 878 539 903 q 465 838 513 853 q 445 822 449 831 q 442 803 442 814 l 442 790 l 367 790 l 367 813 q 376 849 367 833 q 414 879 386 865 q 437 889 424 883 q 460 903 450 894 q 471 925 471 911 q 463 947 471 938 q 433 956 454 956 q 399 946 410 956 q 389 914 389 936 l 321 914 q 336 976 321 953 q 377 1008 351 999 q 433 1018 403 1018 m 735 310 l 181 310 q 241 143 185 203 q 414 83 297 83 q 507 96 469 83 q 570 129 544 108 q 615 174 596 150 l 706 119 q 640 50 678 81 q 548 2 603 19 q 414 -15 493 -15 q 218 31 293 -15 q 108 158 143 76 q 72 347 72 239 q 106 536 72 454 q 215 664 140 618 q 408 710 289 710 q 598 664 526 710 q 702 537 669 618 q 735 347 735 456 l 735 310 m 182 397 l 624 397 q 571 552 624 493 q 408 611 518 611 q 244 554 296 611 q 182 397 192 497 z "},"ȇ":{"ha":801,"x_min":72,"x_max":735,"o":"m 404 935 q 492 919 454 935 q 554 871 529 903 q 592 793 579 839 l 501 793 q 472 843 493 822 q 404 864 450 864 q 338 843 360 864 q 307 793 315 822 l 218 793 q 256 871 231 839 q 318 919 281 903 q 404 935 356 935 m 735 310 l 181 310 q 241 143 185 203 q 414 83 297 83 q 507 96 469 83 q 570 129 544 108 q 615 174 596 150 l 706 119 q 640 50 678 81 q 548 2 603 19 q 414 -15 493 -15 q 218 31 293 -15 q 108 158 143 76 q 72 347 72 239 q 106 536 72 454 q 215 664 140 618 q 408 710 289 710 q 598 664 526 710 q 702 537 669 618 q 735 347 735 456 l 735 310 m 182 397 l 624 397 q 571 552 624 493 q 408 611 518 611 q 244 554 296 611 q 182 397 192 497 z "},"ē":{"ha":801,"x_min":72,"x_max":735,"o":"m 251 890 l 569 890 l 569 814 l 251 814 l 251 890 m 735 310 l 181 310 q 241 143 185 203 q 414 83 297 83 q 507 96 469 83 q 570 129 544 108 q 615 174 596 150 l 706 119 q 640 50 678 81 q 548 2 603 19 q 414 -15 493 -15 q 218 31 293 -15 q 108 158 143 76 q 72 347 72 239 q 106 536 72 454 q 215 664 140 618 q 408 710 289 710 q 598 664 526 710 q 702 537 669 618 q 735 347 735 456 l 735 310 m 182 397 l 624 397 q 571 552 624 493 q 408 611 518 611 q 244 554 296 611 q 182 397 192 497 z "},"ę":{"ha":801,"x_min":72,"x_max":735,"o":"m 735 310 l 181 310 q 241 143 185 203 q 414 83 297 83 q 507 96 469 83 q 570 129 544 108 q 615 174 596 150 l 706 119 q 672 79 690 99 q 633 44 654 60 q 585 -3 613 26 q 533 -65 558 -32 q 490 -130 507 -99 q 472 -185 472 -161 q 487 -214 472 -204 q 522 -224 501 -224 q 578 -206 551 -224 l 606 -185 l 657 -264 l 603 -296 q 513 -319 563 -319 q 442 -306 475 -319 q 389 -267 410 -292 q 368 -207 368 -242 q 389 -108 368 -156 q 447 -14 410 -61 q 414 -15 431 -15 q 218 31 293 -15 q 108 158 143 76 q 72 347 72 239 q 106 536 72 454 q 215 664 140 618 q 408 710 289 710 q 598 664 526 710 q 702 537 669 618 q 735 347 735 456 l 735 310 m 182 397 l 624 397 q 571 552 624 493 q 408 611 518 611 q 244 554 296 611 q 182 397 192 497 z "},"ɛ":{"ha":585,"x_min":46,"x_max":560,"o":"m 322 413 l 322 318 l 311 318 q 196 286 235 318 q 157 200 157 254 q 197 119 157 154 q 311 83 236 83 q 401 104 365 83 q 450 153 436 125 l 560 124 q 513 53 544 85 q 430 2 481 21 q 311 -17 379 -17 q 164 13 222 -17 q 76 91 106 42 q 46 200 46 140 q 75 303 46 258 q 161 371 104 347 q 90 431 114 393 q 67 515 67 468 q 130 652 67 596 q 311 708 193 708 q 424 690 376 708 q 503 640 472 671 q 546 569 533 608 l 436 544 q 393 592 425 572 q 311 613 361 613 q 212 583 246 613 q 178 510 178 553 q 211 438 178 464 q 311 413 244 413 l 322 413 z "},"ẽ":{"ha":801,"x_min":72,"x_max":735,"o":"m 731 310 l 181 310 q 241 143 185 203 q 414 83 297 83 q 507 96 469 83 q 570 129 544 108 q 615 174 596 150 l 706 119 q 640 50 678 81 q 548 2 603 19 q 414 -15 493 -15 q 218 31 293 -15 q 108 158 143 76 q 72 347 72 239 q 106 536 72 454 q 215 664 140 618 q 408 710 289 710 q 598 664 526 710 q 702 537 669 618 q 735 347 735 456 q 733 328 735 338 q 731 310 732 319 m 182 397 l 624 397 q 569 552 619 493 q 408 611 518 611 q 244 554 296 611 q 182 397 192 497 m 431 867 q 463 840 450 850 q 497 828 476 829 q 547 856 536 831 q 558 908 557 881 l 633 908 q 619 836 632 874 q 576 773 606 799 q 501 747 547 747 q 436 762 460 747 q 392 797 413 776 q 359 824 372 815 q 325 833 346 833 q 286 819 299 832 q 269 789 274 807 q 264 753 265 771 l 189 753 q 203 830 189 793 q 247 890 218 867 q 322 914 276 914 q 388 899 364 914 q 431 867 413 883 z "},"ǝ":{"ha":801,"x_min":67,"x_max":729,"o":"m 71 385 l 621 385 q 560 551 615 492 q 388 611 504 611 q 294 599 332 611 q 231 565 257 586 q 186 521 206 544 l 94 575 q 161 644 124 614 q 253 692 199 675 q 388 710 307 710 q 583 664 508 710 q 694 537 658 618 q 729 347 729 456 q 695 158 729 240 q 587 31 661 76 q 392 -15 513 -15 q 203 31 275 -15 q 99 158 132 76 q 67 347 67 239 q 68 366 67 357 q 71 385 69 375 m 619 297 l 176 297 q 233 142 182 201 q 392 83 283 83 q 558 140 506 83 q 619 297 610 197 z "},"ə":{"ha":801,"x_min":67,"x_max":729,"o":"m 71 385 l 621 385 q 560 551 615 492 q 388 611 504 611 q 294 599 332 611 q 231 565 257 586 q 186 521 206 544 l 94 575 q 161 644 124 614 q 253 692 199 675 q 388 710 307 710 q 583 664 508 710 q 694 537 658 618 q 729 347 729 456 q 695 158 729 240 q 587 31 661 76 q 392 -15 513 -15 q 203 31 275 -15 q 99 158 132 76 q 67 347 67 239 q 68 366 67 357 q 71 385 69 375 m 619 297 l 176 297 q 233 142 182 201 q 392 83 283 83 q 558 140 506 83 q 619 297 610 197 z "},"ʒ":{"ha":644,"x_min":-72,"x_max":611,"o":"m 151 236 l 151 300 l 408 596 l 15 596 l 15 694 l 533 694 l 533 613 l 281 324 q 449 297 374 321 q 567 219 524 274 q 611 68 611 164 q 568 -74 611 -15 q 447 -165 525 -133 q 258 -197 368 -197 q 101 -172 168 -197 q -8 -105 35 -147 q -72 -11 -51 -62 l 31 19 q 112 -60 54 -25 q 258 -94 169 -94 q 385 -76 329 -94 q 472 -20 440 -57 q 504 69 504 17 q 431 201 504 165 q 219 236 357 236 l 151 236 z "},"ǯ":{"ha":644,"x_min":-72,"x_max":611,"o":"m 151 236 l 151 300 l 408 596 l 15 596 l 15 694 l 533 694 l 533 613 l 281 324 q 449 297 374 321 q 567 219 524 274 q 611 68 611 164 q 568 -74 611 -15 q 447 -165 525 -133 q 258 -197 368 -197 q 101 -172 168 -197 q -8 -105 35 -147 q -72 -11 -51 -62 l 31 19 q 112 -60 54 -25 q 258 -94 169 -94 q 385 -76 329 -94 q 472 -20 440 -57 q 504 69 504 17 q 431 201 504 165 q 219 236 357 236 l 151 236 m 331 768 l 208 768 l 65 974 l 169 974 l 269 829 l 369 974 l 472 974 l 331 768 z "},"f":{"ha":496,"x_min":44,"x_max":493,"o":"m 493 1000 l 472 906 q 456 910 464 908 q 438 911 447 911 q 333 905 375 918 q 269 849 290 892 q 247 726 247 807 l 247 694 l 424 694 l 424 597 l 247 597 l 247 0 l 142 0 l 142 597 l 44 597 l 44 694 l 142 694 l 142 732 q 174 900 142 838 q 267 988 206 963 q 421 1010 329 1014 q 444 1008 431 1010 q 469 1005 457 1007 q 493 1000 482 1003 z "},"g":{"ha":867,"x_min":72,"x_max":761,"o":"m 404 710 q 562 668 500 710 q 656 567 624 626 l 656 694 l 761 694 l 761 32 q 729 -153 761 -74 q 622 -278 697 -233 q 419 -324 547 -324 q 270 -303 329 -324 q 174 -243 211 -282 q 113 -150 138 -204 l 208 -107 q 252 -172 226 -146 q 317 -211 278 -197 q 417 -225 357 -225 q 560 -194 508 -225 q 634 -106 613 -164 q 656 32 656 -49 l 656 129 q 562 26 624 68 q 404 -15 500 -15 q 217 32 290 -15 q 108 161 143 79 q 72 347 72 243 q 108 535 72 453 q 217 663 143 617 q 404 710 290 710 m 179 347 q 204 208 179 268 q 281 116 229 149 q 408 83 332 83 q 540 116 485 83 q 625 208 596 149 q 654 347 654 268 q 625 487 654 428 q 540 578 596 546 q 408 611 485 611 q 281 578 332 611 q 204 487 229 546 q 179 347 179 428 z "},"ǵ":{"ha":867,"x_min":72,"x_max":761,"o":"m 404 710 q 562 668 500 710 q 656 567 624 626 l 656 694 l 761 694 l 761 38 q 729 -147 761 -67 q 622 -272 697 -228 q 419 -317 547 -317 q 270 -296 329 -317 q 174 -236 211 -275 q 113 -143 138 -197 l 208 -100 q 252 -165 226 -139 q 317 -205 278 -192 q 417 -218 357 -218 q 560 -187 508 -218 q 634 -99 613 -157 q 656 38 656 -42 l 656 129 q 562 26 624 68 q 404 -15 500 -15 q 217 32 290 -15 q 108 161 143 79 q 72 347 72 243 q 108 535 72 453 q 217 663 143 617 q 404 710 290 710 m 179 347 q 204 208 179 268 q 281 116 229 149 q 408 83 332 83 q 540 116 485 83 q 625 208 596 149 q 654 347 654 268 q 625 487 654 428 q 540 578 596 546 q 408 611 485 611 q 281 578 332 611 q 204 487 229 546 q 179 347 179 428 m 524 989 l 619 989 l 478 782 l 381 782 l 524 989 z "},"ğ":{"ha":867,"x_min":72,"x_max":761,"o":"m 404 710 q 562 668 500 710 q 656 567 624 626 l 656 694 l 761 694 l 761 38 q 729 -147 761 -67 q 622 -272 697 -228 q 419 -317 547 -317 q 270 -296 329 -317 q 174 -236 211 -275 q 113 -143 138 -197 l 208 -100 q 252 -165 226 -139 q 317 -205 278 -192 q 417 -218 357 -218 q 560 -187 508 -218 q 634 -99 613 -157 q 656 38 656 -42 l 656 129 q 562 26 624 68 q 404 -15 500 -15 q 217 32 290 -15 q 108 161 143 79 q 72 347 72 243 q 108 535 72 453 q 217 663 143 617 q 404 710 290 710 m 179 347 q 204 208 179 268 q 281 116 229 149 q 408 83 332 83 q 540 116 485 83 q 625 208 596 149 q 654 347 654 268 q 625 487 654 428 q 540 578 596 546 q 408 611 485 611 q 281 578 332 611 q 204 487 229 546 q 179 347 179 428 m 425 778 q 339 793 376 778 q 276 840 301 808 q 239 918 251 872 l 328 918 q 358 869 336 889 q 425 849 381 849 q 492 869 471 849 q 522 918 514 889 l 611 918 q 575 840 600 872 q 513 793 550 808 q 425 778 475 778 z "},"ǧ":{"ha":867,"x_min":72,"x_max":761,"o":"m 404 710 q 562 668 500 710 q 656 567 624 626 l 656 694 l 761 694 l 761 38 q 729 -147 761 -67 q 622 -272 697 -228 q 419 -317 547 -317 q 270 -296 329 -317 q 174 -236 211 -275 q 113 -143 138 -197 l 208 -100 q 252 -165 226 -139 q 317 -205 278 -192 q 417 -218 357 -218 q 560 -187 508 -218 q 634 -99 613 -157 q 656 38 656 -42 l 656 129 q 562 26 624 68 q 404 -15 500 -15 q 217 32 290 -15 q 108 161 143 79 q 72 347 72 243 q 108 535 72 453 q 217 663 143 617 q 404 710 290 710 m 179 347 q 204 208 179 268 q 281 116 229 149 q 408 83 332 83 q 540 116 485 83 q 625 208 596 149 q 654 347 654 268 q 625 487 654 428 q 540 578 596 546 q 408 611 485 611 q 281 578 332 611 q 204 487 229 546 q 179 347 179 428 m 490 775 l 368 775 l 225 982 l 329 982 l 429 838 l 528 982 l 632 982 l 490 775 z "},"ĝ":{"ha":867,"x_min":72,"x_max":761,"o":"m 404 710 q 562 668 500 710 q 656 567 624 626 l 656 694 l 761 694 l 761 38 q 729 -147 761 -67 q 622 -272 697 -228 q 419 -317 547 -317 q 270 -296 329 -317 q 174 -236 211 -275 q 113 -143 138 -197 l 208 -100 q 252 -165 226 -139 q 317 -205 278 -192 q 417 -218 357 -218 q 560 -187 508 -218 q 634 -99 613 -157 q 656 38 656 -42 l 656 129 q 562 26 624 68 q 404 -15 500 -15 q 217 32 290 -15 q 108 161 143 79 q 72 347 72 243 q 108 535 72 453 q 217 663 143 617 q 404 710 290 710 m 179 347 q 204 208 179 268 q 281 116 229 149 q 408 83 332 83 q 540 116 485 83 q 625 208 596 149 q 654 347 654 268 q 625 487 654 428 q 540 578 596 546 q 408 611 485 611 q 281 578 332 611 q 204 487 229 546 q 179 347 179 428 m 492 978 l 633 772 l 529 772 l 431 917 l 331 772 l 226 772 l 368 978 l 492 978 z "},"ģ":{"ha":867,"x_min":72,"x_max":761,"o":"m 404 710 q 562 668 500 710 q 656 567 624 626 l 656 694 l 761 694 l 761 38 q 729 -147 761 -67 q 622 -272 697 -228 q 419 -317 547 -317 q 270 -296 329 -317 q 174 -236 211 -275 q 113 -143 138 -197 l 208 -100 q 252 -165 226 -139 q 317 -205 278 -192 q 417 -218 357 -218 q 560 -187 508 -218 q 634 -99 613 -157 q 656 38 656 -42 l 656 129 q 562 26 624 68 q 404 -15 500 -15 q 217 32 290 -15 q 108 161 143 79 q 72 347 72 243 q 108 535 72 453 q 217 663 143 617 q 404 710 290 710 m 179 347 q 204 208 179 268 q 281 116 229 149 q 408 83 332 83 q 540 116 485 83 q 625 208 596 149 q 654 347 654 268 q 625 487 654 428 q 540 578 596 546 q 408 611 485 611 q 281 578 332 611 q 204 487 229 546 q 179 347 179 428 z "},"ġ":{"ha":867,"x_min":72,"x_max":761,"o":"m 404 710 q 562 668 500 710 q 656 567 624 626 l 656 694 l 761 694 l 761 38 q 729 -147 761 -67 q 622 -272 697 -228 q 419 -317 547 -317 q 270 -296 329 -317 q 174 -236 211 -275 q 113 -143 138 -197 l 208 -100 q 252 -165 226 -139 q 317 -205 278 -192 q 417 -218 357 -218 q 560 -187 508 -218 q 634 -99 613 -157 q 656 38 656 -42 l 656 129 q 562 26 624 68 q 404 -15 500 -15 q 217 32 290 -15 q 108 161 143 79 q 72 347 72 243 q 108 535 72 453 q 217 663 143 617 q 404 710 290 710 m 179 347 q 204 208 179 268 q 281 116 229 149 q 408 83 332 83 q 540 116 485 83 q 625 208 596 149 q 654 347 654 268 q 625 487 654 428 q 540 578 596 546 q 408 611 485 611 q 281 578 332 611 q 204 487 229 546 q 179 347 179 428 m 428 824 q 383 843 401 824 q 364 889 364 863 q 383 934 364 915 q 428 953 401 953 q 474 934 456 953 q 493 889 493 915 q 474 843 493 863 q 428 824 456 824 z "},"ḡ":{"ha":867,"x_min":72,"x_max":761,"o":"m 404 710 q 562 668 500 710 q 656 567 624 626 l 656 694 l 761 694 l 761 38 q 729 -147 761 -67 q 622 -272 697 -228 q 419 -317 547 -317 q 270 -296 329 -317 q 174 -236 211 -275 q 113 -143 138 -197 l 208 -100 q 252 -165 226 -139 q 317 -205 278 -192 q 417 -218 357 -218 q 560 -187 508 -218 q 634 -99 613 -157 q 656 38 656 -42 l 656 129 q 562 26 624 68 q 404 -15 500 -15 q 217 32 290 -15 q 108 161 143 79 q 72 347 72 243 q 108 535 72 453 q 217 663 143 617 q 404 710 290 710 m 179 347 q 204 208 179 268 q 281 116 229 149 q 408 83 332 83 q 540 116 485 83 q 625 208 596 149 q 654 347 654 268 q 625 487 654 428 q 540 578 596 546 q 408 611 485 611 q 281 578 332 611 q 204 487 229 546 q 179 347 179 428 m 272 896 l 590 896 l 590 813 l 272 813 l 272 896 z "},"ǥ":{"ha":867,"x_min":72,"x_max":868,"o":"m 404 710 q 562 668 500 710 q 656 567 624 626 l 656 694 l 761 694 l 761 397 l 868 397 l 868 310 l 761 310 l 761 38 q 729 -147 761 -67 q 622 -272 697 -228 q 419 -317 547 -317 q 270 -296 329 -317 q 174 -236 211 -275 q 113 -143 138 -197 l 208 -100 q 252 -165 226 -139 q 317 -205 278 -192 q 417 -218 357 -218 q 560 -187 508 -218 q 634 -99 613 -157 q 656 38 656 -42 l 656 129 q 562 26 624 68 q 404 -15 500 -15 q 217 32 290 -15 q 108 161 143 79 q 72 347 72 243 q 108 535 72 453 q 217 663 143 617 q 404 710 290 710 m 179 347 q 204 208 179 268 q 281 116 229 149 q 408 83 332 83 q 531 111 479 83 q 615 190 583 139 q 653 310 646 240 l 392 310 l 392 397 l 651 397 q 575 553 639 496 q 408 611 511 611 q 281 578 332 611 q 204 487 229 546 q 179 347 179 428 z "},"h":{"ha":865,"x_min":107,"x_max":776,"o":"m 213 0 l 107 0 l 107 1011 l 213 1011 l 213 560 q 312 666 246 622 q 476 710 378 710 q 647 667 581 710 q 744 548 713 625 q 776 365 776 471 l 776 0 l 669 0 l 669 364 q 648 499 669 443 q 583 583 626 554 q 472 611 539 611 q 337 578 394 611 q 247 486 279 546 q 213 347 214 426 l 213 0 z "},"ħ":{"ha":865,"x_min":19,"x_max":776,"o":"m 213 0 l 107 0 l 107 813 l 19 813 l 19 896 l 107 896 l 107 1011 l 213 1011 l 213 896 l 339 896 l 339 813 l 213 813 l 213 560 q 312 666 246 622 q 476 710 378 710 q 647 667 581 710 q 744 548 713 625 q 776 365 776 471 l 776 0 l 669 0 l 669 364 q 648 499 669 443 q 583 583 626 554 q 472 611 539 611 q 337 578 394 611 q 247 486 279 546 q 213 347 214 426 l 213 0 z "},"ĥ":{"ha":865,"x_min":107,"x_max":776,"o":"m 213 0 l 107 0 l 107 1011 l 213 1011 l 213 560 q 312 666 246 622 q 476 710 378 710 q 647 667 581 710 q 744 548 713 625 q 776 365 776 471 l 776 0 l 669 0 l 669 364 q 648 499 669 443 q 583 583 626 554 q 472 611 539 611 q 337 578 394 611 q 247 486 279 546 q 213 347 214 426 l 213 0 m 514 1203 l 656 997 l 551 997 l 453 1142 l 353 997 l 249 997 l 392 1203 l 514 1203 z "},"ḧ":{"ha":865,"x_min":-14,"x_max":776,"o":"m 213 0 l 107 0 l 107 913 l 213 913 l 213 560 q 312 666 246 622 q 476 710 378 710 q 647 667 581 710 q 744 548 713 625 q 776 365 776 471 l 776 0 l 669 0 l 669 364 q 648 499 669 443 q 583 583 626 554 q 472 611 539 611 q 337 578 394 611 q 247 486 279 546 q 213 347 214 426 l 213 0 m 51 1050 q 5 1069 24 1050 q -14 1115 -14 1089 q 5 1160 -14 1142 q 51 1179 24 1179 q 97 1160 78 1179 q 115 1115 115 1142 q 97 1069 115 1089 q 51 1050 78 1050 m 260 1050 q 214 1069 233 1050 q 194 1115 194 1089 q 214 1160 194 1142 q 260 1179 233 1179 q 305 1160 286 1179 q 324 1115 324 1142 q 305 1069 324 1089 q 260 1050 286 1050 z "},"ḥ":{"ha":865,"x_min":107,"x_max":776,"o":"m 213 0 l 107 0 l 107 913 l 213 913 l 213 560 q 312 666 246 622 q 476 710 378 710 q 647 667 581 710 q 744 548 713 625 q 776 365 776 471 l 776 0 l 669 0 l 669 364 q 648 499 669 443 q 583 583 626 554 q 472 611 539 611 q 337 578 394 611 q 247 486 279 546 q 213 347 214 426 l 213 0 m 450 -226 q 404 -208 424 -226 q 385 -162 385 -189 q 404 -117 385 -136 q 450 -97 424 -97 q 495 -117 476 -97 q 514 -162 514 -136 q 495 -208 514 -189 q 450 -226 476 -226 z "},"i":{"ha":325,"x_min":99,"x_max":228,"o":"m 215 694 l 215 0 l 110 0 l 110 694 l 215 694 m 164 824 q 117 843 136 824 q 99 889 99 863 q 117 934 99 915 q 164 953 136 953 q 209 934 190 953 q 228 889 228 915 q 209 843 228 863 q 164 824 190 824 z "},"ı":{"ha":325,"x_min":110,"x_max":215,"o":"m 215 694 l 215 0 l 110 0 l 110 694 l 215 694 z "},"í":{"ha":325,"x_min":110,"x_max":354,"o":"m 215 694 l 215 0 l 110 0 l 110 694 l 215 694 m 258 989 l 354 989 l 213 782 l 117 782 l 258 989 z "},"ĭ":{"ha":325,"x_min":-26,"x_max":347,"o":"m 215 694 l 215 0 l 110 0 l 110 694 l 215 694 m 160 778 q 74 793 111 778 q 11 840 36 808 q -26 918 -14 872 l 64 918 q 94 869 72 889 q 160 849 115 849 q 227 869 206 849 q 257 918 249 889 l 347 918 q 310 840 335 872 q 247 793 285 808 q 160 778 210 778 z "},"ǐ":{"ha":325,"x_min":-39,"x_max":368,"o":"m 215 694 l 215 0 l 110 0 l 110 694 l 215 694 m 225 775 l 103 775 l -39 982 l 64 982 l 164 838 l 264 982 l 368 982 l 225 775 z "},"î":{"ha":325,"x_min":-39,"x_max":368,"o":"m 215 694 l 215 0 l 110 0 l 110 694 l 215 694 m 226 978 l 368 772 l 264 772 l 165 917 l 65 772 l -39 772 l 104 978 l 226 978 z "},"ȉ":{"ha":325,"x_min":-153,"x_max":332,"o":"m -57 988 l 86 781 l -11 781 l -153 988 l -57 988 m 189 988 l 332 781 l 235 781 l 93 988 l 189 988 m 215 694 l 215 0 l 110 0 l 110 694 l 215 694 z "},"ï":{"ha":325,"x_min":-10,"x_max":328,"o":"m 215 694 l 215 0 l 110 0 l 110 694 l 215 694 m 56 825 q 10 844 29 825 q -10 890 -10 864 q 10 935 -10 917 q 56 954 29 954 q 101 935 82 954 q 119 890 119 917 q 101 844 119 864 q 56 825 82 825 m 264 825 q 218 844 238 825 q 199 890 199 864 q 218 935 199 917 q 264 954 238 954 q 309 935 290 954 q 328 890 328 917 q 309 844 328 864 q 264 825 290 825 z "},"ḯ":{"ha":325,"x_min":-10,"x_max":356,"o":"m 215 694 l 215 0 l 110 0 l 110 694 l 215 694 m 54 797 q 9 816 28 797 q -10 863 -10 835 q 9 908 -10 889 q 54 926 28 926 q 101 908 82 926 q 119 863 119 889 q 101 816 119 835 q 54 797 82 797 m 264 797 q 217 816 236 797 q 199 863 199 835 q 217 908 199 889 q 264 926 236 926 q 309 908 290 926 q 328 863 328 889 q 309 816 328 835 q 264 797 290 797 m 258 1182 l 356 1182 l 239 1013 l 142 1013 l 258 1182 z "},"ị":{"ha":326,"x_min":99,"x_max":229,"o":"m 217 694 l 217 0 l 111 0 l 111 694 l 217 694 m 164 824 q 119 843 138 824 q 100 889 100 863 q 119 934 100 915 q 164 953 138 953 q 210 934 190 953 q 229 889 229 915 q 210 843 229 863 q 164 824 190 824 m 164 -222 q 117 -203 136 -222 q 99 -158 99 -185 q 117 -112 99 -132 q 164 -93 136 -93 q 209 -112 190 -93 q 228 -158 228 -132 q 209 -203 228 -185 q 164 -222 190 -222 z "},"ì":{"ha":325,"x_min":-17,"x_max":221,"o":"m 215 694 l 215 0 l 110 0 l 110 694 l 215 694 m 79 988 l 221 781 l 125 781 l -17 988 l 79 988 z "},"ỉ":{"ha":325,"x_min":76,"x_max":294,"o":"m 215 694 l 215 0 l 110 0 l 110 694 l 215 694 m 189 1018 q 246 1005 222 1018 q 282 971 269 992 q 294 929 294 950 q 281 878 294 903 q 222 838 268 853 q 201 822 204 831 q 197 803 197 814 l 197 790 l 122 790 l 122 813 q 132 849 122 833 q 169 879 142 865 q 192 889 179 883 q 216 903 206 894 q 226 925 226 911 q 218 947 226 938 q 189 956 210 956 q 155 946 165 956 q 144 914 144 936 l 76 914 q 92 976 76 953 q 133 1008 107 999 q 189 1018 158 1018 z "},"ȋ":{"ha":325,"x_min":-18,"x_max":356,"o":"m 169 935 q 256 919 218 935 q 318 871 293 903 q 356 793 343 839 l 267 793 q 236 843 258 822 q 169 864 214 864 q 102 843 124 864 q 72 793 81 822 l -18 793 q 19 871 -6 839 q 82 919 44 903 q 169 935 119 935 m 215 694 l 215 0 l 110 0 l 110 694 l 215 694 z "},"ī":{"ha":325,"x_min":7,"x_max":326,"o":"m 215 694 l 215 0 l 110 0 l 110 694 l 215 694 m 7 896 l 325 896 l 326 813 l 7 813 l 7 896 z "},"į":{"ha":325,"x_min":-35,"x_max":228,"o":"m 215 694 l 215 0 q 126 -81 157 -46 q 83 -139 96 -115 q 71 -175 71 -162 q 88 -210 71 -197 q 129 -224 106 -224 q 149 -222 139 -224 q 169 -214 160 -219 l 183 -208 l 219 -294 l 178 -307 q 119 -317 149 -317 q 42 -299 76 -317 q -14 -251 7 -281 q -35 -185 -35 -221 q -11 -106 -35 -144 q 46 -33 13 -67 q 110 28 79 0 l 110 694 l 215 694 m 164 824 q 117 843 136 824 q 99 889 99 863 q 117 934 99 915 q 164 953 136 953 q 209 934 190 953 q 228 889 228 915 q 209 843 228 863 q 164 824 190 824 z "},"ɨ":{"ha":394,"x_min":36,"x_max":358,"o":"m 250 694 l 250 415 l 358 415 l 358 332 l 250 332 l 250 0 l 144 0 l 144 332 l 36 332 l 36 415 l 144 415 l 144 694 l 250 694 m 197 824 q 152 843 171 824 q 133 889 133 863 q 152 934 133 915 q 197 953 171 953 q 243 934 224 953 q 263 889 263 915 q 243 843 263 863 q 197 824 224 824 z "},"ĩ":{"ha":325,"x_min":-42,"x_max":404,"o":"m 215 694 l 215 0 l 110 0 l 110 694 l 215 694 m 201 871 q 233 844 219 854 q 267 833 246 833 q 317 860 306 835 q 329 913 328 885 l 404 913 q 389 840 403 878 q 347 777 375 803 q 271 751 318 751 q 207 766 231 751 q 161 801 183 781 q 128 829 142 821 q 94 838 115 838 q 56 824 69 836 q 39 794 43 811 q 33 757 35 776 l -42 757 q -26 834 -40 797 q 17 895 -12 871 q 93 919 46 919 q 158 904 135 919 q 201 871 182 889 z "},"ḭ":{"ha":325,"x_min":-49,"x_max":397,"o":"m 215 694 l 215 0 l 110 0 l 110 694 l 215 694 m 164 824 q 117 843 136 824 q 99 889 99 863 q 117 934 99 915 q 164 953 136 953 q 209 934 190 953 q 228 889 228 915 q 209 843 228 863 q 164 824 190 824 m 194 -118 q 226 -145 213 -135 q 260 -156 239 -156 q 310 -129 299 -154 q 322 -76 321 -104 l 397 -76 q 382 -149 396 -111 q 340 -212 368 -186 q 264 -237 311 -237 q 200 -223 224 -237 q 154 -187 176 -208 q 122 -160 135 -169 q 88 -151 108 -151 q 49 -165 63 -153 q 32 -196 36 -178 q 26 -232 28 -214 l -49 -232 q -33 -155 -47 -192 q 10 -94 -19 -118 q 86 -71 39 -71 q 151 -85 128 -71 q 194 -118 175 -100 z "},"ĳ":{"ha":628,"x_min":99,"x_max":529,"o":"m 215 694 l 215 0 l 110 0 l 110 694 l 215 694 m 164 824 q 117 843 136 824 q 99 889 99 863 q 117 934 99 915 q 164 953 136 953 q 209 934 190 953 q 228 889 228 915 q 209 843 228 863 q 164 824 190 824 m 518 694 l 518 -81 q 457 -268 518 -208 q 285 -321 396 -328 q 260 -319 274 -321 q 235 -316 247 -318 q 211 -312 222 -314 l 226 -218 q 242 -218 231 -217 q 264 -221 254 -219 q 374 -199 336 -229 q 413 -75 413 -169 l 413 694 l 518 694 m 465 824 q 420 843 439 824 q 401 889 401 863 q 420 934 401 915 q 465 953 439 953 q 510 934 492 953 q 529 889 529 915 q 510 843 529 863 q 465 824 492 824 z "},"j":{"ha":301,"x_min":-114,"x_max":204,"o":"m 140 824 q 94 843 113 824 q 75 889 75 863 q 94 934 75 915 q 140 953 113 953 q 185 934 167 953 q 204 889 204 915 q 185 843 204 863 q 140 824 167 824 m 192 694 l 192 -83 q 131 -270 192 -211 q -42 -324 71 -329 q -65 -322 -51 -322 q -91 -319 -78 -321 q -114 -314 -104 -317 l -99 -218 q -83 -221 -94 -219 q -62 -224 -71 -222 q 48 -201 10 -232 q 86 -78 86 -171 l 86 694 l 192 694 z "},"ȷ":{"ha":290,"x_min":-114,"x_max":192,"o":"m 192 694 l 192 -83 q 131 -270 192 -211 q -42 -324 71 -329 q -65 -322 -51 -322 q -91 -319 -78 -321 q -114 -314 -104 -317 l -99 -218 q -83 -221 -94 -219 q -62 -224 -71 -222 q 48 -201 10 -232 q 86 -78 86 -171 l 86 694 l 192 694 z "},"ĵ":{"ha":290,"x_min":-114,"x_max":344,"o":"m 192 694 l 192 -81 q 131 -268 192 -208 q -42 -321 71 -328 q -65 -319 -51 -321 q -91 -316 -78 -318 q -114 -312 -104 -314 l -99 -218 q -83 -218 -94 -217 q -62 -221 -71 -219 q 48 -199 10 -229 q 86 -75 86 -169 l 86 694 l 192 694 m 203 978 l 344 772 l 240 772 l 142 917 l 42 772 l -62 772 l 81 978 l 203 978 z "},"k":{"ha":640,"x_min":107,"x_max":679,"o":"m 107 0 l 107 924 l 213 924 l 213 392 l 544 694 l 679 694 l 403 443 l 678 0 l 564 0 l 329 378 l 213 268 l 213 0 l 107 0 z "},"ķ":{"ha":640,"x_min":107,"x_max":679,"o":"m 107 0 l 107 924 l 213 924 l 213 392 l 544 694 l 679 694 l 403 443 l 678 0 l 564 0 l 329 378 l 213 268 l 213 0 l 107 0 m 365 -235 q 313 -213 335 -235 q 292 -160 292 -192 q 313 -108 292 -129 q 365 -86 335 -86 q 422 -109 396 -86 q 451 -175 449 -132 q 434 -285 454 -240 q 375 -358 414 -331 q 282 -400 336 -386 l 264 -340 q 349 -302 315 -326 q 381 -231 382 -278 q 373 -234 378 -233 q 365 -235 368 -235 z "},"ĸ":{"ha":711,"x_min":107,"x_max":689,"o":"m 689 694 l 257 347 l 689 0 l 549 0 l 213 271 l 213 0 l 107 0 l 107 694 l 213 694 l 213 424 l 549 694 l 689 694 z "},"ƙ":{"ha":640,"x_min":107,"x_max":679,"o":"m 107 0 l 107 728 q 177 951 107 886 q 385 1010 247 1017 q 408 1008 396 1010 q 434 1005 421 1007 q 457 1000 447 1003 l 438 906 q 419 910 428 908 q 401 911 411 911 q 298 905 340 918 q 234 849 256 892 q 213 726 213 807 l 213 392 l 544 694 l 679 694 l 403 443 l 678 0 l 563 0 l 329 376 l 213 267 l 213 0 l 107 0 z "},"l":{"ha":454,"x_min":107,"x_max":449,"o":"m 449 1 q 426 -3 439 -1 q 401 -6 414 -4 q 376 -8 388 -7 q 174 57 240 -14 q 107 285 107 128 l 107 1011 l 213 1011 l 213 288 q 256 126 213 169 q 393 93 299 83 q 415 95 403 93 q 431 97 426 97 l 449 1 z "},"ĺ":{"ha":454,"x_min":107,"x_max":449,"o":"m 449 1 q 426 -3 439 -1 q 401 -6 414 -4 q 376 -8 388 -7 q 174 57 240 -14 q 107 285 107 128 l 107 961 l 213 961 l 213 288 q 256 126 213 169 q 393 93 299 83 q 415 95 403 93 q 431 97 426 97 l 449 1 m 258 1235 l 356 1235 l 214 1028 l 117 1028 l 258 1235 z "},"ľ":{"ha":651,"x_min":107,"x_max":633,"o":"m 449 1 q 426 -3 439 -1 q 401 -6 414 -4 q 376 -8 388 -7 q 174 57 240 -14 q 107 285 107 128 l 107 961 l 213 961 l 213 288 q 256 126 213 169 q 393 93 299 83 q 415 95 403 93 q 431 97 426 97 l 449 1 m 543 783 q 491 805 513 783 q 469 857 469 826 q 491 909 469 888 q 543 931 513 931 q 600 908 574 931 q 629 842 626 886 q 613 732 633 776 q 553 660 593 688 q 461 618 514 632 l 443 676 q 527 715 493 690 q 558 786 561 739 q 551 783 556 783 q 543 783 546 783 z "},"ļ":{"ha":454,"x_min":107,"x_max":449,"o":"m 449 1 q 426 -3 439 -1 q 401 -6 414 -4 q 376 -8 388 -7 q 174 57 240 -14 q 107 285 107 128 l 107 961 l 213 961 l 213 288 q 256 126 213 169 q 393 93 299 83 q 415 95 403 93 q 431 97 426 97 l 449 1 m 279 -235 q 227 -213 249 -235 q 206 -160 206 -192 q 227 -108 206 -129 q 279 -86 249 -86 q 335 -109 310 -86 q 364 -175 361 -132 q 348 -285 368 -240 q 288 -358 328 -331 q 196 -400 249 -386 l 178 -340 q 262 -302 228 -326 q 294 -231 296 -278 q 285 -234 290 -233 q 279 -235 281 -235 z "},"ŀ":{"ha":753,"x_min":107,"x_max":636,"o":"m 449 1 q 426 -3 439 -1 q 401 -6 414 -4 q 376 -8 388 -7 q 174 57 240 -14 q 107 285 107 128 l 107 961 l 213 961 l 213 288 q 256 126 213 169 q 393 93 299 83 q 415 95 403 93 q 431 97 426 97 l 449 1 m 563 307 q 510 328 532 307 q 488 381 488 350 q 510 433 488 411 q 563 456 532 456 q 615 433 593 456 q 636 381 636 411 q 615 328 636 350 q 563 307 593 307 z "},"ǉ":{"ha":767,"x_min":107,"x_max":681,"o":"m 449 1 q 426 -3 439 -1 q 401 -6 414 -4 q 376 -8 388 -7 q 174 57 240 -14 q 107 285 107 128 l 107 961 l 213 961 l 213 288 q 256 126 213 169 q 393 93 299 83 q 415 95 403 93 q 431 97 426 97 l 449 1 m 668 694 l 668 -81 q 607 -268 668 -208 q 435 -321 546 -328 q 410 -319 424 -321 q 385 -316 397 -318 q 363 -312 372 -314 l 378 -218 q 392 -218 381 -217 q 414 -221 404 -219 q 524 -199 486 -229 q 563 -75 563 -169 l 563 694 l 668 694 m 615 824 q 570 843 589 824 q 551 889 551 863 q 570 934 551 915 q 615 953 589 953 q 662 934 643 953 q 681 889 681 915 q 662 843 681 863 q 615 824 643 824 z "},"ł":{"ha":454,"x_min":18,"x_max":449,"o":"m 338 600 l 338 483 l 213 408 l 213 288 q 256 126 213 169 q 393 93 299 83 q 415 95 403 93 q 431 97 426 97 l 449 1 q 426 -3 439 -1 q 401 -6 414 -4 q 376 -8 388 -7 q 174 57 240 -14 q 107 285 107 128 l 107 344 l 18 290 l 18 407 l 107 460 l 107 961 l 213 961 l 213 525 l 338 600 z "},"m":{"ha":1426,"x_min":107,"x_max":1338,"o":"m 669 -6 l 669 358 q 628 542 669 479 q 479 606 586 606 q 342 567 403 606 q 247 463 282 528 q 213 317 213 397 l 213 -6 l 107 -6 l 107 689 l 213 689 l 213 543 q 272 620 235 583 q 362 681 308 657 q 488 704 415 704 q 660 658 593 704 q 754 518 726 613 q 824 615 783 572 q 919 681 864 657 q 1050 704 975 704 q 1221 663 1158 704 q 1310 544 1283 621 q 1338 361 1338 467 l 1338 -6 l 1232 -6 l 1232 358 q 1190 542 1232 479 q 1042 606 1149 606 q 908 569 967 606 q 813 469 849 532 q 775 329 778 406 l 775 -6 l 669 -6 z "},"n":{"ha":864,"x_min":107,"x_max":775,"o":"m 669 -6 l 669 358 q 628 546 669 479 q 479 613 586 613 q 342 572 403 613 q 247 465 282 532 q 213 317 213 397 l 213 -6 l 107 -6 l 107 689 l 213 689 l 213 543 q 272 622 235 583 q 362 686 308 661 q 488 711 415 711 q 658 667 596 711 q 748 545 721 624 q 775 361 775 467 l 775 -6 l 669 -6 z "},"ń":{"ha":864,"x_min":107,"x_max":775,"o":"m 669 -6 l 669 358 q 628 546 669 479 q 479 613 586 613 q 342 572 403 613 q 247 465 282 532 q 213 317 213 397 l 213 -6 l 107 -6 l 107 689 l 213 689 l 213 543 q 272 622 235 583 q 362 686 308 661 q 488 711 415 711 q 658 667 596 711 q 748 545 721 624 q 775 361 775 467 l 775 -6 l 669 -6 m 550 989 l 646 989 l 504 782 l 407 782 l 550 989 z "},"ŉ":{"ha":956,"x_min":-29,"x_max":867,"o":"m 761 -6 l 761 358 q 719 546 761 479 q 571 613 678 613 q 434 572 494 613 q 339 465 374 532 q 304 317 304 397 l 304 -6 l 199 -6 l 199 689 l 304 689 l 304 543 q 363 622 326 583 q 453 686 400 661 q 579 711 507 711 q 750 667 688 711 q 840 545 813 624 q 867 361 867 467 l 867 -6 l 761 -6 m 71 783 q 19 805 40 783 q -3 857 -3 826 q 19 909 -3 888 q 71 931 40 931 q 128 908 101 931 q 157 842 154 886 q 141 732 161 776 q 81 660 121 688 q -12 618 42 632 l -29 676 q 55 715 21 690 q 86 786 89 739 q 78 783 83 783 q 71 783 74 783 z "},"ň":{"ha":864,"x_min":107,"x_max":775,"o":"m 669 -6 l 669 358 q 628 546 669 479 q 479 613 586 613 q 342 572 403 613 q 247 465 282 532 q 213 317 213 397 l 213 -6 l 107 -6 l 107 689 l 213 689 l 213 543 q 272 622 235 583 q 362 686 308 661 q 488 711 415 711 q 658 667 596 711 q 748 545 721 624 q 775 361 775 467 l 775 -6 l 669 -6 m 517 775 l 394 775 l 251 982 l 356 982 l 456 838 l 554 982 l 658 982 l 517 775 z "},"ņ":{"ha":864,"x_min":107,"x_max":775,"o":"m 669 -6 l 669 358 q 628 546 669 479 q 479 613 586 613 q 342 572 403 613 q 247 465 282 532 q 213 317 213 397 l 213 -6 l 107 -6 l 107 689 l 213 689 l 213 543 q 272 622 235 583 q 362 686 308 661 q 488 711 415 711 q 658 667 596 711 q 748 545 721 624 q 775 361 775 467 l 775 -6 l 669 -6 m 451 -235 q 399 -213 421 -235 q 378 -160 378 -192 q 399 -108 378 -129 q 451 -86 421 -86 q 508 -109 482 -86 q 538 -175 535 -132 q 521 -285 540 -240 q 462 -358 501 -331 q 368 -400 422 -386 l 351 -340 q 435 -302 401 -326 q 467 -231 469 -278 q 459 -234 464 -233 q 451 -235 454 -235 z "},"ṅ":{"ha":864,"x_min":107,"x_max":775,"o":"m 669 -6 l 669 358 q 628 546 669 479 q 479 613 586 613 q 342 572 403 613 q 247 465 282 532 q 213 317 213 397 l 213 -6 l 107 -6 l 107 689 l 213 689 l 213 543 q 272 622 235 583 q 362 686 308 661 q 488 711 415 711 q 658 667 596 711 q 748 545 721 624 q 775 361 775 467 l 775 -6 l 669 -6 m 456 824 q 409 843 428 824 q 390 889 390 863 q 409 934 390 915 q 456 953 428 953 q 501 934 482 953 q 519 889 519 915 q 501 843 519 863 q 456 824 482 824 z "},"ṇ":{"ha":864,"x_min":107,"x_max":775,"o":"m 669 -6 l 669 358 q 628 546 669 479 q 479 613 586 613 q 342 572 403 613 q 247 465 282 532 q 213 317 213 397 l 213 -6 l 107 -6 l 107 689 l 213 689 l 213 543 q 272 622 235 583 q 362 686 308 661 q 488 711 415 711 q 658 667 596 711 q 748 545 721 624 q 775 361 775 467 l 775 -6 l 669 -6 m 442 -226 q 396 -208 415 -226 q 376 -162 376 -189 q 396 -117 376 -136 q 442 -97 415 -97 q 487 -117 468 -97 q 506 -162 506 -136 q 487 -208 506 -189 q 442 -226 468 -226 z "},"ɲ":{"ha":879,"x_min":-114,"x_max":790,"o":"m 121 -6 l 121 689 l 228 689 l 228 543 q 288 621 251 583 q 378 682 325 658 q 504 706 431 706 q 674 663 611 706 q 764 544 738 621 q 790 361 790 467 l 790 0 l 685 0 l 685 358 q 667 494 685 439 q 608 578 650 550 q 496 607 567 607 q 358 568 418 607 q 263 464 297 529 q 228 318 228 399 l 228 -7 q 197 -185 228 -119 q 105 -279 165 -251 q -43 -303 44 -307 q -67 -300 -54 -301 q -92 -297 -79 -299 q -114 -293 -104 -294 l -96 -199 q -80 -201 -92 -199 q -60 -204 -68 -203 q 78 -169 35 -212 q 121 -6 121 -125 z "},"ǌ":{"ha":1154,"x_min":107,"x_max":1068,"o":"m 669 -6 l 669 358 q 628 546 669 479 q 479 613 586 613 q 342 572 403 613 q 247 465 282 532 q 213 317 213 397 l 213 -6 l 107 -6 l 107 689 l 213 689 l 213 543 q 272 622 235 583 q 362 686 308 661 q 488 711 415 711 q 658 667 596 711 q 748 545 721 624 q 775 361 775 467 l 775 -6 l 669 -6 m 1056 694 l 1056 -81 q 995 -268 1056 -208 q 822 -321 935 -328 q 799 -319 811 -321 q 773 -316 786 -318 q 750 -312 760 -314 l 765 -218 q 780 -218 768 -217 q 801 -221 792 -219 q 912 -199 874 -229 q 950 -75 950 -169 l 950 694 l 1056 694 m 1003 824 q 958 843 976 824 q 939 889 939 863 q 958 934 939 915 q 1003 953 976 953 q 1049 934 1031 953 q 1068 889 1068 915 q 1049 843 1068 863 q 1003 824 1031 824 z "},"ñ":{"ha":864,"x_min":107,"x_max":775,"o":"m 669 -6 l 669 358 q 628 546 669 479 q 479 613 586 613 q 342 572 403 613 q 247 465 282 532 q 213 317 213 397 l 213 -6 l 107 -6 l 107 689 l 213 689 l 213 543 q 272 622 235 583 q 362 686 308 661 q 488 711 415 711 q 658 667 596 711 q 748 545 721 624 q 775 361 775 467 l 775 -6 l 669 -6 m 479 871 q 512 844 499 854 q 546 833 525 833 q 595 860 585 835 q 607 913 606 885 l 682 913 q 668 840 682 878 q 625 777 654 803 q 550 751 596 751 q 485 766 508 751 q 440 801 463 781 q 408 829 421 821 q 374 838 394 838 q 335 824 347 836 q 318 794 322 811 q 313 757 314 776 l 238 757 q 252 834 238 797 q 296 895 267 871 q 371 919 325 919 q 437 904 413 919 q 479 871 461 889 z "},"ŋ":{"ha":864,"x_min":106,"x_max":775,"o":"m 106 0 l 106 694 l 213 694 l 213 549 q 272 625 235 588 q 362 686 308 663 q 488 710 415 710 q 658 668 596 710 q 748 549 721 626 q 775 367 775 471 l 775 -19 q 708 -249 775 -178 q 504 -312 642 -319 q 481 -311 493 -312 q 456 -308 468 -310 q 433 -303 443 -306 l 451 -210 q 466 -212 454 -210 q 488 -214 478 -214 q 624 -180 581 -224 q 668 -15 668 -136 l 668 364 q 627 547 668 483 q 479 611 586 611 q 342 572 403 611 q 247 468 282 533 q 213 322 213 403 l 213 0 l 106 0 z "},"o":{"ha":833,"x_min":72,"x_max":761,"o":"m 417 -15 q 226 31 303 -15 q 111 160 150 78 q 72 347 72 242 q 111 533 72 451 q 226 663 150 615 q 417 710 303 710 q 607 663 531 710 q 722 533 683 615 q 761 347 761 451 q 722 160 761 242 q 607 31 683 78 q 417 -15 531 -15 m 417 83 q 547 116 493 83 q 627 208 600 149 q 654 347 654 267 q 627 486 654 426 q 547 578 600 546 q 417 611 493 611 q 287 578 340 611 q 206 486 233 546 q 179 347 179 426 q 206 208 179 267 q 287 116 233 149 q 417 83 340 83 z "},"ó":{"ha":833,"x_min":72,"x_max":761,"o":"m 417 -15 q 226 31 303 -15 q 111 160 150 78 q 72 347 72 242 q 111 533 72 451 q 226 663 150 615 q 417 710 303 710 q 607 663 531 710 q 722 533 683 615 q 761 347 761 451 q 722 160 761 242 q 607 31 683 78 q 417 -15 531 -15 m 417 83 q 547 116 493 83 q 627 208 600 149 q 654 347 654 267 q 627 486 654 426 q 547 578 600 546 q 417 611 493 611 q 287 578 340 611 q 206 486 233 546 q 179 347 179 426 q 206 208 179 267 q 287 116 233 149 q 417 83 340 83 m 513 989 l 608 989 l 467 782 l 369 782 l 513 989 z "},"ɵ":{"ha":833,"x_min":72,"x_max":761,"o":"m 417 -15 q 226 31 303 -15 q 111 160 150 78 q 72 347 72 242 q 111 533 72 451 q 226 663 150 615 q 417 710 303 710 q 607 663 531 710 q 722 533 683 615 q 761 347 761 451 q 722 160 761 242 q 607 31 683 78 q 417 -15 531 -15 m 417 83 q 538 111 488 83 q 618 190 589 139 q 653 310 647 240 l 181 310 q 215 190 186 240 q 295 111 244 139 q 417 83 346 83 m 182 397 l 651 397 q 579 553 639 496 q 417 611 519 611 q 254 553 314 611 q 182 397 194 496 z "},"ŏ":{"ha":833,"x_min":72,"x_max":761,"o":"m 417 -15 q 226 31 303 -15 q 111 160 150 78 q 72 347 72 242 q 111 533 72 451 q 226 663 150 615 q 417 710 303 710 q 607 663 531 710 q 722 533 683 615 q 761 347 761 451 q 722 160 761 242 q 607 31 683 78 q 417 -15 531 -15 m 417 83 q 547 116 493 83 q 627 208 600 149 q 654 347 654 267 q 627 486 654 426 q 547 578 600 546 q 417 611 493 611 q 287 578 340 611 q 206 486 233 546 q 179 347 179 426 q 206 208 179 267 q 287 116 233 149 q 417 83 340 83 m 414 778 q 328 793 365 778 q 265 840 290 808 q 228 918 240 872 l 317 918 q 347 869 325 889 q 414 849 369 849 q 481 869 460 849 q 511 918 503 889 l 600 918 q 564 840 589 872 q 501 793 539 808 q 414 778 464 778 z "},"ǒ":{"ha":833,"x_min":72,"x_max":761,"o":"m 417 -15 q 226 31 303 -15 q 111 160 150 78 q 72 347 72 242 q 111 533 72 451 q 226 663 150 615 q 417 710 303 710 q 607 663 531 710 q 722 533 683 615 q 761 347 761 451 q 722 160 761 242 q 607 31 683 78 q 417 -15 531 -15 m 417 83 q 547 116 493 83 q 627 208 600 149 q 654 347 654 267 q 627 486 654 426 q 547 578 600 546 q 417 611 493 611 q 287 578 340 611 q 206 486 233 546 q 179 347 179 426 q 206 208 179 267 q 287 116 233 149 q 417 83 340 83 m 479 775 l 357 775 l 214 982 l 318 982 l 418 838 l 517 982 l 621 982 l 479 775 z "},"ô":{"ha":833,"x_min":72,"x_max":761,"o":"m 417 -15 q 226 31 303 -15 q 111 160 150 78 q 72 347 72 242 q 111 533 72 451 q 226 663 150 615 q 417 710 303 710 q 607 663 531 710 q 722 533 683 615 q 761 347 761 451 q 722 160 761 242 q 607 31 683 78 q 417 -15 531 -15 m 417 83 q 547 116 493 83 q 627 208 600 149 q 654 347 654 267 q 627 486 654 426 q 547 578 600 546 q 417 611 493 611 q 287 578 340 611 q 206 486 233 546 q 179 347 179 426 q 206 208 179 267 q 287 116 233 149 q 417 83 340 83 m 481 978 l 622 772 l 518 772 l 419 917 l 319 772 l 215 772 l 358 978 l 481 978 z "},"ố":{"ha":894,"x_min":72,"x_max":822,"o":"m 417 -15 q 226 31 303 -15 q 111 160 150 78 q 72 347 72 242 q 111 533 72 451 q 226 663 150 615 q 417 710 303 710 q 607 663 531 710 q 722 533 683 615 q 761 347 761 451 q 722 160 761 242 q 607 31 683 78 q 417 -15 531 -15 m 417 83 q 547 116 493 83 q 627 208 600 149 q 654 347 654 267 q 627 486 654 426 q 547 578 600 546 q 417 611 493 611 q 287 578 340 611 q 206 486 233 546 q 179 347 179 426 q 206 208 179 267 q 287 116 233 149 q 417 83 340 83 m 481 978 l 622 772 l 518 772 l 419 917 l 319 772 l 215 772 l 358 978 l 481 978 m 726 1099 l 822 1099 l 681 892 l 583 892 l 726 1099 z "},"ộ":{"ha":833,"x_min":72,"x_max":761,"o":"m 417 -15 q 226 31 303 -15 q 111 160 150 78 q 72 347 72 242 q 111 533 72 451 q 226 663 150 615 q 417 710 303 710 q 607 663 531 710 q 722 533 683 615 q 761 347 761 451 q 722 160 761 242 q 607 31 683 78 q 417 -15 531 -15 m 417 83 q 547 116 493 83 q 627 208 600 149 q 654 347 654 267 q 627 486 654 426 q 547 578 600 546 q 417 611 493 611 q 287 578 340 611 q 206 486 233 546 q 179 347 179 426 q 206 208 179 267 q 287 116 233 149 q 417 83 340 83 m 415 -226 q 369 -208 388 -226 q 350 -162 350 -189 q 369 -117 350 -136 q 415 -97 388 -97 q 460 -117 442 -97 q 479 -162 479 -136 q 460 -208 479 -189 q 415 -226 442 -226 m 481 978 l 622 772 l 518 772 l 419 917 l 319 772 l 215 772 l 358 978 l 481 978 z "}}}
